<?xml version="1.0" encoding="UTF-8"?>
<!DOCTYPE svg PUBLIC "-//W3C//DTD SVG 1.1//EN" "http://www.w3.org/Graphics/SVG/1.1/DTD/svg11.dtd">
<!-- Created HDS 2004.1a -->


<svg xmlns="http://www.w3.org/2000/svg" xmlns:xlink="http://www.w3.org/1999/xlink" version="1.1">
<script xlink:href="../../scripts/SVGPan.js" />
<g id="viewport" transform="translate(0,-100)">


<title>SVG Image</title>
<desc></desc>


<defs>
<!-- section for CSS stylesheet definitions -->
<style type="text/css"><![CDATA[
.allText {font-family:Sans-Serif;fill:darkcyan;}
.subTitleText {font-size:20;font-weight:bold;}
.normalText {font-size:15;}
.smallText {font-size:12;}
.boldText {font-weight:bold;}
.rightText {text-anchor:end;}
.centerText {text-anchor:middle;}
.dragRect {fill:darkcyan;stroke:none;opacity:0.4;}
]]></style>
<symbol id="upArrow" overflow="visible" style="stroke:darkcyan;fill:darkcyan;stroke-width:1;" pointer-events="none">
<polygon points="5,0 10,5 0,5 5,0" />
</symbol>
<symbol id="leftArrow" overflow="visible" style="stroke:darkcyan;fill:darkcyan;stroke-width:1;" pointer-events="none">
<polygon points="0,5 5,0 5,10 0,5" />
</symbol>
<symbol id="rightArrow" overflow="visible" style="stroke:darkcyan;fill:darkcyan;stroke-width:1;" pointer-events="none">
<polygon points="5,0 10,5 5,10 5,0" />
</symbol>
<symbol id="downArrow" overflow="visible" style="stroke:darkcyan;fill:darkcyan;stroke-width:1;" pointer-events="none">
<polygon points="0,0 5,5 10,0 0,0" />
</symbol>

</defs>
<svg id="mainMap" x="0" y="150" viewBox="0 0 896 664" width="912" height="512">


<clipPath id="SVG_Clip">
<rect x="0" y="0" width="896" height="664" />
</clipPath>
<g id="hds_models" style="clip-path:url(#SVG_Clip)">
<circle id="r0"  stroke="rgb(0,255,255)" fill="rgb(0,255,255)" stroke-width="1px" stroke-dasharray="" cx="418" cy="253" r="37"/> 
<circle stroke="rgb(0,127,191)" fill="none" stroke-width="3px" stroke-dasharray="" cx="418" cy="253" r="37"/> 
<rect id="r0"  stroke="rgb(254,254,179)" fill="rgb(254,254,179)" stroke-width="1px" stroke-dasharray="" y="647px" x="387px" width="213px" height="12px" rx="0" ry="0" />
<rect id="r0"  stroke="rgb(0,0,0)" fill="none" stroke-width="1px" stroke-dasharray="" y="647px" x="387px" width="213px" height="12px" rx="0" ry="0" />
<rect id="r0"  stroke="rgb(254,254,179)" fill="rgb(254,254,179)" stroke-width="1px" stroke-dasharray="" y="622px" x="387px" width="213px" height="12px" rx="0" ry="0" />
<rect id="r0"  stroke="rgb(0,0,0)" fill="none" stroke-width="1px" stroke-dasharray="" y="622px" x="387px" width="213px" height="12px" rx="0" ry="0" />
<rect id="r0"  stroke="rgb(254,254,179)" fill="rgb(254,254,179)" stroke-width="1px" stroke-dasharray="" y="597px" x="337px" width="263px" height="25px" rx="0" ry="0" />
<rect id="r0"  stroke="rgb(0,0,0)" fill="none" stroke-width="1px" stroke-dasharray="" y="597px" x="337px" width="263px" height="25px" rx="0" ry="0" />
<rect id="r0"  stroke="rgb(254,254,179)" fill="rgb(254,254,179)" stroke-width="1px" stroke-dasharray="" y="634px" x="387px" width="213px" height="13px" rx="0" ry="0" />
<rect id="r0"  stroke="rgb(0,0,0)" fill="none" stroke-width="1px" stroke-dasharray="" y="634px" x="387px" width="213px" height="13px" rx="0" ry="0" />
<circle id="r0"  stroke="rgb(0,255,255)" fill="rgb(0,255,255)" stroke-width="1px" stroke-dasharray="" cx="727" cy="368" r="37"/> 
<circle stroke="rgb(0,127,191)" fill="none" stroke-width="3px" stroke-dasharray="" cx="727" cy="368" r="37"/> 
<circle id="r0"  stroke="rgb(0,255,255)" fill="rgb(0,255,255)" stroke-width="1px" stroke-dasharray="" cx="433" cy="570" r="37"/> 
<circle stroke="rgb(0,127,191)" fill="none" stroke-width="3px" stroke-dasharray="" cx="433" cy="570" r="37"/> 
<circle id="r0"  stroke="rgb(0,255,255)" fill="rgb(0,255,255)" stroke-width="1px" stroke-dasharray="" cx="288" cy="308" r="37"/> 
<circle stroke="rgb(0,127,191)" fill="none" stroke-width="3px" stroke-dasharray="" cx="288" cy="308" r="37"/> 
<polyline id="r0"  stroke="rgb(255,255,0)" fill="rgb(255,255,0)" stroke-width="1px" stroke-dasharray="" points="41, 178,59, 178,69, 184,59, 191,41, 191,41, 178" /> 
<polyline id="r0"  stroke="rgb(0,0,0)" fill="none" stroke-width="1px" stroke-dasharray="" points="41, 178,59, 178,69, 184,59, 191,41, 191,41, 178" /> 
<path stroke="rgb(0,0,0)" fill="none" stroke-width="1px" stroke-dasharray="" transform="translate(45,184) rotate(0.000000)"
d="M 1.27840 1.53808 A 2 2 0 1 1 1.27840 -1.53808 " /> 
<polyline id="r0"  stroke="rgb(255,255,0)" fill="rgb(255,255,0)" stroke-width="1px" stroke-dasharray="" points="41, 178,59, 178,69, 184,59, 191,41, 191,41, 178" /> 
<polyline id="r0"  stroke="rgb(0,0,0)" fill="none" stroke-width="1px" stroke-dasharray="" points="41, 178,59, 178,69, 184,59, 191,41, 191,41, 178" /> 
<polyline id="r0"  stroke="rgb(0,0,0)" fill="none" stroke-width="1px" stroke-dasharray="" points="52, 188,56, 188,56, 181,59, 181" /> 
<path stroke="rgb(0,0,0)" fill="none" stroke-width="1px" stroke-dasharray="" transform="translate(45,184) rotate(0.000000)"
d="M 1.27840 1.53808 A 2 2 0 1 1 1.27840 -1.53808 " /> 
<polyline id="r0"  stroke="rgb(255,255,0)" fill="rgb(255,255,0)" stroke-width="1px" stroke-dasharray="" points="41, 291,59, 291,69, 297,59, 303,41, 303,41, 291" /> 
<polyline id="r0"  stroke="rgb(0,0,0)" fill="none" stroke-width="1px" stroke-dasharray="" points="41, 291,59, 291,69, 297,59, 303,41, 303,41, 291" /> 
<polyline id="r0"  stroke="rgb(255,255,0)" fill="rgb(255,255,0)" stroke-width="1px" stroke-dasharray="" points="41, 291,59, 291,69, 297,59, 303,41, 303,41, 291" /> 
<polyline id="r0"  stroke="rgb(0,0,0)" fill="none" stroke-width="1px" stroke-dasharray="" points="41, 291,59, 291,69, 297,59, 303,41, 303,41, 291" /> 
<polyline id="r0"  stroke="rgb(0,0,0)" fill="none" stroke-width="1px" stroke-dasharray="" points="59, 301,56, 301,56, 293,52, 293" /> 
<polyline id="r0"  stroke="rgb(0,0,0)" fill="none" stroke-width="1px" stroke-dasharray="" points="44, 295,45, 295" /> 
<polyline id="r0"  stroke="rgb(0,0,0)" fill="none" stroke-width="1px" stroke-dasharray="" points="44, 299,44, 295" /> 
<polyline id="r0"  stroke="rgb(255,255,0)" fill="rgb(255,255,0)" stroke-width="1px" stroke-dasharray="" points="212, 291,231, 291,241, 297,231, 303,212, 303,212, 291" /> 
<polyline id="r0"  stroke="rgb(0,0,0)" fill="none" stroke-width="1px" stroke-dasharray="" points="212, 291,231, 291,241, 297,231, 303,212, 303,212, 291" /> 
<polyline id="r0"  stroke="rgb(255,255,0)" fill="rgb(255,255,0)" stroke-width="1px" stroke-dasharray="" points="212, 291,231, 291,241, 297,231, 303,212, 303,212, 291" /> 
<polyline id="r0"  stroke="rgb(0,0,0)" fill="none" stroke-width="1px" stroke-dasharray="" points="212, 291,231, 291,241, 297,231, 303,212, 303,212, 291" /> 
<polyline id="r0"  stroke="rgb(0,0,0)" fill="none" stroke-width="1px" stroke-dasharray="" points="206, 297,212, 297" /> 
<circle id="r0"  stroke="rgb(255,0,0)" fill="rgb(255,0,0)" stroke-width="1px" stroke-dasharray="" cx="52" cy="234" r="11"/> 
<circle stroke="rgb(0,0,0)" fill="none" stroke-width="1px" stroke-dasharray="" cx="52" cy="234" r="11"/> 
<circle id="r0"  stroke="rgb(255,0,0)" fill="rgb(255,0,0)" stroke-width="1px" stroke-dasharray="" cx="52" cy="234" r="11"/> 
<circle stroke="rgb(0,0,0)" fill="none" stroke-width="1px" stroke-dasharray="" cx="52" cy="234" r="11"/> 
<polyline id="r0"  stroke="rgb(255,255,0)" fill="none" stroke-width="2px" stroke-dasharray="" points="47, 240,57, 229" /> 
<polyline id="r0"  stroke="rgb(255,255,0)" fill="none" stroke-width="2px" stroke-dasharray="" points="57, 240,47, 229" /> 
<polyline id="r0"  stroke="rgb(255,255,0)" fill="rgb(255,255,0)" stroke-width="1px" stroke-dasharray="" points="212, 228,231, 228,241, 234,231, 241,212, 241,212, 228" /> 
<polyline id="r0"  stroke="rgb(0,0,0)" fill="none" stroke-width="1px" stroke-dasharray="" points="212, 228,231, 228,241, 234,231, 241,212, 241,212, 228" /> 
<polyline id="r0"  stroke="rgb(255,255,0)" fill="rgb(255,255,0)" stroke-width="1px" stroke-dasharray="" points="212, 228,231, 228,241, 234,231, 241,212, 241,212, 228" /> 
<polyline id="r0"  stroke="rgb(0,0,0)" fill="none" stroke-width="1px" stroke-dasharray="" points="212, 228,231, 228,241, 234,231, 241,212, 241,212, 228" /> 
<polyline id="r0"  stroke="rgb(0,0,0)" fill="none" stroke-width="1px" stroke-dasharray="" points="206, 234,212, 234" /> 
<circle id="r0"  stroke="rgb(0,255,255)" fill="rgb(0,255,255)" stroke-width="1px" stroke-dasharray="" cx="321" cy="196" r="37"/> 
<circle stroke="rgb(0,127,191)" fill="none" stroke-width="3px" stroke-dasharray="" cx="321" cy="196" r="37"/> 
<circle id="r0"  stroke="rgb(0,255,255)" fill="rgb(0,255,255)" stroke-width="1px" stroke-dasharray="" cx="561" cy="241" r="37"/> 
<circle stroke="rgb(0,127,191)" fill="none" stroke-width="3px" stroke-dasharray="" cx="561" cy="241" r="37"/> 
<circle id="r0"  stroke="rgb(0,255,255)" fill="rgb(0,255,255)" stroke-width="1px" stroke-dasharray="" cx="658" cy="284" r="37"/> 
<circle stroke="rgb(0,127,191)" fill="none" stroke-width="3px" stroke-dasharray="" cx="658" cy="284" r="37"/> 
<rect id="r0"  stroke="rgb(254,254,179)" fill="rgb(254,254,179)" stroke-width="1px" stroke-dasharray="" y="622px" x="337px" width="50px" height="12px" rx="0" ry="0" />
<rect id="r0"  stroke="rgb(0,0,0)" fill="none" stroke-width="1px" stroke-dasharray="" y="622px" x="337px" width="50px" height="12px" rx="0" ry="0" />
<rect id="r0"  stroke="rgb(254,254,179)" fill="rgb(254,254,179)" stroke-width="1px" stroke-dasharray="" y="634px" x="337px" width="50px" height="13px" rx="0" ry="0" />
<rect id="r0"  stroke="rgb(0,0,0)" fill="none" stroke-width="1px" stroke-dasharray="" y="634px" x="337px" width="50px" height="13px" rx="0" ry="0" />
<rect id="r0"  stroke="rgb(254,254,179)" fill="rgb(254,254,179)" stroke-width="1px" stroke-dasharray="" y="647px" x="337px" width="50px" height="12px" rx="0" ry="0" />
<rect id="r0"  stroke="rgb(0,0,0)" fill="none" stroke-width="1px" stroke-dasharray="" y="647px" x="337px" width="50px" height="12px" rx="0" ry="0" />
<circle id="r0"  stroke="rgb(0,255,255)" fill="rgb(0,255,255)" stroke-width="1px" stroke-dasharray="" cx="299" cy="576" r="37"/> 
<circle stroke="rgb(0,127,191)" fill="none" stroke-width="3px" stroke-dasharray="" cx="299" cy="576" r="37"/> 
<circle id="r0"  stroke="rgb(0,255,255)" fill="rgb(0,255,255)" stroke-width="1px" stroke-dasharray="" cx="213" cy="519" r="37"/> 
<circle stroke="rgb(0,127,191)" fill="none" stroke-width="3px" stroke-dasharray="" cx="213" cy="519" r="37"/> 
<circle id="r0"  stroke="rgb(0,255,255)" fill="rgb(0,255,255)" stroke-width="1px" stroke-dasharray="" cx="225" cy="413" r="37"/> 
<circle stroke="rgb(0,127,191)" fill="none" stroke-width="3px" stroke-dasharray="" cx="225" cy="413" r="37"/> 
<rect id="r0"  stroke="rgb(254,254,179)" fill="rgb(254,254,179)" stroke-width="1px" stroke-dasharray="" y="597px" x="600px" width="50px" height="12px" rx="0" ry="0" />
<rect id="r0"  stroke="rgb(0,0,0)" fill="none" stroke-width="1px" stroke-dasharray="" y="597px" x="600px" width="50px" height="12px" rx="0" ry="0" />
<rect id="r0"  stroke="rgb(254,254,179)" fill="rgb(254,254,179)" stroke-width="1px" stroke-dasharray="" y="609px" x="600px" width="250px" height="50px" rx="0" ry="0" />
<rect id="r0"  stroke="rgb(0,0,0)" fill="none" stroke-width="1px" stroke-dasharray="" y="609px" x="600px" width="250px" height="50px" rx="0" ry="0" />
<rect id="r0"  stroke="rgb(254,254,179)" fill="rgb(254,254,179)" stroke-width="1px" stroke-dasharray="" y="597px" x="650px" width="200px" height="12px" rx="0" ry="0" />
<rect id="r0"  stroke="rgb(0,0,0)" fill="none" stroke-width="1px" stroke-dasharray="" y="597px" x="650px" width="200px" height="12px" rx="0" ry="0" />
<circle id="r0"  stroke="rgb(0,255,255)" fill="rgb(0,255,255)" stroke-width="1px" stroke-dasharray="" cx="676" cy="480" r="37"/> 
<circle stroke="rgb(0,127,191)" fill="none" stroke-width="3px" stroke-dasharray="" cx="676" cy="480" r="37"/> 
<circle id="r0"  stroke="rgb(0,255,255)" fill="rgb(0,255,255)" stroke-width="1px" stroke-dasharray="" cx="561" cy="540" r="37"/> 
<circle stroke="rgb(0,127,191)" fill="none" stroke-width="3px" stroke-dasharray="" cx="561" cy="540" r="37"/> 
<polyline id="r0"  stroke="rgb(0,0,0)" fill="none" stroke-width="1px" stroke-dasharray="" points="52, 188,56, 188,56, 181,59, 181" /> 
<polyline id="r0"  stroke="rgb(0,0,0)" fill="none" stroke-width="1px" stroke-dasharray="" points="59, 301,56, 301,56, 293,52, 293" /> 
<polyline id="r0"  stroke="rgb(0,0,0)" fill="none" stroke-width="1px" stroke-dasharray="" points="44, 295,45, 295" /> 
<polyline id="r0"  stroke="rgb(0,0,0)" fill="none" stroke-width="1px" stroke-dasharray="" points="44, 299,44, 295" /> 
<polyline id="r0"  stroke="rgb(0,0,0)" fill="none" stroke-width="1px" stroke-dasharray="" points="206, 297,212, 297" /> 
<polyline id="r0"  stroke="rgb(255,255,0)" fill="none" stroke-width="2px" stroke-dasharray="" points="47, 240,57, 229" /> 
<polyline id="r0"  stroke="rgb(255,255,0)" fill="none" stroke-width="2px" stroke-dasharray="" points="57, 240,47, 229" /> 
<polyline id="r0"  stroke="rgb(0,0,0)" fill="none" stroke-width="1px" stroke-dasharray="" points="206, 234,212, 234" /> 
<polyline id="r0"  stroke="rgb(0,0,0)" fill="none" stroke-width="1px" stroke-dasharray="" points="69, 297,206, 297" /> 
<polyline id="r0"  stroke="rgb(0,0,0)" fill="none" stroke-width="1px" stroke-dasharray="" points="63, 234,206, 234" /> 
<polyline id="r0"  stroke="rgb(0,0,0)" fill="none" stroke-width="1px" stroke-dasharray="" points="455, 251,524, 235" /> 
<polyline id="r0"  stroke="rgb(0,0,0)" fill="rgb(0,0,0)" stroke-width="1px" stroke-dasharray="" points="518, 240,516, 234,524, 235" /> 
<polyline id="r0"  stroke="rgb(0,0,0)" fill="none" stroke-width="1px" stroke-dasharray="" points="598, 239,627, 261" /> 
<polyline id="r0"  stroke="rgb(0,0,0)" fill="rgb(0,0,0)" stroke-width="1px" stroke-dasharray="" points="620, 259,624, 254,627, 261" /> 
<polyline id="r0"  stroke="rgb(0,0,0)" fill="none" stroke-width="1px" stroke-dasharray="" points="680, 313,699, 342" /> 
<polyline id="r0"  stroke="rgb(0,0,0)" fill="rgb(0,0,0)" stroke-width="1px" stroke-dasharray="" points="692, 338,698, 334,699, 342" /> 
<polyline id="r0"  stroke="rgb(0,0,0)" fill="none" stroke-width="1px" stroke-dasharray="" points="728, 405,697, 449" /> 
<polyline id="r0"  stroke="rgb(0,0,0)" fill="rgb(0,0,0)" stroke-width="1px" stroke-dasharray="" points="698, 442,703, 445,697, 449" /> 
<polyline id="r0"  stroke="rgb(0,0,0)" fill="none" stroke-width="1px" stroke-dasharray="" points="642, 496,592, 519" /> 
<polyline id="r0"  stroke="rgb(0,0,0)" fill="rgb(0,0,0)" stroke-width="1px" stroke-dasharray="" points="597, 513,600, 519,592, 519" /> 
<polyline id="r0"  stroke="rgb(0,0,0)" fill="none" stroke-width="1px" stroke-dasharray="" points="524, 548,469, 561" /> 
<polyline id="r0"  stroke="rgb(0,0,0)" fill="rgb(0,0,0)" stroke-width="1px" stroke-dasharray="" points="475, 557,477, 563,469, 561" /> 
<polyline id="r0"  stroke="rgb(0,0,0)" fill="none" stroke-width="1px" stroke-dasharray="" points="395, 572,336, 576" /> 
<polyline id="r0"  stroke="rgb(0,0,0)" fill="rgb(0,0,0)" stroke-width="1px" stroke-dasharray="" points="343, 573,343, 579,336, 576" /> 
<polyline id="r0"  stroke="rgb(0,0,0)" fill="none" stroke-width="1px" stroke-dasharray="" points="310, 540,250, 519" /> 
<polyline id="r0"  stroke="rgb(0,0,0)" fill="rgb(0,0,0)" stroke-width="1px" stroke-dasharray="" points="257, 519,255, 525,250, 519" /> 
<polyline id="r0"  stroke="rgb(0,0,0)" fill="none" stroke-width="1px" stroke-dasharray="" points="216, 481,220, 450" /> 
<polyline id="r0"  stroke="rgb(0,0,0)" fill="rgb(0,0,0)" stroke-width="1px" stroke-dasharray="" points="223, 457,216, 456,220, 450" /> 
<polyline id="r0"  stroke="rgb(0,0,0)" fill="none" stroke-width="1px" stroke-dasharray="" points="230, 375,263, 336" /> 
<polyline id="r0"  stroke="rgb(0,0,0)" fill="rgb(0,0,0)" stroke-width="1px" stroke-dasharray="" points="261, 344,256, 340,263, 336" /> 
<polyline id="r0"  stroke="rgb(0,0,0)" fill="none" stroke-width="1px" stroke-dasharray="" points="296, 271,306, 230" /> 
<polyline id="r0"  stroke="rgb(0,0,0)" fill="rgb(0,0,0)" stroke-width="1px" stroke-dasharray="" points="308, 237,302, 236,306, 230" /> 
<polyline id="r0"  stroke="rgb(0,0,0)" fill="none" stroke-width="1px" stroke-dasharray="" points="358, 189,391, 225" /> 
<polyline id="r0"  stroke="rgb(0,0,0)" fill="rgb(0,0,0)" stroke-width="1px" stroke-dasharray="" points="384, 222,389, 218,391, 225" /> 
<rect id="r0"  stroke="rgb(255,255,255)" fill="rgb(255,255,255)" stroke-width="1px" stroke-dasharray="" y="177px" x="69px" width="125px" height="15px" rx="0" ry="0" />
<rect id="r0"  stroke="rgb(0,127,191)" fill="none" stroke-width="1px" stroke-dasharray="" y="177px" x="69px" width="125px" height="15px" rx="0" ry="0" />
<rect id="r0"  stroke="rgb(255,255,255)" fill="rgb(255,255,255)" stroke-width="1px" stroke-dasharray="" y="284px" x="112px" width="50px" height="25px" rx="0" ry="0" />
<rect id="r0"  stroke="rgb(0,127,191)" fill="none" stroke-width="1px" stroke-dasharray="" y="284px" x="112px" width="50px" height="25px" rx="0" ry="0" />
<text x="204" y="556" font-family="arial" fill="rgb(0,0,0)" font-size="10" text-anchor="start">x_coord &#0060;= "00100000";</text>
<text x="204" y="568" font-family="arial" fill="rgb(0,0,0)" font-size="10" text-anchor="start">y_coord &#0060;= "00000010";</text>
<text x="658" y="288" font-family="arial" fill="rgb(0,0,0)" font-weight="800" font-size="12" text-anchor="middle">s2</text>
<text x="0" y="94" font-family="arial" fill="rgb(0,0,0)" font-weight="800" font-size="10" text-anchor="start">Package List</text>
<text x="0" y="107" font-family="arial" fill="rgb(0,0,0)" font-size="10" text-anchor="start">LIBRARY ieee;</text>
<text x="0" y="119" font-family="arial" fill="rgb(0,0,0)" font-size="10" text-anchor="start">USE ieee.std_logic_1164.all;</text>
<text x="0" y="132" font-family="arial" fill="rgb(0,0,0)" font-size="10" text-anchor="start">USE ieee.std_logic_arith.all;</text>
<text x="276" y="45" font-family="arial" fill="rgb(0,0,0)" font-weight="800" font-size="10" text-anchor="start">Architecture Declarations</text>
<text x="276" y="57" font-family="arial" fill="rgb(0,0,0)" font-weight="800" font-size="10" text-anchor="start">Pre Decls</text>
<text x="276" y="69" font-family="arial" fill="rgb(0,0,0)" font-weight="800" font-size="10" text-anchor="start">Post Decls</text>
<text x="0" y="45" font-family="arial" fill="rgb(0,0,0)" font-weight="800" font-size="10" text-anchor="start">Global Actions</text>
<text x="0" y="57" font-family="arial" fill="rgb(0,0,0)" font-weight="800" font-size="10" text-anchor="start">Pre Actions:</text>
<text x="0" y="69" font-family="arial" fill="rgb(0,0,0)" font-weight="800" font-size="10" text-anchor="start">Post Actions:</text>
<text x="115" y="45" font-family="arial" fill="rgb(0,0,0)" font-weight="800" font-size="10" text-anchor="start">Concurrent Statements</text>
<text x="732" y="10" font-family="arial" fill="rgb(0,0,0)" font-weight="800" font-size="10" text-anchor="start">Process Declarations</text>
<text x="732" y="22" font-family="arial" fill="rgb(0,0,0)" font-weight="800" font-size="10" text-anchor="start">Clocked Process:</text>
<text x="732" y="35" font-family="arial" fill="rgb(0,0,0)" font-weight="800" font-size="10" text-anchor="start">Output Process:</text>
<text x="554" y="45" font-family="arial" fill="rgb(0,0,0)" font-weight="800" font-size="10" text-anchor="start">State Register Statements</text>
<text x="445" y="45" font-family="arial" fill="rgb(0,0,0)" font-weight="800" font-size="10" text-anchor="start">Signal Status</text>
<text x="445" y="54" font-family="Courier New" fill="rgb(0,0,0)" font-size="10" text-anchor="start">SIGNAL   MODE    DEFAULT                     RESET  SCHEME COMMENT  </text>
<text x="445" y="64" font-family="Courier New" fill="rgb(0,0,0)" font-size="10" text-anchor="start">x_coord  OUT     "01000000"                         COMB            </text>
<text x="445" y="74" font-family="Courier New" fill="rgb(0,0,0)" font-size="10" text-anchor="start">y_coord  OUT     "00100000"                         COMB            </text>
<text x="445" y="84" font-family="Courier New" fill="rgb(0,0,0)" font-size="10" text-anchor="start">color    OUT     "000000111110110011111100"         COMB            </text>
<text x="445" y="94" font-family="Courier New" fill="rgb(0,0,0)" font-size="10" text-anchor="start">victory  OUT     '0'                                COMB            </text>
<text x="417" y="257" font-family="arial" fill="rgb(0,0,0)" font-weight="800" font-size="12" text-anchor="middle">s0</text>
<text x="34" y="188" font-family="arial" fill="rgb(0,0,0)" font-size="10" text-anchor="end">clk</text>
<text x="70" y="188" font-family="arial" fill="rgb(0,0,0)" font-size="10" text-anchor="start">clk'EVENT AND clk = '1'</text>
<text x="247" y="238" font-family="arial" fill="rgb(0,0,0)" font-weight="800" font-size="10" text-anchor="start">s0</text>
<text x="321" y="200" font-family="arial" fill="rgb(0,0,0)" font-weight="800" font-size="12" text-anchor="middle">s11</text>
<text x="335" y="239" font-family="arial" fill="rgb(0,0,0)" font-size="10" text-anchor="start">victory &#0060;= '1' ;</text>
<text x="561" y="245" font-family="arial" fill="rgb(0,0,0)" font-weight="800" font-size="12" text-anchor="middle">s1</text>
<text x="535" y="188" font-family="arial" fill="rgb(0,0,0)" font-size="10" text-anchor="start">x_coord &#0060;= "01000000";</text>
<text x="535" y="200" font-family="arial" fill="rgb(0,0,0)" font-size="10" text-anchor="start">y_coord &#0060;= "00100000";</text>
<text x="659" y="238" font-family="arial" fill="rgb(0,0,0)" font-size="10" text-anchor="start">x_coord &#0060;= "00100000";</text>
<text x="659" y="251" font-family="arial" fill="rgb(0,0,0)" font-size="10" text-anchor="start">y_coord &#0060;= "01000000";</text>
<text x="718" y="405" font-family="arial" fill="rgb(0,0,0)" font-size="10" text-anchor="start">x_coord &#0060;= "01000000";</text>
<text x="718" y="417" font-family="arial" fill="rgb(0,0,0)" font-size="10" text-anchor="start">y_coord &#0060;= "01000000";</text>
<text x="225" y="417" font-family="arial" fill="rgb(0,0,0)" font-weight="800" font-size="12" text-anchor="middle">s9</text>
<text x="41" y="301" font-family="arial" fill="rgb(0,0,0)" font-size="10" text-anchor="end">rst</text>
<text x="247" y="301" font-family="arial" fill="rgb(0,0,0)" font-weight="800" font-size="10" text-anchor="start">s0</text>
<text x="288" y="313" font-family="arial" fill="rgb(0,0,0)" font-weight="800" font-size="12" text-anchor="middle">s10</text>
<text x="279" y="345" font-family="arial" fill="rgb(0,0,0)" font-size="10" text-anchor="start">x_coord &#0060;= "00000100";</text>
<text x="279" y="358" font-family="arial" fill="rgb(0,0,0)" font-size="10" text-anchor="start">y_coord &#0060;= "00000010";</text>
<text x="119" y="294" font-family="arial" fill="rgb(0,0,0)" font-size="10" text-anchor="start">rst = '0'</text>
<text x="726" y="372" font-family="arial" fill="rgb(0,0,0)" font-weight="800" font-size="12" text-anchor="middle">s3</text>
<text x="212" y="523" font-family="arial" fill="rgb(0,0,0)" font-weight="800" font-size="12" text-anchor="middle">s8</text>
<text x="216" y="450" font-family="arial" fill="rgb(0,0,0)" font-size="10" text-anchor="start">x_coord &#0060;= "00100000";</text>
<text x="216" y="462" font-family="arial" fill="rgb(0,0,0)" font-size="10" text-anchor="start">y_coord &#0060;= "00000100";</text>
<text x="676" y="485" font-family="arial" fill="rgb(0,0,0)" font-weight="800" font-size="12" text-anchor="middle">s4</text>
<text x="668" y="517" font-family="arial" fill="rgb(0,0,0)" font-size="10" text-anchor="start">x_coord &#0060;= "00010000";</text>
<text x="668" y="530" font-family="arial" fill="rgb(0,0,0)" font-size="10" text-anchor="start">y_coord &#0060;= "01000000";</text>
<text x="561" y="545" font-family="arial" fill="rgb(0,0,0)" font-weight="800" font-size="12" text-anchor="middle">s5</text>
<text x="390" y="657" font-family="Arial" fill="rgb(0,0,128)" font-size="10" text-anchor="start">by ACER on 28 May 2020</text>
<text x="602" y="607" font-family="Arial" fill="rgb(0,0,128)" font-size="10" text-anchor="start">Project:</text>
<text x="390" y="632" font-family="Arial" fill="rgb(0,0,128)" font-size="10" text-anchor="start">&#0060;enter diagram title here&#0062;</text>
<text x="340" y="632" font-family="Arial" fill="rgb(0,0,128)" font-size="10" text-anchor="start">Title:</text>
<text x="602" y="622" font-family="Arial" fill="rgb(0,0,128)" font-size="10" text-anchor="start">&#0060;enter comments here&#0062;</text>
<text x="652" y="607" font-family="Arial" fill="rgb(0,0,128)" font-size="10" text-anchor="start">alien_game</text>
<text x="469" y="613" font-family="Arial" fill="rgb(127,0,0)" font-size="10" text-anchor="middle">&#0060;company name&#0062;</text>
<text x="340" y="644" font-family="Arial" fill="rgb(0,0,128)" font-size="10" text-anchor="start">Path:</text>
<text x="340" y="657" font-family="Arial" fill="rgb(0,0,128)" font-size="10" text-anchor="start">Edited:</text>
<text x="390" y="644" font-family="Arial" fill="rgb(0,0,128)" font-size="10" text-anchor="start">alien_game_lib/c4_t2_victory_effect/fsm</text>
<text x="553" y="577" font-family="arial" fill="rgb(0,0,0)" font-size="10" text-anchor="start">x_coord &#0060;= "00001000";</text>
<text x="553" y="590" font-family="arial" fill="rgb(0,0,0)" font-size="10" text-anchor="start">y_coord &#0060;= "01000000";</text>
<text x="433" y="575" font-family="arial" fill="rgb(0,0,0)" font-weight="800" font-size="12" text-anchor="middle">s6</text>
<text x="425" y="607" font-family="arial" fill="rgb(0,0,0)" font-size="10" text-anchor="start">x_coord &#0060;= "00000100";</text>
<text x="425" y="620" font-family="arial" fill="rgb(0,0,0)" font-size="10" text-anchor="start">y_coord &#0060;= "01000000";</text>
<text x="299" y="581" font-family="arial" fill="rgb(0,0,0)" font-weight="800" font-size="12" text-anchor="middle">s7</text>
<text x="291" y="613" font-family="arial" fill="rgb(0,0,0)" font-size="10" text-anchor="start">x_coord &#0060;= "00000010";</text>
<text x="291" y="626" font-family="arial" fill="rgb(0,0,0)" font-size="10" text-anchor="start">y_coord &#0060;= "00100000";</text>
<polyline id="r0"  stroke="rgb(0,0,0)" fill="none" stroke-width="1px" stroke-dasharray="" points="119, 302,156, 302" /> 
</g>
</svg>
<!-- Create a "titlebox" group so we can reposition it when the SVG moves -->
<g id="titlebox">
<g id="genTime" class="allText normalText">
  <text class="allText smallText" x="300" y="123">Generated on: 05/29/2020 at: 10:20 PM</text>
</g>

<rect stroke="none" fill="rgb(200,230,240)" opacity="0.4" y="112" x="0" width="914" height="15" />
<!-- Close the "titlebox" group -->
</g>

</g>
</svg>
