<?xml version="1.0" encoding="UTF-8"?>
<!DOCTYPE svg PUBLIC "-//W3C//DTD SVG 1.1//EN" "http://www.w3.org/Graphics/SVG/1.1/DTD/svg11.dtd">
<!-- Created HDS 2004.1a -->


<svg xmlns="http://www.w3.org/2000/svg" xmlns:xlink="http://www.w3.org/1999/xlink" version="1.1">
<script xlink:href="../../scripts/SVGPan.js" />
<g id="viewport" transform="translate(0,-100)">


<title>SVG Image</title>
<desc></desc>


<defs>
<!-- section for CSS stylesheet definitions -->
<style type="text/css"><![CDATA[
.allText {font-family:Sans-Serif;fill:darkcyan;}
.subTitleText {font-size:20;font-weight:bold;}
.normalText {font-size:15;}
.smallText {font-size:12;}
.boldText {font-weight:bold;}
.rightText {text-anchor:end;}
.centerText {text-anchor:middle;}
.dragRect {fill:darkcyan;stroke:none;opacity:0.4;}
]]></style>
<symbol id="upArrow" overflow="visible" style="stroke:darkcyan;fill:darkcyan;stroke-width:1;" pointer-events="none">
<polygon points="5,0 10,5 0,5 5,0" />
</symbol>
<symbol id="leftArrow" overflow="visible" style="stroke:darkcyan;fill:darkcyan;stroke-width:1;" pointer-events="none">
<polygon points="0,5 5,0 5,10 0,5" />
</symbol>
<symbol id="rightArrow" overflow="visible" style="stroke:darkcyan;fill:darkcyan;stroke-width:1;" pointer-events="none">
<polygon points="5,0 10,5 5,10 5,0" />
</symbol>
<symbol id="downArrow" overflow="visible" style="stroke:darkcyan;fill:darkcyan;stroke-width:1;" pointer-events="none">
<polygon points="0,0 5,5 10,0 0,0" />
</symbol>

</defs>
<svg id="mainMap" x="0" y="150" viewBox="0 0 969 617" width="912" height="512">


<clipPath id="SVG_Clip">
<rect x="0" y="0" width="969" height="617" />
</clipPath>
<g id="hds_models" style="clip-path:url(#SVG_Clip)">
<polyline id="r0"  stroke="rgb(0,255,255)" fill="rgb(0,255,255)" stroke-width="1px" stroke-dasharray="" points="542, 150,567, 167,567, 183,542, 200,542, 150,542, 150" /> 
<polyline id="r0"  stroke="rgb(102,102,102)" fill="none" stroke-width="1px" stroke-dasharray="" points="542, 150,567, 167,567, 183,542, 200,542, 150,542, 150" /> 
<polyline id="r0"  stroke="rgb(0,0,0)" fill="none" stroke-width="1px" stroke-dasharray="" points="542, 200,542, 200" /> 
<polyline id="r0"  stroke="rgb(0,0,0)" fill="none" stroke-width="1px" stroke-dasharray="" points="542, 150,542, 150" /> 
<polyline id="r0"  stroke="rgb(0,255,255)" fill="rgb(0,255,255)" stroke-width="1px" stroke-dasharray="" points="579, 262,604, 279,604, 296,579, 312,579, 262,579, 262" /> 
<polyline id="r0"  stroke="rgb(102,102,102)" fill="none" stroke-width="1px" stroke-dasharray="" points="579, 262,604, 279,604, 296,579, 312,579, 262,579, 262" /> 
<polyline id="r0"  stroke="rgb(0,0,0)" fill="none" stroke-width="1px" stroke-dasharray="" points="579, 312,579, 312" /> 
<polyline id="r0"  stroke="rgb(0,0,0)" fill="none" stroke-width="1px" stroke-dasharray="" points="579, 262,579, 262" /> 
<polyline id="r0"  stroke="rgb(0,255,255)" fill="rgb(0,255,255)" stroke-width="1px" stroke-dasharray="" points="629, 387,654, 404,654, 421,629, 437,629, 387,629, 387" /> 
<polyline id="r0"  stroke="rgb(102,102,102)" fill="none" stroke-width="1px" stroke-dasharray="" points="629, 387,654, 404,654, 421,629, 437,629, 387,629, 387" /> 
<polyline id="r0"  stroke="rgb(0,0,0)" fill="none" stroke-width="1px" stroke-dasharray="" points="629, 437,629, 437" /> 
<polyline id="r0"  stroke="rgb(0,0,0)" fill="none" stroke-width="1px" stroke-dasharray="" points="629, 387,629, 387" /> 
<polyline id="r0"  stroke="rgb(0,0,128)" fill="rgb(0,0,128)" stroke-width="1px" stroke-dasharray="" points="80, 108,92, 108,98, 112,92, 117,80, 117,80, 108" /> 
<polyline id="r0"  stroke="rgb(0,0,0)" fill="none" stroke-width="1px" stroke-dasharray="" points="80, 108,92, 108,98, 112,92, 117,80, 117,80, 108" /> 
<polyline id="r0"  stroke="rgb(0,0,128)" fill="rgb(0,0,128)" stroke-width="1px" stroke-dasharray="" points="80, 108,92, 108,98, 112,92, 117,80, 117,80, 108" /> 
<polyline id="r0"  stroke="rgb(0,0,0)" fill="none" stroke-width="1px" stroke-dasharray="" points="80, 108,92, 108,98, 112,92, 117,80, 117,80, 108" /> 
<polyline id="r0"  stroke="rgb(0,0,0)" fill="none" stroke-width="1px" stroke-dasharray="" points="98, 112,104, 112" /> 
<polyline id="r0"  stroke="rgb(0,0,128)" fill="rgb(0,0,128)" stroke-width="1px" stroke-dasharray="" points="873, 170,886, 170,892, 175,886, 180,873, 180,873, 170" /> 
<polyline id="r0"  stroke="rgb(0,0,0)" fill="none" stroke-width="1px" stroke-dasharray="" points="873, 170,886, 170,892, 175,886, 180,873, 180,873, 170" /> 
<polyline id="r0"  stroke="rgb(0,0,128)" fill="rgb(0,0,128)" stroke-width="1px" stroke-dasharray="" points="873, 170,886, 170,892, 175,886, 180,873, 180,873, 170" /> 
<polyline id="r0"  stroke="rgb(0,0,0)" fill="none" stroke-width="1px" stroke-dasharray="" points="873, 170,886, 170,892, 175,886, 180,873, 180,873, 170" /> 
<polyline id="r0"  stroke="rgb(0,0,0)" fill="none" stroke-width="1px" stroke-dasharray="" points="867, 175,873, 175" /> 
<polyline id="r0"  stroke="rgb(0,0,128)" fill="rgb(0,0,128)" stroke-width="1px" stroke-dasharray="" points="30, 395,42, 395,48, 400,42, 405,30, 405,30, 395" /> 
<polyline id="r0"  stroke="rgb(0,0,0)" fill="none" stroke-width="1px" stroke-dasharray="" points="30, 395,42, 395,48, 400,42, 405,30, 405,30, 395" /> 
<polyline id="r0"  stroke="rgb(0,0,128)" fill="rgb(0,0,128)" stroke-width="1px" stroke-dasharray="" points="30, 395,42, 395,48, 400,42, 405,30, 405,30, 395" /> 
<polyline id="r0"  stroke="rgb(0,0,0)" fill="none" stroke-width="1px" stroke-dasharray="" points="30, 395,42, 395,48, 400,42, 405,30, 405,30, 395" /> 
<polyline id="r0"  stroke="rgb(0,0,0)" fill="none" stroke-width="1px" stroke-dasharray="" points="48, 400,55, 400" /> 
<polyline id="r0"  stroke="rgb(0,0,128)" fill="rgb(0,0,128)" stroke-width="1px" stroke-dasharray="" points="886, 283,898, 283,904, 287,898, 292,886, 292,886, 283" /> 
<polyline id="r0"  stroke="rgb(0,0,0)" fill="none" stroke-width="1px" stroke-dasharray="" points="886, 283,898, 283,904, 287,898, 292,886, 292,886, 283" /> 
<polyline id="r0"  stroke="rgb(0,0,128)" fill="rgb(0,0,128)" stroke-width="1px" stroke-dasharray="" points="886, 283,898, 283,904, 287,898, 292,886, 292,886, 283" /> 
<polyline id="r0"  stroke="rgb(0,0,0)" fill="none" stroke-width="1px" stroke-dasharray="" points="886, 283,898, 283,904, 287,898, 292,886, 292,886, 283" /> 
<polyline id="r0"  stroke="rgb(0,0,0)" fill="none" stroke-width="1px" stroke-dasharray="" points="879, 287,886, 287" /> 
<polyline id="r0"  stroke="rgb(0,0,128)" fill="rgb(0,0,128)" stroke-width="1px" stroke-dasharray="" points="898, 408,911, 408,917, 412,911, 417,898, 417,898, 408" /> 
<polyline id="r0"  stroke="rgb(0,0,0)" fill="none" stroke-width="1px" stroke-dasharray="" points="898, 408,911, 408,917, 412,911, 417,898, 417,898, 408" /> 
<polyline id="r0"  stroke="rgb(0,0,128)" fill="rgb(0,0,128)" stroke-width="1px" stroke-dasharray="" points="898, 408,911, 408,917, 412,911, 417,898, 417,898, 408" /> 
<polyline id="r0"  stroke="rgb(0,0,0)" fill="none" stroke-width="1px" stroke-dasharray="" points="898, 408,911, 408,917, 412,911, 417,898, 417,898, 408" /> 
<polyline id="r0"  stroke="rgb(0,0,0)" fill="none" stroke-width="1px" stroke-dasharray="" points="892, 412,898, 412" /> 
<rect id="r0"  stroke="rgb(254,254,179)" fill="rgb(254,254,179)" stroke-width="1px" stroke-dasharray="" y="600px" x="479px" width="213px" height="12px" rx="0" ry="0" />
<rect id="r0"  stroke="rgb(0,0,0)" fill="none" stroke-width="1px" stroke-dasharray="" y="600px" x="479px" width="213px" height="12px" rx="0" ry="0" />
<rect id="r0"  stroke="rgb(254,254,179)" fill="rgb(254,254,179)" stroke-width="1px" stroke-dasharray="" y="550px" x="692px" width="50px" height="12px" rx="0" ry="0" />
<rect id="r0"  stroke="rgb(0,0,0)" fill="none" stroke-width="1px" stroke-dasharray="" y="550px" x="692px" width="50px" height="12px" rx="0" ry="0" />
<rect id="r0"  stroke="rgb(254,254,179)" fill="rgb(254,254,179)" stroke-width="1px" stroke-dasharray="" y="575px" x="479px" width="213px" height="12px" rx="0" ry="0" />
<rect id="r0"  stroke="rgb(0,0,0)" fill="none" stroke-width="1px" stroke-dasharray="" y="575px" x="479px" width="213px" height="12px" rx="0" ry="0" />
<rect id="r0"  stroke="rgb(254,254,179)" fill="rgb(254,254,179)" stroke-width="1px" stroke-dasharray="" y="575px" x="429px" width="50px" height="12px" rx="0" ry="0" />
<rect id="r0"  stroke="rgb(0,0,0)" fill="none" stroke-width="1px" stroke-dasharray="" y="575px" x="429px" width="50px" height="12px" rx="0" ry="0" />
<rect id="r0"  stroke="rgb(254,254,179)" fill="rgb(254,254,179)" stroke-width="1px" stroke-dasharray="" y="562px" x="692px" width="250px" height="50px" rx="0" ry="0" />
<rect id="r0"  stroke="rgb(0,0,0)" fill="none" stroke-width="1px" stroke-dasharray="" y="562px" x="692px" width="250px" height="50px" rx="0" ry="0" />
<rect id="r0"  stroke="rgb(254,254,179)" fill="rgb(254,254,179)" stroke-width="1px" stroke-dasharray="" y="550px" x="742px" width="200px" height="12px" rx="0" ry="0" />
<rect id="r0"  stroke="rgb(0,0,0)" fill="none" stroke-width="1px" stroke-dasharray="" y="550px" x="742px" width="200px" height="12px" rx="0" ry="0" />
<rect id="r0"  stroke="rgb(254,254,179)" fill="rgb(254,254,179)" stroke-width="1px" stroke-dasharray="" y="550px" x="429px" width="263px" height="25px" rx="0" ry="0" />
<rect id="r0"  stroke="rgb(0,0,0)" fill="none" stroke-width="1px" stroke-dasharray="" y="550px" x="429px" width="263px" height="25px" rx="0" ry="0" />
<rect id="r0"  stroke="rgb(254,254,179)" fill="rgb(254,254,179)" stroke-width="1px" stroke-dasharray="" y="587px" x="429px" width="50px" height="13px" rx="0" ry="0" />
<rect id="r0"  stroke="rgb(0,0,0)" fill="none" stroke-width="1px" stroke-dasharray="" y="587px" x="429px" width="50px" height="13px" rx="0" ry="0" />
<rect id="r0"  stroke="rgb(254,254,179)" fill="rgb(254,254,179)" stroke-width="1px" stroke-dasharray="" y="600px" x="429px" width="50px" height="12px" rx="0" ry="0" />
<rect id="r0"  stroke="rgb(0,0,0)" fill="none" stroke-width="1px" stroke-dasharray="" y="600px" x="429px" width="50px" height="12px" rx="0" ry="0" />
<rect id="r0"  stroke="rgb(254,254,179)" fill="rgb(254,254,179)" stroke-width="1px" stroke-dasharray="" y="587px" x="479px" width="213px" height="13px" rx="0" ry="0" />
<rect id="r0"  stroke="rgb(0,0,0)" fill="none" stroke-width="1px" stroke-dasharray="" y="587px" x="479px" width="213px" height="13px" rx="0" ry="0" />
<a xlink:href='javascript:parent.location.href="../../alien_game_lib/constant_value/struct_bd.htm"'>
<rect id="r0"  stroke="rgb(0,255,0)" fill="rgb(0,255,0)" stroke-width="1px" stroke-dasharray="" y="151px" x="268px" width="99px" height="61px" rx="0" ry="0" />
</a>
<rect id="r0"  stroke="rgb(0,128,0)" fill="none" stroke-width="3px" stroke-dasharray="" y="151px" x="268px" width="99px" height="61px" rx="0" ry="0" />
<a xlink:href='javascript:parent.location.href="../../alien_game_lib/constant_value/struct_bd.htm"'>
<image xlink:href="BlockDiagram.png" x="270" y="191" width="19" height="18" />
</a>
<a xlink:href='javascript:parent.location.href="../../alien_game_lib/user_input/struct_bd.htm"'>
<rect id="r0"  stroke="rgb(0,255,0)" fill="rgb(0,255,0)" stroke-width="1px" stroke-dasharray="" y="388px" x="143px" width="186px" height="74px" rx="0" ry="0" />
</a>
<rect id="r0"  stroke="rgb(0,128,0)" fill="none" stroke-width="3px" stroke-dasharray="" y="388px" x="143px" width="186px" height="74px" rx="0" ry="0" />
<a xlink:href='javascript:parent.location.href="../../alien_game_lib/user_input/struct_bd.htm"'>
<image xlink:href="BlockDiagram.png" x="145" y="441" width="19" height="18" />
</a>
<polyline id="r0"  stroke="rgb(0,0,0)" fill="none" stroke-width="1px" stroke-dasharray="" points="98, 112,104, 112" /> 
<polyline id="r0"  stroke="rgb(0,0,0)" fill="none" stroke-width="1px" stroke-dasharray="" points="867, 175,873, 175" /> 
<polyline id="r0"  stroke="rgb(0,0,0)" fill="none" stroke-width="1px" stroke-dasharray="" points="48, 400,55, 400" /> 
<polyline id="r0"  stroke="rgb(0,0,0)" fill="none" stroke-width="1px" stroke-dasharray="" points="879, 287,886, 287" /> 
<polyline id="r0"  stroke="rgb(0,0,0)" fill="none" stroke-width="1px" stroke-dasharray="" points="892, 412,898, 412" /> 
<a xlink:href='javascript:parent.location.href="../../alien_game_lib/constant_value/struct_bd.htm"'>
<polyline id="r0"  stroke="rgb(0,255,0)" fill="rgb(0,255,0)" stroke-width="1px" stroke-dasharray="" points="376, 162,367, 167,367, 158,376, 162" /> 
</a>
<polyline id="r0"  stroke="rgb(0,0,0)" fill="none" stroke-width="1px" stroke-dasharray="" points="376, 162,367, 167,367, 158,376, 162" /> 
<a xlink:href='javascript:parent.location.href="../../alien_game_lib/constant_value/struct_bd.htm"'>
<polyline id="r0"  stroke="rgb(0,255,0)" fill="rgb(0,255,0)" stroke-width="1px" stroke-dasharray="" points="376, 175,367, 180,367, 170,376, 175" /> 
</a>
<polyline id="r0"  stroke="rgb(0,0,0)" fill="none" stroke-width="1px" stroke-dasharray="" points="376, 175,367, 180,367, 170,376, 175" /> 
<a xlink:href='javascript:parent.location.href="../../alien_game_lib/constant_value/struct_bd.htm"'>
<polyline id="r0"  stroke="rgb(0,255,0)" fill="rgb(0,255,0)" stroke-width="1px" stroke-dasharray="" points="376, 187,367, 192,367, 183,376, 187" /> 
</a>
<polyline id="r0"  stroke="rgb(0,0,0)" fill="none" stroke-width="1px" stroke-dasharray="" points="376, 187,367, 192,367, 183,376, 187" /> 
<polyline id="r0"  stroke="rgb(0,0,0)" fill="none" stroke-width="3px" stroke-dasharray="" points="529, 162,542, 162" /> 
<polyline id="r0"  stroke="rgb(0,0,0)" fill="none" stroke-width="3px" stroke-dasharray="" points="579, 175,567, 175" /> 
<polyline id="r0"  stroke="rgb(0,0,0)" fill="none" stroke-width="3px" stroke-dasharray="" points="529, 187,542, 187" /> 
<polyline id="r0"  stroke="rgb(0,0,0)" fill="none" stroke-width="1px" stroke-dasharray="" points="554, 137,554, 158" /> 
<polyline id="r0"  stroke="rgb(0,0,0)" fill="none" stroke-width="3px" stroke-dasharray="" points="567, 275,579, 275" /> 
<polyline id="r0"  stroke="rgb(0,0,0)" fill="none" stroke-width="3px" stroke-dasharray="" points="617, 287,604, 287" /> 
<polyline id="r0"  stroke="rgb(0,0,0)" fill="none" stroke-width="3px" stroke-dasharray="" points="567, 300,579, 300" /> 
<polyline id="r0"  stroke="rgb(0,0,0)" fill="none" stroke-width="1px" stroke-dasharray="" points="592, 250,592, 271" /> 
<polyline id="r0"  stroke="rgb(0,0,0)" fill="none" stroke-width="3px" stroke-dasharray="" points="617, 400,629, 400" /> 
<polyline id="r0"  stroke="rgb(0,0,0)" fill="none" stroke-width="3px" stroke-dasharray="" points="667, 412,654, 412" /> 
<polyline id="r0"  stroke="rgb(0,0,0)" fill="none" stroke-width="3px" stroke-dasharray="" points="617, 425,629, 425" /> 
<polyline id="r0"  stroke="rgb(0,0,0)" fill="none" stroke-width="1px" stroke-dasharray="" points="642, 375,642, 396" /> 
<a xlink:href='javascript:parent.location.href="../../alien_game_lib/user_input/struct_bd.htm"'>
<polyline id="r0"  stroke="rgb(0,255,0)" fill="rgb(0,255,0)" stroke-width="1px" stroke-dasharray="" points="339, 400,329, 405,329, 395,339, 400" /> 
</a>
<polyline id="r0"  stroke="rgb(0,0,0)" fill="none" stroke-width="1px" stroke-dasharray="" points="339, 400,329, 405,329, 395,339, 400" /> 
<a xlink:href='javascript:parent.location.href="../../alien_game_lib/user_input/struct_bd.htm"'>
<polyline id="r0"  stroke="rgb(0,255,0)" fill="rgb(0,255,0)" stroke-width="1px" stroke-dasharray="" points="339, 412,329, 417,329, 408,339, 412" /> 
</a>
<polyline id="r0"  stroke="rgb(0,0,0)" fill="none" stroke-width="1px" stroke-dasharray="" points="339, 412,329, 417,329, 408,339, 412" /> 
<a xlink:href='javascript:parent.location.href="../../alien_game_lib/user_input/struct_bd.htm"'>
<polyline id="r0"  stroke="rgb(0,255,0)" fill="rgb(0,255,0)" stroke-width="1px" stroke-dasharray="" points="339, 425,329, 430,329, 420,339, 425" /> 
</a>
<polyline id="r0"  stroke="rgb(0,0,0)" fill="none" stroke-width="1px" stroke-dasharray="" points="339, 425,329, 430,329, 420,339, 425" /> 
<a xlink:href='javascript:parent.location.href="../../alien_game_lib/user_input/struct_bd.htm"'>
<polyline id="r0"  stroke="rgb(0,255,0)" fill="rgb(0,255,0)" stroke-width="1px" stroke-dasharray="" points="142, 400,133, 405,133, 395,142, 400" /> 
</a>
<polyline id="r0"  stroke="rgb(0,0,0)" fill="none" stroke-width="1px" stroke-dasharray="" points="142, 400,133, 405,133, 395,142, 400" /> 
<circle id="r0"  stroke="rgb(0,0,0)" fill="rgb(0,0,0)" stroke-width="1px" stroke-dasharray="" cx="554" cy="112" r="5"/> 
<circle stroke="rgb(0,0,0)" fill="none" stroke-width="1px" stroke-dasharray="" cx="554" cy="112" r="5"/> 
<circle id="r0"  stroke="rgb(0,0,0)" fill="rgb(0,0,0)" stroke-width="1px" stroke-dasharray="" cx="592" cy="112" r="5"/> 
<circle stroke="rgb(0,0,0)" fill="none" stroke-width="1px" stroke-dasharray="" cx="592" cy="112" r="5"/> 
<text x="329" y="52" font-family="Courier New" fill="rgb(0,0,0)" font-size="10" text-anchor="start">color_BGR  : std_logic_vector(23 DOWNTO 0)</text>
<text x="329" y="62" font-family="Courier New" fill="rgb(0,0,0)" font-size="10" text-anchor="start">x_coord    : std_logic_vector(7 DOWNTO 0)</text>
<text x="329" y="72" font-family="Courier New" fill="rgb(0,0,0)" font-size="10" text-anchor="start">y_coord    : std_logic_vector(7 DOWNTO 0)</text>
<text x="482" y="610" font-family="Arial" fill="rgb(0,0,128)" font-size="10" text-anchor="start">by bdgitr on 16 helmi 2020</text>
<text x="482" y="585" font-family="Arial" fill="rgb(0,0,128)" font-size="10" text-anchor="start">&#0060;enter diagram title here&#0062;</text>
<text x="482" y="597" font-family="Arial" fill="rgb(0,0,128)" font-size="10" text-anchor="start">alien_game_lib/c1_t3_hello_led/struct</text>
<text x="582" y="306" font-family="arial" fill="rgb(0,0,0)" font-size="10" text-anchor="start">Hi</text>
<text x="329" y="95" font-family="Courier New" fill="rgb(0,0,0)" font-size="10" text-anchor="start">SIGNAL color_BGR1 : std_logic_vector(23 DOWNTO 0)</text>
<text x="329" y="105" font-family="Courier New" fill="rgb(0,0,0)" font-size="10" text-anchor="start">SIGNAL color_BGR2 : std_logic_vector(23 DOWNTO 0)</text>
<text x="329" y="115" font-family="Courier New" fill="rgb(0,0,0)" font-size="10" text-anchor="start">SIGNAL x_coord1   : std_logic_vector(7 DOWNTO 0)</text>
<text x="329" y="125" font-family="Courier New" fill="rgb(0,0,0)" font-size="10" text-anchor="start">SIGNAL x_coord2   : std_logic_vector(7 DOWNTO 0)</text>
<text x="329" y="135" font-family="Courier New" fill="rgb(0,0,0)" font-size="10" text-anchor="start">SIGNAL y_coord1   : std_logic_vector(7 DOWNTO 0)</text>
<text x="329" y="145" font-family="Courier New" fill="rgb(0,0,0)" font-size="10" text-anchor="start">SIGNAL y_coord2   : std_logic_vector(7 DOWNTO 0)</text>
<text x="329" y="42" font-family="Courier New" fill="rgb(0,0,0)" font-size="10" text-anchor="start">sw0        : std_logic</text>
<text x="329" y="32" font-family="Courier New" fill="rgb(0,0,0)" font-size="10" text-anchor="start">btn        : std_logic_vector(3 DOWNTO 0)</text>
<text x="401" y="160" font-family="arial" fill="rgb(0,0,0)" font-size="10" text-anchor="start">color_BGR1 : (23:0)</text>
<text x="464" y="185" font-family="arial" fill="rgb(0,0,0)" font-size="10" text-anchor="start">color_BGR2</text>
<text x="501" y="297" font-family="arial" fill="rgb(0,0,0)" font-size="10" text-anchor="start">x_coord2</text>
<text x="92" y="10" font-family="arial" fill="rgb(0,0,0)" font-weight="800" font-size="10" text-anchor="start">Package List</text>
<text x="92" y="22" font-family="arial" fill="rgb(0,0,0)" font-size="10" text-anchor="start">LIBRARY ieee;</text>
<text x="92" y="35" font-family="arial" fill="rgb(0,0,0)" font-size="10" text-anchor="start">USE ieee.std_logic_1164.all;</text>
<text x="92" y="47" font-family="arial" fill="rgb(0,0,0)" font-size="10" text-anchor="start">USE ieee.std_logic_arith.all;</text>
<text x="304" y="10" font-family="arial" fill="rgb(0,0,0)" font-weight="800" font-size="10" text-anchor="start">Declarations</text>
<text x="304" y="22" font-family="arial" fill="rgb(0,0,0)" font-weight="800" font-size="10" text-anchor="start">Ports:</text>
<text x="304" y="85" font-family="arial" fill="rgb(0,0,0)" font-weight="800" font-size="10" text-anchor="start">Diagram Signals:</text>
<text x="67" y="116" font-family="arial" fill="rgb(0,0,0)" font-size="10" text-anchor="end">sw0</text>
<text x="282" y="235" font-family="arial" fill="rgb(0,0,0)" font-weight="800" font-size="10" text-anchor="start">alien_game_lib</text>
<text x="282" y="247" font-family="arial" fill="rgb(0,0,0)" font-weight="800" font-size="10" text-anchor="start">constant_value</text>
<text x="282" y="260" font-family="arial" fill="rgb(0,0,0)" font-weight="800" font-size="10" text-anchor="start">U_0</text>
<text x="354" y="166" font-family="arial" fill="rgb(0,0,0)" font-size="10" text-anchor="end">color_BGR : (23:0)</text>
<text x="354" y="179" font-family="arial" fill="rgb(0,0,0)" font-size="10" text-anchor="end">x_coord : (7:0)</text>
<text x="354" y="191" font-family="arial" fill="rgb(0,0,0)" font-size="10" text-anchor="end">y_coord : (7:0)</text>
<text x="401" y="172" font-family="arial" fill="rgb(0,0,0)" font-size="10" text-anchor="start">x_coord1 : (7:0)</text>
<text x="401" y="185" font-family="arial" fill="rgb(0,0,0)" font-size="10" text-anchor="start">y_coord1 : (7:0)</text>
<text x="904" y="179" font-family="arial" fill="rgb(0,0,0)" font-size="10" text-anchor="start">color_BGR</text>
<text x="917" y="291" font-family="arial" fill="rgb(0,0,0)" font-size="10" text-anchor="start">x_coord</text>
<text x="559" y="224" font-family="arial" fill="rgb(0,0,0)" font-size="10" text-anchor="start">mux</text>
<text x="559" y="236" font-family="arial" fill="rgb(0,0,0)" font-size="10" text-anchor="start">U_2</text>
<text x="544" y="169" font-family="arial" fill="rgb(0,0,0)" font-size="10" text-anchor="start">Lo</text>
<text x="545" y="193" font-family="arial" fill="rgb(0,0,0)" font-size="10" text-anchor="start">Hi</text>
<text x="546" y="181" font-family="arial" fill="rgb(0,0,0)" font-size="10" text-anchor="start">mux</text>
<text x="582" y="281" font-family="arial" fill="rgb(0,0,0)" font-size="10" text-anchor="start">Lo</text>
<text x="583" y="294" font-family="arial" fill="rgb(0,0,0)" font-size="10" text-anchor="start">mux</text>
<text x="0" y="0" font-family="arial" fill="rgb(0,0,0)" transform="translate(541,135) rotate(270)" font-size="10" >sw0</text>
<text x="0" y="0" font-family="arial" fill="rgb(0,0,0)" transform="translate(579,235) rotate(270)" font-size="10" >sw0</text>
<text x="17" y="404" font-family="arial" fill="rgb(0,0,0)" font-size="10" text-anchor="end">btn</text>
<text x="432" y="585" font-family="Arial" fill="rgb(0,0,128)" font-size="10" text-anchor="start">Title:</text>
<text x="432" y="597" font-family="Arial" fill="rgb(0,0,128)" font-size="10" text-anchor="start">Path:</text>
<text x="432" y="610" font-family="Arial" fill="rgb(0,0,128)" font-size="10" text-anchor="start">Edited:</text>
<text x="232" y="510" font-family="arial" fill="rgb(0,0,0)" font-weight="800" font-size="10" text-anchor="start">alien_game_lib</text>
<text x="232" y="522" font-family="arial" fill="rgb(0,0,0)" font-weight="800" font-size="10" text-anchor="start">user_input</text>
<text x="232" y="535" font-family="arial" fill="rgb(0,0,0)" font-weight="800" font-size="10" text-anchor="start">U_1</text>
<text x="317" y="404" font-family="arial" fill="rgb(0,0,0)" font-size="10" text-anchor="end">color_BGR : (23:0)</text>
<text x="317" y="416" font-family="arial" fill="rgb(0,0,0)" font-size="10" text-anchor="end">x_coord : (7:0)</text>
<text x="317" y="429" font-family="arial" fill="rgb(0,0,0)" font-size="10" text-anchor="end">y_coord : (7:0)</text>
<text x="154" y="404" font-family="arial" fill="rgb(0,0,0)" font-size="10" text-anchor="start">btn : (3:0)</text>
<text x="929" y="416" font-family="arial" fill="rgb(0,0,0)" font-size="10" text-anchor="start">y_coord</text>
<text x="694" y="560" font-family="Arial" fill="rgb(0,0,128)" font-size="10" text-anchor="start">Project:</text>
<text x="694" y="575" font-family="Arial" fill="rgb(0,0,128)" font-size="10" text-anchor="start">&#0060;enter comments here&#0062;</text>
<text x="744" y="560" font-family="Arial" fill="rgb(0,0,128)" font-size="10" text-anchor="start">alien_game</text>
<text x="561" y="566" font-family="Arial" fill="rgb(127,0,0)" font-size="10" text-anchor="middle">&#0060;company name&#0062;</text>
<text x="596" y="336" font-family="arial" fill="rgb(0,0,0)" font-size="10" text-anchor="start">mux</text>
<text x="596" y="349" font-family="arial" fill="rgb(0,0,0)" font-size="10" text-anchor="start">U_3</text>
<text x="646" y="461" font-family="arial" fill="rgb(0,0,0)" font-size="10" text-anchor="start">mux</text>
<text x="646" y="474" font-family="arial" fill="rgb(0,0,0)" font-size="10" text-anchor="start">U_4</text>
<text x="632" y="406" font-family="arial" fill="rgb(0,0,0)" font-size="10" text-anchor="start">Lo</text>
<text x="632" y="431" font-family="arial" fill="rgb(0,0,0)" font-size="10" text-anchor="start">Hi</text>
<text x="633" y="419" font-family="arial" fill="rgb(0,0,0)" font-size="10" text-anchor="start">mux</text>
<text x="551" y="422" font-family="arial" fill="rgb(0,0,0)" font-size="10" text-anchor="start">y_coord2</text>
<g id="btn_net" stroke="rgb(0,0,0)" stroke-width="3px"  >
<polyline id="r0"  fill="none"  stroke-dasharray="" points="133, 400,55, 400" /> 
</g>
<g id="color_BGR_net" stroke="rgb(0,0,0)" stroke-width="3px"  >
<polyline id="r0"  fill="none"  stroke-dasharray="" points="867, 175,579, 175" /> 
</g>
<g id="color_BGR1_net" stroke="rgb(0,0,0)" stroke-width="3px"  >
<polyline id="r0"  fill="none"  stroke-dasharray="" points="376, 162,529, 162" /> 
</g>
<g id="color_BGR2_net" stroke="rgb(0,0,0)" stroke-width="3px"  >
<polyline id="r0"  fill="none"  stroke-dasharray="" points="339, 400,492, 400,492, 187,529, 187" /> 
</g>
<g id="sw0_net" stroke="rgb(0,0,0)" stroke-width="1px"  >
<polyline id="r0"  fill="none"  stroke-dasharray="" points="104, 112,642, 112,642, 375" /> 
<polyline id="r0"  fill="none"  stroke-dasharray="" points="554, 112,554, 137" /> 
<polyline id="r0"  fill="none"  stroke-dasharray="" points="592, 112,592, 250" /> 
</g>
<g id="x_coord_net" stroke="rgb(0,0,0)" stroke-width="3px"  >
<polyline id="r0"  fill="none"  stroke-dasharray="" points="879, 287,617, 287" /> 
</g>
<g id="x_coord1_net" stroke="rgb(0,0,0)" stroke-width="3px"  >
<polyline id="r0"  fill="none"  stroke-dasharray="" points="376, 175,492, 175,492, 275,567, 275" /> 
</g>
<g id="x_coord2_net" stroke="rgb(0,0,0)" stroke-width="3px"  >
<polyline id="r0"  fill="none"  stroke-dasharray="" points="339, 412,504, 412,504, 300,567, 300" /> 
</g>
<g id="y_coord_net" stroke="rgb(0,0,0)" stroke-width="3px"  >
<polyline id="r0"  fill="none"  stroke-dasharray="" points="892, 412,667, 412" /> 
</g>
<g id="y_coord1_net" stroke="rgb(0,0,0)" stroke-width="3px"  >
<polyline id="r0"  fill="none"  stroke-dasharray="" points="376, 187,454, 187,454, 400,617, 400" /> 
</g>
<g id="y_coord2_net" stroke="rgb(0,0,0)" stroke-width="3px"  >
<polyline id="r0"  fill="none"  stroke-dasharray="" points="339, 425,617, 425" /> 
</g>
</g>
</svg>
<!-- Create a "titlebox" group so we can reposition it when the SVG moves -->
<g id="titlebox">
<g id="genTime" class="allText normalText">
  <text class="allText smallText" x="300" y="123">Generated on: 05/29/2020 at: 10:20 PM</text>
</g>

<rect stroke="none" fill="rgb(200,230,240)" opacity="0.4" y="112" x="0" width="914" height="15" />
<!-- Close the "titlebox" group -->
</g>

</g>
</svg>
