<?xml version="1.0" encoding="UTF-8"?>
<!DOCTYPE svg PUBLIC "-//W3C//DTD SVG 1.1//EN" "http://www.w3.org/Graphics/SVG/1.1/DTD/svg11.dtd">
<!-- Created HDS 2004.1a -->


<svg xmlns="http://www.w3.org/2000/svg" xmlns:xlink="http://www.w3.org/1999/xlink" version="1.1">
<script xlink:href="../../scripts/SVGPan.js" />
<g id="viewport" transform="translate(0,-100)">


<title>SVG Image</title>
<desc></desc>


<defs>
<!-- section for CSS stylesheet definitions -->
<style type="text/css"><![CDATA[
.allText {font-family:Sans-Serif;fill:darkcyan;}
.subTitleText {font-size:20;font-weight:bold;}
.normalText {font-size:15;}
.smallText {font-size:12;}
.boldText {font-weight:bold;}
.rightText {text-anchor:end;}
.centerText {text-anchor:middle;}
.dragRect {fill:darkcyan;stroke:none;opacity:0.4;}
]]></style>
<symbol id="upArrow" overflow="visible" style="stroke:darkcyan;fill:darkcyan;stroke-width:1;" pointer-events="none">
<polygon points="5,0 10,5 0,5 5,0" />
</symbol>
<symbol id="leftArrow" overflow="visible" style="stroke:darkcyan;fill:darkcyan;stroke-width:1;" pointer-events="none">
<polygon points="0,5 5,0 5,10 0,5" />
</symbol>
<symbol id="rightArrow" overflow="visible" style="stroke:darkcyan;fill:darkcyan;stroke-width:1;" pointer-events="none">
<polygon points="5,0 10,5 5,10 5,0" />
</symbol>
<symbol id="downArrow" overflow="visible" style="stroke:darkcyan;fill:darkcyan;stroke-width:1;" pointer-events="none">
<polygon points="0,0 5,5 10,0 0,0" />
</symbol>

</defs>
<svg id="mainMap" x="0" y="150" viewBox="0 0 1627 668" width="912" height="512">


<clipPath id="SVG_Clip">
<rect x="0" y="0" width="1627" height="668" />
</clipPath>
<g id="hds_models" style="clip-path:url(#SVG_Clip)">
<path stroke="rgb(0,255,255)" fill="rgb(0,255,255)" stroke-width="1px" stroke-dasharray="" transform="translate(1051,288) rotate(0.000000)"
d="M 0.00000 -25.00000 A 25 25 0 0 1 0.00000 25.00000 " /> 
<path stroke="rgb(102,102,102)" fill="none" stroke-width="1px" stroke-dasharray="" transform="translate(1051,288) rotate(0.000000)"
d="M 0.00000 -25.00000 A 25 25 0 0 1 0.00000 25.00000 " /> 
<polyline id="r0"  stroke="rgb(0,255,255)" fill="rgb(0,255,255)" stroke-width="1px" stroke-dasharray="" points="1051, 313,1026, 313,1026, 263,1051, 263,1051, 313" /> 
<polyline id="r0"  stroke="rgb(102,102,102)" fill="none" stroke-width="1px" stroke-dasharray="" points="1051, 313,1026, 313,1026, 263,1051, 263" /> 
<polyline id="r0"  stroke="rgb(0,0,0)" fill="none" stroke-width="1px" stroke-dasharray="" points="513, 151,513, 151" /> 
<polyline id="r0"  stroke="rgb(0,0,0)" fill="none" stroke-width="1px" stroke-dasharray="" points="513, 101,513, 101" /> 
<polyline id="r0"  stroke="rgb(0,0,0)" fill="none" stroke-width="1px" stroke-dasharray="" points="513, 226,513, 226" /> 
<polyline id="r0"  stroke="rgb(0,0,0)" fill="none" stroke-width="1px" stroke-dasharray="" points="513, 176,513, 176" /> 
<polyline id="r0"  stroke="rgb(0,0,0)" fill="none" stroke-width="1px" stroke-dasharray="" points="513, 263,513, 263" /> 
<polyline id="r0"  stroke="rgb(0,0,0)" fill="none" stroke-width="1px" stroke-dasharray="" points="501, 51,501, 51" /> 
<polyline id="r0"  stroke="rgb(0,0,0)" fill="none" stroke-width="1px" stroke-dasharray="" points="501, 1,501, 1" /> 
<polyline id="r0"  stroke="rgb(0,0,0)" fill="none" stroke-width="1px" stroke-dasharray="" points="576, 126,576, 126" /> 
<polyline id="r0"  stroke="rgb(0,0,0)" fill="none" stroke-width="1px" stroke-dasharray="" points="576, 201,576, 201" /> 
<polyline id="r0"  stroke="rgb(0,0,0)" fill="none" stroke-width="1px" stroke-dasharray="" points="576, 288,576, 288" /> 
<polyline id="r0"  stroke="rgb(0,0,0)" fill="none" stroke-width="1px" stroke-dasharray="" points="563, 26,563, 26" /> 
<polyline id="r0"  stroke="rgb(0,0,0)" fill="none" stroke-width="1px" stroke-dasharray="" points="1026, 263,1026, 201" /> 
<polyline id="r0"  stroke="rgb(0,0,0)" fill="none" stroke-width="1px" stroke-dasharray="" points="513, 313,513, 313" /> 
<polyline id="r0"  stroke="rgb(0,0,0)" fill="none" stroke-width="1px" stroke-dasharray="" points="513, 388,513, 388" /> 
<polyline id="r0"  stroke="rgb(0,0,0)" fill="none" stroke-width="1px" stroke-dasharray="" points="513, 338,513, 338" /> 
<polyline id="r0"  stroke="rgb(0,0,0)" fill="none" stroke-width="1px" stroke-dasharray="" points="526, 588,526, 588" /> 
<polyline id="r0"  stroke="rgb(0,0,0)" fill="none" stroke-width="1px" stroke-dasharray="" points="526, 538,526, 538" /> 
<polyline id="r0"  stroke="rgb(0,0,0)" fill="none" stroke-width="1px" stroke-dasharray="" points="513, 451,513, 451" /> 
<polyline id="r0"  stroke="rgb(0,0,0)" fill="none" stroke-width="1px" stroke-dasharray="" points="513, 401,513, 401" /> 
<polyline id="r0"  stroke="rgb(0,0,0)" fill="none" stroke-width="1px" stroke-dasharray="" points="526, 513,526, 513" /> 
<polyline id="r0"  stroke="rgb(0,0,0)" fill="none" stroke-width="1px" stroke-dasharray="" points="526, 463,526, 463" /> 
<polyline id="r0"  stroke="rgb(0,0,0)" fill="none" stroke-width="1px" stroke-dasharray="" points="576, 363,576, 363" /> 
<polyline id="r0"  stroke="rgb(0,0,0)" fill="none" stroke-width="1px" stroke-dasharray="" points="588, 563,588, 563" /> 
<polyline id="r0"  stroke="rgb(0,0,0)" fill="none" stroke-width="1px" stroke-dasharray="" points="576, 426,576, 426" /> 
<polyline id="r0"  stroke="rgb(0,0,0)" fill="none" stroke-width="1px" stroke-dasharray="" points="588, 488,588, 488" /> 
<polyline id="r0"  stroke="rgb(0,0,0)" fill="none" stroke-width="1px" stroke-dasharray="" points="1026, 313,1026, 376" /> 
<rect id="r0"  stroke="rgb(254,254,179)" fill="rgb(254,254,179)" stroke-width="1px" stroke-dasharray="" y="613px" x="588px" width="250px" height="50px" rx="0" ry="0" />
<rect id="r0"  stroke="rgb(0,0,0)" fill="none" stroke-width="1px" stroke-dasharray="" y="613px" x="588px" width="250px" height="50px" rx="0" ry="0" />
<rect id="r0"  stroke="rgb(254,254,179)" fill="rgb(254,254,179)" stroke-width="1px" stroke-dasharray="" y="601px" x="638px" width="200px" height="12px" rx="0" ry="0" />
<rect id="r0"  stroke="rgb(0,0,0)" fill="none" stroke-width="1px" stroke-dasharray="" y="601px" x="638px" width="200px" height="12px" rx="0" ry="0" />
<polyline id="r0"  stroke="rgb(0,0,128)" fill="rgb(0,0,128)" stroke-width="1px" stroke-dasharray="" points="51, 121,64, 121,70, 126,64, 131,51, 131,51, 121" /> 
<polyline id="r0"  stroke="rgb(0,0,0)" fill="none" stroke-width="1px" stroke-dasharray="" points="51, 121,64, 121,70, 126,64, 131,51, 131,51, 121" /> 
<polyline id="r0"  stroke="rgb(0,0,128)" fill="rgb(0,0,128)" stroke-width="1px" stroke-dasharray="" points="51, 121,64, 121,70, 126,64, 131,51, 131,51, 121" /> 
<polyline id="r0"  stroke="rgb(0,0,0)" fill="none" stroke-width="1px" stroke-dasharray="" points="51, 121,64, 121,70, 126,64, 131,51, 131,51, 121" /> 
<polyline id="r0"  stroke="rgb(0,0,0)" fill="none" stroke-width="1px" stroke-dasharray="" points="70, 126,76, 126" /> 
<polyline id="r0"  stroke="rgb(0,0,128)" fill="rgb(0,0,128)" stroke-width="1px" stroke-dasharray="" points="51, 171,64, 171,70, 176,64, 181,51, 181,51, 171" /> 
<polyline id="r0"  stroke="rgb(0,0,0)" fill="none" stroke-width="1px" stroke-dasharray="" points="51, 171,64, 171,70, 176,64, 181,51, 181,51, 171" /> 
<polyline id="r0"  stroke="rgb(0,0,128)" fill="rgb(0,0,128)" stroke-width="1px" stroke-dasharray="" points="51, 171,64, 171,70, 176,64, 181,51, 181,51, 171" /> 
<polyline id="r0"  stroke="rgb(0,0,0)" fill="none" stroke-width="1px" stroke-dasharray="" points="51, 171,64, 171,70, 176,64, 181,51, 181,51, 171" /> 
<polyline id="r0"  stroke="rgb(0,0,0)" fill="none" stroke-width="1px" stroke-dasharray="" points="70, 176,76, 176" /> 
<polyline id="r0"  stroke="rgb(0,0,128)" fill="rgb(0,0,128)" stroke-width="1px" stroke-dasharray="" points="1557, 284,1570, 284,1576, 288,1570, 293,1557, 293,1557, 284" /> 
<polyline id="r0"  stroke="rgb(0,0,0)" fill="none" stroke-width="1px" stroke-dasharray="" points="1557, 284,1570, 284,1576, 288,1570, 293,1557, 293,1557, 284" /> 
<polyline id="r0"  stroke="rgb(0,0,128)" fill="rgb(0,0,128)" stroke-width="1px" stroke-dasharray="" points="1557, 284,1570, 284,1576, 288,1570, 293,1557, 293,1557, 284" /> 
<polyline id="r0"  stroke="rgb(0,0,0)" fill="none" stroke-width="1px" stroke-dasharray="" points="1557, 284,1570, 284,1576, 288,1570, 293,1557, 293,1557, 284" /> 
<polyline id="r0"  stroke="rgb(0,0,0)" fill="none" stroke-width="1px" stroke-dasharray="" points="1551, 288,1557, 288" /> 
<rect id="r0"  stroke="rgb(254,254,179)" fill="rgb(254,254,179)" stroke-width="1px" stroke-dasharray="" y="651px" x="376px" width="212px" height="12px" rx="0" ry="0" />
<rect id="r0"  stroke="rgb(0,0,0)" fill="none" stroke-width="1px" stroke-dasharray="" y="651px" x="376px" width="212px" height="12px" rx="0" ry="0" />
<rect id="r0"  stroke="rgb(254,254,179)" fill="rgb(254,254,179)" stroke-width="1px" stroke-dasharray="" y="601px" x="588px" width="50px" height="12px" rx="0" ry="0" />
<rect id="r0"  stroke="rgb(0,0,0)" fill="none" stroke-width="1px" stroke-dasharray="" y="601px" x="588px" width="50px" height="12px" rx="0" ry="0" />
<rect id="r0"  stroke="rgb(254,254,179)" fill="rgb(254,254,179)" stroke-width="1px" stroke-dasharray="" y="626px" x="376px" width="212px" height="12px" rx="0" ry="0" />
<rect id="r0"  stroke="rgb(0,0,0)" fill="none" stroke-width="1px" stroke-dasharray="" y="626px" x="376px" width="212px" height="12px" rx="0" ry="0" />
<rect id="r0"  stroke="rgb(254,254,179)" fill="rgb(254,254,179)" stroke-width="1px" stroke-dasharray="" y="626px" x="326px" width="50px" height="12px" rx="0" ry="0" />
<rect id="r0"  stroke="rgb(0,0,0)" fill="none" stroke-width="1px" stroke-dasharray="" y="626px" x="326px" width="50px" height="12px" rx="0" ry="0" />
<rect id="r0"  stroke="rgb(254,254,179)" fill="rgb(254,254,179)" stroke-width="1px" stroke-dasharray="" y="601px" x="326px" width="262px" height="25px" rx="0" ry="0" />
<rect id="r0"  stroke="rgb(0,0,0)" fill="none" stroke-width="1px" stroke-dasharray="" y="601px" x="326px" width="262px" height="25px" rx="0" ry="0" />
<rect id="r0"  stroke="rgb(254,254,179)" fill="rgb(254,254,179)" stroke-width="1px" stroke-dasharray="" y="638px" x="326px" width="50px" height="13px" rx="0" ry="0" />
<rect id="r0"  stroke="rgb(0,0,0)" fill="none" stroke-width="1px" stroke-dasharray="" y="638px" x="326px" width="50px" height="13px" rx="0" ry="0" />
<rect id="r0"  stroke="rgb(254,254,179)" fill="rgb(254,254,179)" stroke-width="1px" stroke-dasharray="" y="651px" x="326px" width="50px" height="12px" rx="0" ry="0" />
<rect id="r0"  stroke="rgb(0,0,0)" fill="none" stroke-width="1px" stroke-dasharray="" y="651px" x="326px" width="50px" height="12px" rx="0" ry="0" />
<rect id="r0"  stroke="rgb(254,254,179)" fill="rgb(254,254,179)" stroke-width="1px" stroke-dasharray="" y="638px" x="376px" width="212px" height="13px" rx="0" ry="0" />
<rect id="r0"  stroke="rgb(0,0,0)" fill="none" stroke-width="1px" stroke-dasharray="" y="638px" x="376px" width="212px" height="13px" rx="0" ry="0" />
<polyline id="r0"  stroke="rgb(0,0,0)" fill="none" stroke-width="1px" stroke-dasharray="" points="70, 126,76, 126" /> 
<polyline id="r0"  stroke="rgb(0,0,0)" fill="none" stroke-width="1px" stroke-dasharray="" points="70, 176,76, 176" /> 
<polyline id="r0"  stroke="rgb(0,0,0)" fill="none" stroke-width="1px" stroke-dasharray="" points="1551, 288,1557, 288" /> 
<polyline id="r0"  stroke="rgb(0,0,0)" fill="none" stroke-width="1px" stroke-dasharray="" points="488, 14,509, 14" /> 
<polyline id="r0"  stroke="rgb(0,0,0)" fill="none" stroke-width="1px" stroke-dasharray="" points="588, 288,587, 288" /> 
<polyline id="r0"  stroke="rgb(0,0,0)" fill="none" stroke-width="1px" stroke-dasharray="" points="501, 301,521, 301" /> 
<circle id="r0"  stroke="rgb(255,255,255)" fill="rgb(255,255,255)" stroke-width="1px" stroke-dasharray="" cx="201" cy="126" r="5"/> 
<circle stroke="rgb(255,0,0)" fill="none" stroke-width="1px" stroke-dasharray="" cx="201" cy="126" r="5"/> 
<line id="r0" stroke="rgb(0,0,0)" x1="176" y1="126" x2="188" y2="113" stroke-width="1px" />
<line id="r0" stroke="rgb(0,0,0)" x1="151" y1="126" x2="163" y2="113" stroke-width="1px" />
<line id="r0" stroke="rgb(0,0,0)" x1="126" y1="126" x2="138" y2="138" stroke-width="1px" />
<line id="r0" stroke="rgb(0,0,0)" x1="113" y1="126" x2="126" y2="138" stroke-width="1px" />
<line id="r0" stroke="rgb(0,0,0)" x1="76" y1="126" x2="88" y2="138" stroke-width="1px" />
<line id="r0" stroke="rgb(0,0,0)" x1="151" y1="126" x2="163" y2="138" stroke-width="1px" />
<line id="r0" stroke="rgb(0,0,0)" x1="101" y1="126" x2="113" y2="138" stroke-width="1px" />
<line id="r0" stroke="rgb(0,0,0)" x1="138" y1="126" x2="151" y2="138" stroke-width="1px" />
<circle id="r0"  stroke="rgb(255,255,255)" fill="rgb(255,255,255)" stroke-width="1px" stroke-dasharray="" cx="201" cy="176" r="5"/> 
<circle stroke="rgb(255,0,0)" fill="none" stroke-width="1px" stroke-dasharray="" cx="201" cy="176" r="5"/> 
<line id="r0" stroke="rgb(0,0,0)" x1="176" y1="176" x2="188" y2="163" stroke-width="1px" />
<line id="r0" stroke="rgb(0,0,0)" x1="163" y1="176" x2="176" y2="163" stroke-width="1px" />
<line id="r0" stroke="rgb(0,0,0)" x1="113" y1="176" x2="126" y2="188" stroke-width="1px" />
<line id="r0" stroke="rgb(0,0,0)" x1="101" y1="176" x2="113" y2="188" stroke-width="1px" />
<line id="r0" stroke="rgb(0,0,0)" x1="76" y1="176" x2="88" y2="188" stroke-width="1px" />
<line id="r0" stroke="rgb(0,0,0)" x1="151" y1="176" x2="163" y2="188" stroke-width="1px" />
<line id="r0" stroke="rgb(0,0,0)" x1="88" y1="176" x2="101" y2="188" stroke-width="1px" />
<line id="r0" stroke="rgb(0,0,0)" x1="151" y1="188" x2="138" y2="176" stroke-width="1px" />
<polyline id="r0"  stroke="rgb(0,0,0)" fill="none" stroke-width="1px" stroke-dasharray="" points="588, 126,587, 126" /> 
<circle id="r0"  stroke="rgb(255,255,255)" fill="rgb(255,255,255)" stroke-width="1px" stroke-dasharray="" cx="581" cy="126" r="5"/> 
<circle stroke="rgb(0,0,0)" fill="none" stroke-width="1px" stroke-dasharray="" cx="581" cy="126" r="5"/> 
<polyline id="r0"  stroke="rgb(0,0,0)" fill="none" stroke-width="1px" stroke-dasharray="" points="501, 113,521, 113" /> 
<polyline id="r0"  stroke="rgb(0,0,0)" fill="none" stroke-width="1px" stroke-dasharray="" points="501, 138,521, 138" /> 
<polyline id="r0"  stroke="rgb(0,0,0)" fill="none" stroke-width="1px" stroke-dasharray="" points="588, 201,587, 201" /> 
<circle id="r0"  stroke="rgb(255,255,255)" fill="rgb(255,255,255)" stroke-width="1px" stroke-dasharray="" cx="581" cy="201" r="5"/> 
<circle stroke="rgb(0,0,0)" fill="none" stroke-width="1px" stroke-dasharray="" cx="581" cy="201" r="5"/> 
<polyline id="r0"  stroke="rgb(0,0,0)" fill="none" stroke-width="1px" stroke-dasharray="" points="501, 188,521, 188" /> 
<polyline id="r0"  stroke="rgb(0,0,0)" fill="none" stroke-width="1px" stroke-dasharray="" points="501, 213,521, 213" /> 
<circle id="r0"  stroke="rgb(255,255,255)" fill="rgb(255,255,255)" stroke-width="1px" stroke-dasharray="" cx="581" cy="288" r="5"/> 
<circle stroke="rgb(0,0,0)" fill="none" stroke-width="1px" stroke-dasharray="" cx="581" cy="288" r="5"/> 
<polyline id="r0"  stroke="rgb(0,0,0)" fill="none" stroke-width="1px" stroke-dasharray="" points="501, 276,521, 276" /> 
<polyline id="r0"  stroke="rgb(0,0,0)" fill="none" stroke-width="1px" stroke-dasharray="" points="576, 26,575, 26" /> 
<circle id="r0"  stroke="rgb(255,255,255)" fill="rgb(255,255,255)" stroke-width="1px" stroke-dasharray="" cx="569" cy="26" r="6"/> 
<circle stroke="rgb(0,0,0)" fill="none" stroke-width="1px" stroke-dasharray="" cx="569" cy="26" r="6"/> 
<polyline id="r0"  stroke="rgb(0,0,0)" fill="none" stroke-width="1px" stroke-dasharray="" points="488, 38,508, 38" /> 
<polyline id="r0"  stroke="rgb(0,0,0)" fill="none" stroke-width="1px" stroke-dasharray="" points="588, 363,587, 363" /> 
<circle id="r0"  stroke="rgb(255,255,255)" fill="rgb(255,255,255)" stroke-width="1px" stroke-dasharray="" cx="581" cy="363" r="5"/> 
<circle stroke="rgb(0,0,0)" fill="none" stroke-width="1px" stroke-dasharray="" cx="581" cy="363" r="5"/> 
<polyline id="r0"  stroke="rgb(0,0,0)" fill="none" stroke-width="1px" stroke-dasharray="" points="501, 351,521, 351" /> 
<polyline id="r0"  stroke="rgb(0,0,0)" fill="none" stroke-width="1px" stroke-dasharray="" points="501, 376,521, 376" /> 
<polyline id="r0"  stroke="rgb(0,0,0)" fill="none" stroke-width="1px" stroke-dasharray="" points="601, 563,600, 563" /> 
<circle id="r0"  stroke="rgb(255,255,255)" fill="rgb(255,255,255)" stroke-width="1px" stroke-dasharray="" cx="594" cy="563" r="6"/> 
<circle stroke="rgb(0,0,0)" fill="none" stroke-width="1px" stroke-dasharray="" cx="594" cy="563" r="6"/> 
<polyline id="r0"  stroke="rgb(0,0,0)" fill="none" stroke-width="1px" stroke-dasharray="" points="513, 551,534, 551" /> 
<polyline id="r0"  stroke="rgb(0,0,0)" fill="none" stroke-width="1px" stroke-dasharray="" points="513, 576,533, 576" /> 
<polyline id="r0"  stroke="rgb(0,0,0)" fill="none" stroke-width="1px" stroke-dasharray="" points="588, 426,587, 426" /> 
<circle id="r0"  stroke="rgb(255,255,255)" fill="rgb(255,255,255)" stroke-width="1px" stroke-dasharray="" cx="581" cy="426" r="5"/> 
<circle stroke="rgb(0,0,0)" fill="none" stroke-width="1px" stroke-dasharray="" cx="581" cy="426" r="5"/> 
<polyline id="r0"  stroke="rgb(0,0,0)" fill="none" stroke-width="1px" stroke-dasharray="" points="501, 413,521, 413" /> 
<polyline id="r0"  stroke="rgb(0,0,0)" fill="none" stroke-width="1px" stroke-dasharray="" points="501, 438,521, 438" /> 
<polyline id="r0"  stroke="rgb(0,0,0)" fill="none" stroke-width="1px" stroke-dasharray="" points="601, 488,600, 488" /> 
<circle id="r0"  stroke="rgb(255,255,255)" fill="rgb(255,255,255)" stroke-width="1px" stroke-dasharray="" cx="594" cy="488" r="6"/> 
<circle stroke="rgb(0,0,0)" fill="none" stroke-width="1px" stroke-dasharray="" cx="594" cy="488" r="6"/> 
<polyline id="r0"  stroke="rgb(0,0,0)" fill="none" stroke-width="1px" stroke-dasharray="" points="513, 476,534, 476" /> 
<polyline id="r0"  stroke="rgb(0,0,0)" fill="none" stroke-width="1px" stroke-dasharray="" points="513, 501,533, 501" /> 
<polyline id="r0"  stroke="rgb(0,0,0)" fill="none" stroke-width="1px" stroke-dasharray="" points="1088, 288,1076, 288" /> 
<polyline id="r0"  stroke="rgb(0,0,0)" fill="none" stroke-width="1px" stroke-dasharray="" points="1013, 201,1026, 201" /> 
<polyline id="r0"  stroke="rgb(0,0,0)" fill="none" stroke-width="1px" stroke-dasharray="" points="1013, 226,1026, 226" /> 
<polyline id="r0"  stroke="rgb(0,0,0)" fill="none" stroke-width="1px" stroke-dasharray="" points="1013, 251,1026, 251" /> 
<polyline id="r0"  stroke="rgb(0,0,0)" fill="none" stroke-width="1px" stroke-dasharray="" points="1013, 276,1026, 276" /> 
<polyline id="r0"  stroke="rgb(0,0,0)" fill="none" stroke-width="1px" stroke-dasharray="" points="1013, 301,1026, 301" /> 
<polyline id="r0"  stroke="rgb(0,0,0)" fill="none" stroke-width="1px" stroke-dasharray="" points="1013, 326,1026, 326" /> 
<polyline id="r0"  stroke="rgb(0,0,0)" fill="none" stroke-width="1px" stroke-dasharray="" points="1013, 351,1026, 351" /> 
<polyline id="r0"  stroke="rgb(0,0,0)" fill="none" stroke-width="1px" stroke-dasharray="" points="1013, 376,1026, 376" /> 
<path stroke="rgb(102,102,102)" fill="none" stroke-width="1px" stroke-dasharray="" transform="translate(486,126) rotate(0.000000)"
d="M 27.29853 -24.97579 A 37 37 0 0 1 27.29853 24.97579 " /> 
<polyline id="r0"  stroke="rgb(0,255,255)" fill="rgb(0,255,255)" stroke-width="1px" stroke-dasharray="" points="520, 152,521, 151,522, 150,522, 149,523, 148,524, 147,524, 146,525, 145,526, 144,526, 143,527, 142,527, 141,527, 140,528, 139,528, 138,528, 137,529, 136,529, 135,529, 134,529, 133,530, 132,530, 131,530, 130,530, 129,530, 128,530, 127,530, 126,530, 125,530, 124,530, 123,530, 122,530, 121,530, 120,529, 119,529, 118,529, 117,529, 116,528, 115,528, 114,528, 113,527, 112,527, 111,527, 110,526, 109,526, 108,525, 107,524, 106,524, 105,523, 104,522, 103,522, 102,522, 101,522, 101,551, 110,576, 126,552, 139,522, 151" /> 
<path stroke="rgb(102,102,102)" fill="none" stroke-width="1px" stroke-dasharray="" transform="translate(491,126) rotate(0.000000)"
d="M 30.16944 -24.71446 A 39 39 0 0 1 30.16944 24.71446 " /> 
<path stroke="rgb(0,255,255)" fill="rgb(0,255,255)" stroke-width="1px" stroke-dasharray="" transform="translate(524,169) rotate(0.000000)"
d="M -2.00762 -67.97036 A 68 68 0 0 1 52.70391 -42.96857 " /> 
<path stroke="rgb(102,102,102)" fill="none" stroke-width="1px" stroke-dasharray="" transform="translate(523,169) rotate(0.000000)"
d="M -1.97809 -66.97079 A 67 67 0 0 1 51.92885 -42.33668 " /> 
<path stroke="rgb(0,255,255)" fill="rgb(0,255,255)" stroke-width="1px" stroke-dasharray="" transform="translate(523,82) rotate(0.000000)"
d="M 53.77757 44.81042 A 70 70 0 0 1 -1.03281 69.99238 " /> 
<path stroke="rgb(102,102,102)" fill="none" stroke-width="1px" stroke-dasharray="" transform="translate(522,81) rotate(0.000000)"
d="M 53.00932 44.17027 A 69 69 0 0 1 -1.01806 68.99249 " /> 
<path stroke="rgb(102,102,102)" fill="none" stroke-width="1px" stroke-dasharray="" transform="translate(486,201) rotate(0.000000)"
d="M 27.29853 -24.97579 A 37 37 0 0 1 27.29853 24.97579 " /> 
<polyline id="r0"  stroke="rgb(0,255,255)" fill="rgb(0,255,255)" stroke-width="1px" stroke-dasharray="" points="520, 227,521, 226,522, 225,522, 224,523, 223,524, 222,524, 221,525, 220,526, 219,526, 218,527, 217,527, 216,527, 215,528, 214,528, 213,528, 212,529, 211,529, 210,529, 209,529, 208,530, 207,530, 206,530, 205,530, 204,530, 203,530, 202,530, 201,530, 200,530, 199,530, 198,530, 197,530, 196,530, 195,529, 194,529, 193,529, 192,529, 191,528, 190,528, 189,528, 188,527, 187,527, 186,527, 185,526, 184,526, 183,525, 182,524, 181,524, 180,523, 179,522, 178,522, 177,522, 176,522, 176,551, 185,576, 201,552, 214,522, 226" /> 
<path stroke="rgb(102,102,102)" fill="none" stroke-width="1px" stroke-dasharray="" transform="translate(491,201) rotate(0.000000)"
d="M 30.16944 -24.71446 A 39 39 0 0 1 30.16944 24.71446 " /> 
<path stroke="rgb(0,255,255)" fill="rgb(0,255,255)" stroke-width="1px" stroke-dasharray="" transform="translate(524,244) rotate(0.000000)"
d="M -2.00762 -67.97036 A 68 68 0 0 1 52.70391 -42.96857 " /> 
<path stroke="rgb(102,102,102)" fill="none" stroke-width="1px" stroke-dasharray="" transform="translate(523,244) rotate(0.000000)"
d="M -1.97809 -66.97079 A 67 67 0 0 1 51.92885 -42.33668 " /> 
<path stroke="rgb(0,255,255)" fill="rgb(0,255,255)" stroke-width="1px" stroke-dasharray="" transform="translate(523,157) rotate(0.000000)"
d="M 53.77757 44.81042 A 70 70 0 0 1 -1.03281 69.99238 " /> 
<path stroke="rgb(102,102,102)" fill="none" stroke-width="1px" stroke-dasharray="" transform="translate(522,156) rotate(0.000000)"
d="M 53.00932 44.17027 A 69 69 0 0 1 -1.01806 68.99249 " /> 
<path stroke="rgb(102,102,102)" fill="none" stroke-width="1px" stroke-dasharray="" transform="translate(486,288) rotate(0.000000)"
d="M 27.29853 -24.97579 A 37 37 0 0 1 27.29853 24.97579 " /> 
<polyline id="r0"  stroke="rgb(0,255,255)" fill="rgb(0,255,255)" stroke-width="1px" stroke-dasharray="" points="520, 314,521, 313,522, 312,522, 311,523, 310,524, 309,524, 308,525, 307,526, 306,526, 305,527, 304,527, 303,527, 302,528, 301,528, 300,528, 299,529, 298,529, 297,529, 296,529, 295,530, 294,530, 293,530, 292,530, 291,530, 290,530, 289,530, 288,530, 287,530, 286,530, 285,530, 284,530, 283,530, 282,529, 281,529, 280,529, 279,529, 278,528, 277,528, 276,528, 275,527, 274,527, 273,527, 272,526, 271,526, 270,525, 269,524, 268,524, 267,523, 266,522, 265,522, 264,522, 263,522, 263,551, 272,576, 288,552, 302,522, 313" /> 
<path stroke="rgb(102,102,102)" fill="none" stroke-width="1px" stroke-dasharray="" transform="translate(491,288) rotate(0.000000)"
d="M 30.16944 -24.71446 A 39 39 0 0 1 30.16944 24.71446 " /> 
<path stroke="rgb(0,255,255)" fill="rgb(0,255,255)" stroke-width="1px" stroke-dasharray="" transform="translate(524,332) rotate(0.000000)"
d="M -2.00762 -67.97036 A 68 68 0 0 1 52.70391 -42.96857 " /> 
<path stroke="rgb(102,102,102)" fill="none" stroke-width="1px" stroke-dasharray="" transform="translate(523,331) rotate(0.000000)"
d="M -1.97809 -66.97079 A 67 67 0 0 1 51.92885 -42.33668 " /> 
<path stroke="rgb(0,255,255)" fill="rgb(0,255,255)" stroke-width="1px" stroke-dasharray="" transform="translate(523,244) rotate(0.000000)"
d="M 53.77757 44.81042 A 70 70 0 0 1 -1.03281 69.99238 " /> 
<path stroke="rgb(102,102,102)" fill="none" stroke-width="1px" stroke-dasharray="" transform="translate(522,244) rotate(0.000000)"
d="M 53.00932 44.17027 A 69 69 0 0 1 -1.01806 68.99249 " /> 
<path stroke="rgb(102,102,102)" fill="none" stroke-width="1px" stroke-dasharray="" transform="translate(486,363) rotate(0.000000)"
d="M 27.29853 -24.97579 A 37 37 0 0 1 27.29853 24.97579 " /> 
<polyline id="r0"  stroke="rgb(0,255,255)" fill="rgb(0,255,255)" stroke-width="1px" stroke-dasharray="" points="520, 389,521, 388,522, 387,522, 386,523, 385,524, 384,524, 383,525, 382,526, 381,526, 380,527, 379,527, 378,527, 377,528, 376,528, 375,528, 374,529, 373,529, 372,529, 371,529, 370,530, 369,530, 368,530, 367,530, 366,530, 365,530, 364,530, 363,530, 362,530, 361,530, 360,530, 359,530, 358,530, 357,529, 356,529, 355,529, 354,529, 353,528, 352,528, 351,528, 350,527, 349,527, 348,527, 347,526, 346,526, 345,525, 344,524, 343,524, 342,523, 341,522, 340,522, 339,522, 338,522, 338,551, 347,576, 363,552, 377,522, 388" /> 
<path stroke="rgb(102,102,102)" fill="none" stroke-width="1px" stroke-dasharray="" transform="translate(491,363) rotate(0.000000)"
d="M 30.16944 -24.71446 A 39 39 0 0 1 30.16944 24.71446 " /> 
<path stroke="rgb(0,255,255)" fill="rgb(0,255,255)" stroke-width="1px" stroke-dasharray="" transform="translate(524,407) rotate(0.000000)"
d="M -2.00762 -67.97036 A 68 68 0 0 1 52.70391 -42.96857 " /> 
<path stroke="rgb(102,102,102)" fill="none" stroke-width="1px" stroke-dasharray="" transform="translate(523,406) rotate(0.000000)"
d="M -1.97809 -66.97079 A 67 67 0 0 1 51.92885 -42.33668 " /> 
<path stroke="rgb(0,255,255)" fill="rgb(0,255,255)" stroke-width="1px" stroke-dasharray="" transform="translate(523,319) rotate(0.000000)"
d="M 53.77757 44.81042 A 70 70 0 0 1 -1.03281 69.99238 " /> 
<path stroke="rgb(102,102,102)" fill="none" stroke-width="1px" stroke-dasharray="" transform="translate(522,319) rotate(0.000000)"
d="M 53.00932 44.17027 A 69 69 0 0 1 -1.01806 68.99249 " /> 
<path stroke="rgb(102,102,102)" fill="none" stroke-width="1px" stroke-dasharray="" transform="translate(499,563) rotate(0.000000)"
d="M 27.29853 -24.97579 A 37 37 0 0 1 27.29853 24.97579 " /> 
<polyline id="r0"  stroke="rgb(0,255,255)" fill="rgb(0,255,255)" stroke-width="1px" stroke-dasharray="" points="532, 589,533, 588,534, 587,534, 586,535, 585,536, 584,536, 583,537, 582,538, 581,538, 580,539, 579,539, 578,539, 577,540, 576,540, 575,540, 574,541, 573,541, 572,541, 571,541, 570,542, 569,542, 568,542, 567,542, 566,542, 565,542, 564,542, 563,542, 562,542, 561,542, 560,542, 559,542, 558,542, 557,541, 556,541, 555,541, 554,541, 553,540, 552,540, 551,540, 550,539, 549,539, 548,539, 547,538, 546,538, 545,537, 544,536, 543,536, 542,535, 541,534, 540,534, 539,534, 538,534, 538,564, 547,588, 563,565, 577,534, 588" /> 
<path stroke="rgb(102,102,102)" fill="none" stroke-width="1px" stroke-dasharray="" transform="translate(503,563) rotate(0.000000)"
d="M 30.16944 -24.71446 A 39 39 0 0 1 30.16944 24.71446 " /> 
<path stroke="rgb(0,255,255)" fill="rgb(0,255,255)" stroke-width="1px" stroke-dasharray="" transform="translate(536,607) rotate(0.000000)"
d="M -2.00762 -67.97036 A 68 68 0 0 1 52.70391 -42.96857 " /> 
<path stroke="rgb(102,102,102)" fill="none" stroke-width="1px" stroke-dasharray="" transform="translate(536,606) rotate(0.000000)"
d="M -2.00762 -67.97036 A 68 68 0 0 1 52.70391 -42.96857 " /> 
<path stroke="rgb(0,255,255)" fill="rgb(0,255,255)" stroke-width="1px" stroke-dasharray="" transform="translate(536,519) rotate(0.000000)"
d="M 53.77757 44.81042 A 70 70 0 0 1 -1.03281 69.99238 " /> 
<path stroke="rgb(102,102,102)" fill="none" stroke-width="1px" stroke-dasharray="" transform="translate(535,519) rotate(0.000000)"
d="M 53.00932 44.17027 A 69 69 0 0 1 -1.01806 68.99249 " /> 
<path stroke="rgb(102,102,102)" fill="none" stroke-width="1px" stroke-dasharray="" transform="translate(486,426) rotate(0.000000)"
d="M 27.29853 -24.97579 A 37 37 0 0 1 27.29853 24.97579 " /> 
<polyline id="r0"  stroke="rgb(0,255,255)" fill="rgb(0,255,255)" stroke-width="1px" stroke-dasharray="" points="520, 452,521, 451,522, 450,522, 449,523, 448,524, 447,524, 446,525, 445,526, 444,526, 443,527, 442,527, 441,527, 440,528, 439,528, 438,528, 437,529, 436,529, 435,529, 434,529, 433,530, 432,530, 431,530, 430,530, 429,530, 428,530, 427,530, 426,530, 425,530, 424,530, 423,530, 422,530, 421,530, 420,529, 419,529, 418,529, 417,529, 416,528, 415,528, 414,528, 413,527, 412,527, 411,527, 410,526, 409,526, 408,525, 407,524, 406,524, 405,523, 404,522, 403,522, 402,522, 401,522, 401,551, 410,576, 426,552, 439,522, 451" /> 
<path stroke="rgb(102,102,102)" fill="none" stroke-width="1px" stroke-dasharray="" transform="translate(491,426) rotate(0.000000)"
d="M 30.16944 -24.71446 A 39 39 0 0 1 30.16944 24.71446 " /> 
<path stroke="rgb(0,255,255)" fill="rgb(0,255,255)" stroke-width="1px" stroke-dasharray="" transform="translate(524,469) rotate(0.000000)"
d="M -2.00762 -67.97036 A 68 68 0 0 1 52.70391 -42.96857 " /> 
<path stroke="rgb(102,102,102)" fill="none" stroke-width="1px" stroke-dasharray="" transform="translate(523,469) rotate(0.000000)"
d="M -1.97809 -66.97079 A 67 67 0 0 1 51.92885 -42.33668 " /> 
<path stroke="rgb(0,255,255)" fill="rgb(0,255,255)" stroke-width="1px" stroke-dasharray="" transform="translate(523,382) rotate(0.000000)"
d="M 53.77757 44.81042 A 70 70 0 0 1 -1.03281 69.99238 " /> 
<path stroke="rgb(102,102,102)" fill="none" stroke-width="1px" stroke-dasharray="" transform="translate(522,381) rotate(0.000000)"
d="M 53.00932 44.17027 A 69 69 0 0 1 -1.01806 68.99249 " /> 
<path stroke="rgb(102,102,102)" fill="none" stroke-width="1px" stroke-dasharray="" transform="translate(499,488) rotate(0.000000)"
d="M 27.29853 -24.97579 A 37 37 0 0 1 27.29853 24.97579 " /> 
<polyline id="r0"  stroke="rgb(0,255,255)" fill="rgb(0,255,255)" stroke-width="1px" stroke-dasharray="" points="532, 514,533, 513,534, 512,534, 511,535, 510,536, 509,536, 508,537, 507,538, 506,538, 505,539, 504,539, 503,539, 502,540, 501,540, 500,540, 499,541, 498,541, 497,541, 496,541, 495,542, 494,542, 493,542, 492,542, 491,542, 490,542, 489,542, 488,542, 487,542, 486,542, 485,542, 484,542, 483,542, 482,541, 481,541, 480,541, 479,541, 478,540, 477,540, 476,540, 475,539, 474,539, 473,539, 472,538, 471,538, 470,537, 469,536, 468,536, 467,535, 466,534, 465,534, 464,534, 463,534, 463,564, 472,588, 488,565, 502,534, 513" /> 
<path stroke="rgb(102,102,102)" fill="none" stroke-width="1px" stroke-dasharray="" transform="translate(503,488) rotate(0.000000)"
d="M 30.16944 -24.71446 A 39 39 0 0 1 30.16944 24.71446 " /> 
<path stroke="rgb(0,255,255)" fill="rgb(0,255,255)" stroke-width="1px" stroke-dasharray="" transform="translate(536,532) rotate(0.000000)"
d="M -2.00762 -67.97036 A 68 68 0 0 1 52.70391 -42.96857 " /> 
<path stroke="rgb(102,102,102)" fill="none" stroke-width="1px" stroke-dasharray="" transform="translate(536,531) rotate(0.000000)"
d="M -2.00762 -67.97036 A 68 68 0 0 1 52.70391 -42.96857 " /> 
<path stroke="rgb(0,255,255)" fill="rgb(0,255,255)" stroke-width="1px" stroke-dasharray="" transform="translate(536,444) rotate(0.000000)"
d="M 53.77757 44.81042 A 70 70 0 0 1 -1.03281 69.99238 " /> 
<path stroke="rgb(102,102,102)" fill="none" stroke-width="1px" stroke-dasharray="" transform="translate(535,444) rotate(0.000000)"
d="M 53.00932 44.17027 A 69 69 0 0 1 -1.01806 68.99249 " /> 
<path stroke="rgb(102,102,102)" fill="none" stroke-width="1px" stroke-dasharray="" transform="translate(474,26) rotate(0.000000)"
d="M 27.29853 -24.97579 A 37 37 0 0 1 27.29853 24.97579 " /> 
<polyline id="r0"  stroke="rgb(0,255,255)" fill="rgb(0,255,255)" stroke-width="1px" stroke-dasharray="" points="507, 52,508, 51,509, 50,509, 49,510, 48,511, 47,511, 46,512, 45,513, 44,513, 43,514, 42,514, 41,514, 40,515, 39,515, 38,515, 37,516, 36,516, 35,516, 34,516, 33,517, 32,517, 31,517, 30,517, 29,517, 28,517, 27,517, 26,517, 25,517, 24,517, 23,517, 22,517, 21,517, 20,516, 19,516, 18,516, 17,516, 16,515, 15,515, 14,515, 13,514, 12,514, 11,514, 10,513, 9,513, 8,512, 7,511, 6,511, 5,510, 4,509, 3,509, 2,509, 1,509, 1,539, 10,563, 26,540, 39,509, 51" /> 
<path stroke="rgb(102,102,102)" fill="none" stroke-width="1px" stroke-dasharray="" transform="translate(478,26) rotate(0.000000)"
d="M 30.16944 -24.71446 A 39 39 0 0 1 30.16944 24.71446 " /> 
<path stroke="rgb(0,255,255)" fill="rgb(0,255,255)" stroke-width="1px" stroke-dasharray="" transform="translate(511,69) rotate(0.000000)"
d="M -2.00762 -67.97036 A 68 68 0 0 1 52.70391 -42.96857 " /> 
<path stroke="rgb(102,102,102)" fill="none" stroke-width="1px" stroke-dasharray="" transform="translate(511,69) rotate(0.000000)"
d="M -2.00762 -67.97036 A 68 68 0 0 1 52.70391 -42.96857 " /> 
<path stroke="rgb(0,255,255)" fill="rgb(0,255,255)" stroke-width="1px" stroke-dasharray="" transform="translate(511,-18) rotate(0.000000)"
d="M 53.78374 44.80300 A 70 70 0 0 1 -1.03300 69.99238 " /> 
<path stroke="rgb(102,102,102)" fill="none" stroke-width="1px" stroke-dasharray="" transform="translate(510,-19) rotate(0.000000)"
d="M 53.01541 44.16296 A 69 69 0 0 1 -1.01824 68.99249 " /> 
<text x="413" y="11" font-family="arial" fill="rgb(0,0,0)" font-size="10" text-anchor="start">coord_1(0)</text>
<text x="326" y="91" font-family="arial" fill="rgb(0,0,0)" font-weight="800" font-size="10" text-anchor="start">Diagram Signals:</text>
<text x="351" y="58" font-family="Courier New" fill="rgb(0,0,0)" font-size="10" text-anchor="start">coord_1  : std_logic_vector(7 DOWNTO 0)</text>
<text x="39" y="180" font-family="arial" fill="rgb(0,0,0)" font-size="10" text-anchor="end">coord_2</text>
<text x="351" y="68" font-family="Courier New" fill="rgb(0,0,0)" font-size="10" text-anchor="start">coord_2  : std_logic_vector(7 DOWNTO 0)</text>
<text x="351" y="78" font-family="Courier New" fill="rgb(0,0,0)" font-size="10" text-anchor="start">equality : std_logic</text>
<text x="351" y="101" font-family="Courier New" fill="rgb(0,0,0)" font-size="10" text-anchor="start">SIGNAL dout     : std_logic</text>
<text x="351" y="111" font-family="Courier New" fill="rgb(0,0,0)" font-size="10" text-anchor="start">SIGNAL dout1    : std_logic</text>
<text x="351" y="121" font-family="Courier New" fill="rgb(0,0,0)" font-size="10" text-anchor="start">SIGNAL dout2    : std_logic</text>
<text x="351" y="131" font-family="Courier New" fill="rgb(0,0,0)" font-size="10" text-anchor="start">SIGNAL dout3    : std_logic</text>
<text x="351" y="141" font-family="Courier New" fill="rgb(0,0,0)" font-size="10" text-anchor="start">SIGNAL dout4    : std_logic</text>
<text x="351" y="151" font-family="Courier New" fill="rgb(0,0,0)" font-size="10" text-anchor="start">SIGNAL dout5    : std_logic</text>
<text x="351" y="161" font-family="Courier New" fill="rgb(0,0,0)" font-size="10" text-anchor="start">SIGNAL dout6    : std_logic</text>
<text x="351" y="171" font-family="Courier New" fill="rgb(0,0,0)" font-size="10" text-anchor="start">SIGNAL dout7    : std_logic</text>
<text x="76" y="36" font-family="arial" fill="rgb(0,0,0)" font-weight="800" font-size="10" text-anchor="start">Package List</text>
<text x="76" y="48" font-family="arial" fill="rgb(0,0,0)" font-size="10" text-anchor="start">LIBRARY ieee;</text>
<text x="76" y="61" font-family="arial" fill="rgb(0,0,0)" font-size="10" text-anchor="start">USE ieee.std_logic_1164.all;</text>
<text x="76" y="73" font-family="arial" fill="rgb(0,0,0)" font-size="10" text-anchor="start">USE ieee.std_logic_arith.all;</text>
<text x="326" y="36" font-family="arial" fill="rgb(0,0,0)" font-weight="800" font-size="10" text-anchor="start">Declarations</text>
<text x="326" y="48" font-family="arial" fill="rgb(0,0,0)" font-weight="800" font-size="10" text-anchor="start">Ports:</text>
<text x="39" y="130" font-family="arial" fill="rgb(0,0,0)" font-size="10" text-anchor="end">coord_1</text>
<text x="520" y="155" font-family="arial" fill="rgb(0,0,0)" font-size="10" text-anchor="start">xnor</text>
<text x="520" y="167" font-family="arial" fill="rgb(0,0,0)" font-size="10" text-anchor="start">U_0</text>
<text x="507" y="55" font-family="arial" fill="rgb(0,0,0)" font-size="10" text-anchor="start">xnor</text>
<text x="507" y="67" font-family="arial" fill="rgb(0,0,0)" font-size="10" text-anchor="start">U_8</text>
<text x="413" y="36" font-family="arial" fill="rgb(0,0,0)" font-size="10" text-anchor="start">coord_2(0)</text>
<text x="426" y="111" font-family="arial" fill="rgb(0,0,0)" font-size="10" text-anchor="start">coord_1(1)</text>
<text x="426" y="136" font-family="arial" fill="rgb(0,0,0)" font-size="10" text-anchor="start">coord_2(1)</text>
<text x="520" y="230" font-family="arial" fill="rgb(0,0,0)" font-size="10" text-anchor="start">xnor</text>
<text x="520" y="242" font-family="arial" fill="rgb(0,0,0)" font-size="10" text-anchor="start">U_2</text>
<text x="520" y="317" font-family="arial" fill="rgb(0,0,0)" font-size="10" text-anchor="start">xnor</text>
<text x="520" y="330" font-family="arial" fill="rgb(0,0,0)" font-size="10" text-anchor="start">U_3</text>
<text x="426" y="186" font-family="arial" fill="rgb(0,0,0)" font-size="10" text-anchor="start">coord_1(2)</text>
<text x="426" y="211" font-family="arial" fill="rgb(0,0,0)" font-size="10" text-anchor="start">coord_2(2)</text>
<text x="426" y="273" font-family="arial" fill="rgb(0,0,0)" font-size="10" text-anchor="start">coord_1(3)</text>
<text x="426" y="298" font-family="arial" fill="rgb(0,0,0)" font-size="10" text-anchor="start">coord_2(3)</text>
<text x="1588" y="292" font-family="arial" fill="rgb(0,0,0)" font-size="10" text-anchor="start">equality</text>
<text x="378" y="661" font-family="Arial" fill="rgb(0,0,128)" font-size="10" text-anchor="start">by ACER on 28 May 2020</text>
<text x="378" y="636" font-family="Arial" fill="rgb(0,0,128)" font-size="10" text-anchor="start">&#0060;enter diagram title here&#0062;</text>
<text x="378" y="648" font-family="Arial" fill="rgb(0,0,128)" font-size="10" text-anchor="start">  &#0060;&#0060;-- more --&#0062;&#0062;</text>
<text x="438" y="498" font-family="arial" fill="rgb(0,0,0)" font-size="10" text-anchor="start">coord_2(6)</text>
<text x="520" y="392" font-family="arial" fill="rgb(0,0,0)" font-size="10" text-anchor="start">xnor</text>
<text x="520" y="405" font-family="arial" fill="rgb(0,0,0)" font-size="10" text-anchor="start">U_4</text>
<text x="520" y="455" font-family="arial" fill="rgb(0,0,0)" font-size="10" text-anchor="start">xnor</text>
<text x="520" y="467" font-family="arial" fill="rgb(0,0,0)" font-size="10" text-anchor="start">U_6</text>
<text x="426" y="348" font-family="arial" fill="rgb(0,0,0)" font-size="10" text-anchor="start">coord_1(4)</text>
<text x="426" y="373" font-family="arial" fill="rgb(0,0,0)" font-size="10" text-anchor="start">coord_2(4)</text>
<text x="426" y="411" font-family="arial" fill="rgb(0,0,0)" font-size="10" text-anchor="start">coord_2(5)</text>
<text x="426" y="436" font-family="arial" fill="rgb(0,0,0)" font-size="10" text-anchor="start">coord_1(5)</text>
<text x="438" y="473" font-family="arial" fill="rgb(0,0,0)" font-size="10" text-anchor="start">coord_1(6)</text>
<text x="328" y="636" font-family="Arial" fill="rgb(0,0,128)" font-size="10" text-anchor="start">Title:</text>
<text x="328" y="648" font-family="Arial" fill="rgb(0,0,128)" font-size="10" text-anchor="start">Path:</text>
<text x="328" y="661" font-family="Arial" fill="rgb(0,0,128)" font-size="10" text-anchor="start">Edited:</text>
<text x="591" y="611" font-family="Arial" fill="rgb(0,0,128)" font-size="10" text-anchor="start">Project:</text>
<text x="591" y="626" font-family="Arial" fill="rgb(0,0,128)" font-size="10" text-anchor="start">&#0060;enter comments here&#0062;</text>
<text x="641" y="611" font-family="Arial" fill="rgb(0,0,128)" font-size="10" text-anchor="start">alien_game</text>
<text x="457" y="617" font-family="Arial" fill="rgb(127,0,0)" font-size="10" text-anchor="middle">&#0060;company name&#0062;</text>
<text x="532" y="592" font-family="arial" fill="rgb(0,0,0)" font-size="10" text-anchor="start">xnor</text>
<text x="532" y="605" font-family="arial" fill="rgb(0,0,0)" font-size="10" text-anchor="start">U_5</text>
<text x="532" y="517" font-family="arial" fill="rgb(0,0,0)" font-size="10" text-anchor="start">xnor</text>
<text x="532" y="530" font-family="arial" fill="rgb(0,0,0)" font-size="10" text-anchor="start">U_7</text>
<text x="438" y="548" font-family="arial" fill="rgb(0,0,0)" font-size="10" text-anchor="start">coord_1(7)</text>
<text x="438" y="573" font-family="arial" fill="rgb(0,0,0)" font-size="10" text-anchor="start">coord_2(7)</text>
<text x="1032" y="392" font-family="arial" fill="rgb(0,0,0)" font-size="10" text-anchor="start">and</text>
<text x="1032" y="405" font-family="arial" fill="rgb(0,0,0)" font-size="10" text-anchor="start">U_9</text>
<g id="coord_1_net" stroke="rgb(0,0,0)" stroke-width="3px"  >
<polyline id="r0"  fill="none"  stroke-dasharray="" points="76, 126,201, 126" /> 
<polyline id="r0"  fill="none"  stroke-dasharray="" points="188, 113,188, 14,488, 14" /> 
<polyline id="r0"  fill="none"  stroke-dasharray="" points="163, 113,501, 113" /> 
<polyline id="r0"  fill="none"  stroke-dasharray="" points="138, 138,138, 188,501, 188" /> 
<polyline id="r0"  fill="none"  stroke-dasharray="" points="126, 138,126, 276,501, 276" /> 
<polyline id="r0"  fill="none"  stroke-dasharray="" points="88, 138,88, 351,501, 351" /> 
<polyline id="r0"  fill="none"  stroke-dasharray="" points="163, 138,163, 438,501, 438" /> 
<polyline id="r0"  fill="none"  stroke-dasharray="" points="113, 138,113, 476,513, 476" /> 
<polyline id="r0"  fill="none"  stroke-dasharray="" points="151, 138,151, 551,513, 551" /> 
</g>
<g id="coord_2_net" stroke="rgb(0,0,0)" stroke-width="3px"  >
<polyline id="r0"  fill="none"  stroke-dasharray="" points="76, 176,201, 176" /> 
<polyline id="r0"  fill="none"  stroke-dasharray="" points="188, 163,188, 38,488, 38" /> 
<polyline id="r0"  fill="none"  stroke-dasharray="" points="176, 163,176, 138,501, 138" /> 
<polyline id="r0"  fill="none"  stroke-dasharray="" points="126, 188,126, 213,501, 213" /> 
<polyline id="r0"  fill="none"  stroke-dasharray="" points="113, 188,113, 301,501, 301" /> 
<polyline id="r0"  fill="none"  stroke-dasharray="" points="88, 188,88, 376,501, 376" /> 
<polyline id="r0"  fill="none"  stroke-dasharray="" points="163, 188,163, 413,501, 413" /> 
<polyline id="r0"  fill="none"  stroke-dasharray="" points="101, 188,101, 501,513, 501" /> 
<polyline id="r0"  fill="none"  stroke-dasharray="" points="151, 188,151, 576,513, 576" /> 
</g>
<g id="dout_net" stroke="rgb(0,0,0)" stroke-width="1px"  >
<polyline id="r0"  fill="none"  stroke-dasharray="" points="576, 26,1013, 26,1013, 201" /> 
</g>
<g id="dout1_net" stroke="rgb(0,0,0)" stroke-width="1px"  >
<polyline id="r0"  fill="none"  stroke-dasharray="" points="588, 126,951, 126,951, 226,1013, 226" /> 
</g>
<g id="dout2_net" stroke="rgb(0,0,0)" stroke-width="1px"  >
<polyline id="r0"  fill="none"  stroke-dasharray="" points="588, 201,926, 201,926, 251,1013, 251" /> 
</g>
<g id="dout3_net" stroke="rgb(0,0,0)" stroke-width="1px"  >
<polyline id="r0"  fill="none"  stroke-dasharray="" points="588, 288,926, 288,926, 276,1013, 276" /> 
</g>
<g id="dout4_net" stroke="rgb(0,0,0)" stroke-width="1px"  >
<polyline id="r0"  fill="none"  stroke-dasharray="" points="588, 363,926, 363,926, 301,1013, 301" /> 
</g>
<g id="dout5_net" stroke="rgb(0,0,0)" stroke-width="1px"  >
<polyline id="r0"  fill="none"  stroke-dasharray="" points="588, 426,951, 426,951, 326,1013, 326" /> 
</g>
<g id="dout6_net" stroke="rgb(0,0,0)" stroke-width="1px"  >
<polyline id="r0"  fill="none"  stroke-dasharray="" points="601, 488,976, 488,976, 351,1013, 351" /> 
</g>
<g id="dout7_net" stroke="rgb(0,0,0)" stroke-width="1px"  >
<polyline id="r0"  fill="none"  stroke-dasharray="" points="601, 563,1013, 563,1013, 376" /> 
</g>
<g id="equality_net" stroke="rgb(0,0,0)" stroke-width="1px"  >
<polyline id="r0"  fill="none"  stroke-dasharray="" points="1551, 288,1088, 288" /> 
</g>
</g>
</svg>
<!-- Create a "titlebox" group so we can reposition it when the SVG moves -->
<g id="titlebox">
<g id="genTime" class="allText normalText">
  <text class="allText smallText" x="300" y="123">Generated on: 05/29/2020 at: 10:20 PM</text>
</g>

<rect stroke="none" fill="rgb(200,230,240)" opacity="0.4" y="112" x="0" width="914" height="15" />
<!-- Close the "titlebox" group -->
</g>

</g>
</svg>
