<?xml version="1.0" encoding="UTF-8"?>
<!DOCTYPE svg PUBLIC "-//W3C//DTD SVG 1.1//EN" "http://www.w3.org/Graphics/SVG/1.1/DTD/svg11.dtd">
<!-- Created HDS 2004.1a -->


<svg xmlns="http://www.w3.org/2000/svg" xmlns:xlink="http://www.w3.org/1999/xlink" version="1.1">
<script xlink:href="../../scripts/SVGPan.js" />
<g id="viewport" transform="translate(0,-100)">


<title>SVG Image</title>
<desc></desc>


<defs>
<!-- section for CSS stylesheet definitions -->
<style type="text/css"><![CDATA[
.allText {font-family:Sans-Serif;fill:darkcyan;}
.subTitleText {font-size:20;font-weight:bold;}
.normalText {font-size:15;}
.smallText {font-size:12;}
.boldText {font-weight:bold;}
.rightText {text-anchor:end;}
.centerText {text-anchor:middle;}
.dragRect {fill:darkcyan;stroke:none;opacity:0.4;}
]]></style>
<symbol id="upArrow" overflow="visible" style="stroke:darkcyan;fill:darkcyan;stroke-width:1;" pointer-events="none">
<polygon points="5,0 10,5 0,5 5,0" />
</symbol>
<symbol id="leftArrow" overflow="visible" style="stroke:darkcyan;fill:darkcyan;stroke-width:1;" pointer-events="none">
<polygon points="0,5 5,0 5,10 0,5" />
</symbol>
<symbol id="rightArrow" overflow="visible" style="stroke:darkcyan;fill:darkcyan;stroke-width:1;" pointer-events="none">
<polygon points="5,0 10,5 5,10 5,0" />
</symbol>
<symbol id="downArrow" overflow="visible" style="stroke:darkcyan;fill:darkcyan;stroke-width:1;" pointer-events="none">
<polygon points="0,0 5,5 10,0 0,0" />
</symbol>

</defs>
<svg id="mainMap" x="0" y="150" viewBox="0 0 951 642" width="912" height="512">


<clipPath id="SVG_Clip">
<rect x="0" y="0" width="951" height="642" />
</clipPath>
<g id="hds_models" style="clip-path:url(#SVG_Clip)">
<polyline id="r0"  stroke="rgb(102,102,102)" fill="none" stroke-width="3px" stroke-dasharray="" points="309, 212,284, 212" /> 
<polyline id="r0"  stroke="rgb(102,102,102)" fill="none" stroke-width="3px" stroke-dasharray="" points="334, 225,334, 300" /> 
<polyline id="r0"  stroke="rgb(102,102,102)" fill="none" stroke-width="3px" stroke-dasharray="" points="334, 200,334, 125" /> 
<polyline id="r0"  stroke="rgb(102,102,102)" fill="none" stroke-width="3px" stroke-dasharray="" points="672, 175,672, 100" /> 
<polyline id="r0"  stroke="rgb(102,102,102)" fill="none" stroke-width="3px" stroke-dasharray="" points="672, 200,672, 275" /> 
<polyline id="r0"  stroke="rgb(102,102,102)" fill="none" stroke-width="3px" stroke-dasharray="" points="697, 187,722, 187" /> 
<polyline id="r0"  stroke="rgb(192,192,192)" fill="rgb(192,192,192)" stroke-width="1px" stroke-dasharray="" points="672, 175,697, 187,672, 200,672, 175,672, 175" /> 
<polyline id="r0"  stroke="rgb(102,102,102)" fill="none" stroke-width="3px" stroke-dasharray="" points="672, 175,697, 187,672, 200,672, 175,672, 175" /> 
<polyline id="r0"  stroke="rgb(0,0,128)" fill="rgb(0,0,128)" stroke-width="1px" stroke-dasharray="" points="47, 208,60, 208,66, 212,60, 217,47, 217,47, 208" /> 
<polyline id="r0"  stroke="rgb(0,0,0)" fill="none" stroke-width="1px" stroke-dasharray="" points="47, 208,60, 208,66, 212,60, 217,47, 217,47, 208" /> 
<polyline id="r0"  stroke="rgb(0,0,128)" fill="rgb(0,0,128)" stroke-width="1px" stroke-dasharray="" points="47, 208,60, 208,66, 212,60, 217,47, 217,47, 208" /> 
<polyline id="r0"  stroke="rgb(0,0,0)" fill="none" stroke-width="1px" stroke-dasharray="" points="47, 208,60, 208,66, 212,60, 217,47, 217,47, 208" /> 
<polyline id="r0"  stroke="rgb(0,0,0)" fill="none" stroke-width="1px" stroke-dasharray="" points="66, 212,72, 212" /> 
<polyline id="r0"  stroke="rgb(0,0,128)" fill="rgb(0,0,128)" stroke-width="1px" stroke-dasharray="" points="878, 183,891, 183,897, 187,891, 192,878, 192,878, 183" /> 
<polyline id="r0"  stroke="rgb(0,0,0)" fill="none" stroke-width="1px" stroke-dasharray="" points="878, 183,891, 183,897, 187,891, 192,878, 192,878, 183" /> 
<polyline id="r0"  stroke="rgb(0,0,128)" fill="rgb(0,0,128)" stroke-width="1px" stroke-dasharray="" points="878, 183,891, 183,897, 187,891, 192,878, 192,878, 183" /> 
<polyline id="r0"  stroke="rgb(0,0,0)" fill="none" stroke-width="1px" stroke-dasharray="" points="878, 183,891, 183,897, 187,891, 192,878, 192,878, 183" /> 
<polyline id="r0"  stroke="rgb(0,0,0)" fill="none" stroke-width="1px" stroke-dasharray="" points="872, 187,878, 187" /> 
<rect id="r0"  stroke="rgb(254,254,179)" fill="rgb(254,254,179)" stroke-width="1px" stroke-dasharray="" y="625px" x="409px" width="213px" height="12px" rx="0" ry="0" />
<rect id="r0"  stroke="rgb(0,0,0)" fill="none" stroke-width="1px" stroke-dasharray="" y="625px" x="409px" width="213px" height="12px" rx="0" ry="0" />
<rect id="r0"  stroke="rgb(254,254,179)" fill="rgb(254,254,179)" stroke-width="1px" stroke-dasharray="" y="575px" x="622px" width="50px" height="12px" rx="0" ry="0" />
<rect id="r0"  stroke="rgb(0,0,0)" fill="none" stroke-width="1px" stroke-dasharray="" y="575px" x="622px" width="50px" height="12px" rx="0" ry="0" />
<rect id="r0"  stroke="rgb(254,254,179)" fill="rgb(254,254,179)" stroke-width="1px" stroke-dasharray="" y="600px" x="409px" width="213px" height="12px" rx="0" ry="0" />
<rect id="r0"  stroke="rgb(0,0,0)" fill="none" stroke-width="1px" stroke-dasharray="" y="600px" x="409px" width="213px" height="12px" rx="0" ry="0" />
<rect id="r0"  stroke="rgb(254,254,179)" fill="rgb(254,254,179)" stroke-width="1px" stroke-dasharray="" y="600px" x="359px" width="50px" height="12px" rx="0" ry="0" />
<rect id="r0"  stroke="rgb(0,0,0)" fill="none" stroke-width="1px" stroke-dasharray="" y="600px" x="359px" width="50px" height="12px" rx="0" ry="0" />
<rect id="r0"  stroke="rgb(254,254,179)" fill="rgb(254,254,179)" stroke-width="1px" stroke-dasharray="" y="587px" x="622px" width="250px" height="50px" rx="0" ry="0" />
<rect id="r0"  stroke="rgb(0,0,0)" fill="none" stroke-width="1px" stroke-dasharray="" y="587px" x="622px" width="250px" height="50px" rx="0" ry="0" />
<rect id="r0"  stroke="rgb(254,254,179)" fill="rgb(254,254,179)" stroke-width="1px" stroke-dasharray="" y="575px" x="672px" width="200px" height="12px" rx="0" ry="0" />
<rect id="r0"  stroke="rgb(0,0,0)" fill="none" stroke-width="1px" stroke-dasharray="" y="575px" x="672px" width="200px" height="12px" rx="0" ry="0" />
<rect id="r0"  stroke="rgb(254,254,179)" fill="rgb(254,254,179)" stroke-width="1px" stroke-dasharray="" y="575px" x="359px" width="263px" height="25px" rx="0" ry="0" />
<rect id="r0"  stroke="rgb(0,0,0)" fill="none" stroke-width="1px" stroke-dasharray="" y="575px" x="359px" width="263px" height="25px" rx="0" ry="0" />
<rect id="r0"  stroke="rgb(254,254,179)" fill="rgb(254,254,179)" stroke-width="1px" stroke-dasharray="" y="612px" x="359px" width="50px" height="13px" rx="0" ry="0" />
<rect id="r0"  stroke="rgb(0,0,0)" fill="none" stroke-width="1px" stroke-dasharray="" y="612px" x="359px" width="50px" height="13px" rx="0" ry="0" />
<rect id="r0"  stroke="rgb(254,254,179)" fill="rgb(254,254,179)" stroke-width="1px" stroke-dasharray="" y="625px" x="359px" width="50px" height="12px" rx="0" ry="0" />
<rect id="r0"  stroke="rgb(0,0,0)" fill="none" stroke-width="1px" stroke-dasharray="" y="625px" x="359px" width="50px" height="12px" rx="0" ry="0" />
<rect id="r0"  stroke="rgb(254,254,179)" fill="rgb(254,254,179)" stroke-width="1px" stroke-dasharray="" y="612px" x="409px" width="213px" height="13px" rx="0" ry="0" />
<rect id="r0"  stroke="rgb(0,0,0)" fill="none" stroke-width="1px" stroke-dasharray="" y="612px" x="409px" width="213px" height="13px" rx="0" ry="0" />
<polyline id="r0"  stroke="rgb(0,0,0)" fill="none" stroke-width="1px" stroke-dasharray="" points="66, 212,72, 212" /> 
<polyline id="r0"  stroke="rgb(0,0,0)" fill="none" stroke-width="1px" stroke-dasharray="" points="872, 187,878, 187" /> 
<polyline id="r0"  stroke="rgb(192,192,192)" fill="rgb(192,192,192)" stroke-width="1px" stroke-dasharray="" points="309, 212,334, 200,334, 225,309, 212,309, 212" /> 
<polyline id="r0"  stroke="rgb(102,102,102)" fill="none" stroke-width="3px" stroke-dasharray="" points="309, 212,334, 200,334, 225,309, 212,309, 212" /> 
<text x="372" y="32" font-family="Courier New" fill="rgb(0,0,0)" font-size="10" text-anchor="start">data_in  : std_logic_vector(7 DOWNTO 0)</text>
<text x="372" y="42" font-family="Courier New" fill="rgb(0,0,0)" font-size="10" text-anchor="start">data_out : std_logic_vector(7 DOWNTO 0)</text>
<text x="412" y="635" font-family="Arial" fill="rgb(0,0,128)" font-size="10" text-anchor="start">by Asus on 27 May 2020</text>
<text x="412" y="610" font-family="Arial" fill="rgb(0,0,128)" font-size="10" text-anchor="start">&#0060;enter diagram title here&#0062;</text>
<text x="491" y="591" font-family="Arial" fill="rgb(127,0,0)" font-size="10" text-anchor="middle">&#0060;company name&#0062;</text>
<text x="412" y="622" font-family="Arial" fill="rgb(0,0,128)" font-size="10" text-anchor="start">alien_game_lib/c2_t3_left_shifter/struct</text>
<text x="683" y="310" font-family="arial" fill="rgb(0,0,0)" font-size="10" text-anchor="start">U_1</text>
<text x="372" y="65" font-family="Courier New" fill="rgb(0,0,0)" font-size="10" text-anchor="start">SIGNAL dout0    : std_logic</text>
<text x="372" y="75" font-family="Courier New" fill="rgb(0,0,0)" font-size="10" text-anchor="start">SIGNAL dout1    : std_logic</text>
<text x="372" y="85" font-family="Courier New" fill="rgb(0,0,0)" font-size="10" text-anchor="start">SIGNAL dout2    : std_logic</text>
<text x="372" y="95" font-family="Courier New" fill="rgb(0,0,0)" font-size="10" text-anchor="start">SIGNAL dout3    : std_logic</text>
<text x="372" y="105" font-family="Courier New" fill="rgb(0,0,0)" font-size="10" text-anchor="start">SIGNAL dout4    : std_logic</text>
<text x="372" y="115" font-family="Courier New" fill="rgb(0,0,0)" font-size="10" text-anchor="start">SIGNAL dout5    : std_logic</text>
<text x="372" y="125" font-family="Courier New" fill="rgb(0,0,0)" font-size="10" text-anchor="start">SIGNAL dout6    : std_logic</text>
<text x="372" y="135" font-family="Courier New" fill="rgb(0,0,0)" font-size="10" text-anchor="start">SIGNAL dout7    : std_logic</text>
<text x="97" y="10" font-family="arial" fill="rgb(0,0,0)" font-weight="800" font-size="10" text-anchor="start">Package List</text>
<text x="97" y="22" font-family="arial" fill="rgb(0,0,0)" font-size="10" text-anchor="start">LIBRARY ieee;</text>
<text x="97" y="35" font-family="arial" fill="rgb(0,0,0)" font-size="10" text-anchor="start">USE ieee.std_logic_1164.all;</text>
<text x="97" y="47" font-family="arial" fill="rgb(0,0,0)" font-size="10" text-anchor="start">USE ieee.std_logic_arith.all;</text>
<text x="347" y="10" font-family="arial" fill="rgb(0,0,0)" font-weight="800" font-size="10" text-anchor="start">Declarations</text>
<text x="347" y="22" font-family="arial" fill="rgb(0,0,0)" font-weight="800" font-size="10" text-anchor="start">Ports:</text>
<text x="347" y="55" font-family="arial" fill="rgb(0,0,0)" font-weight="800" font-size="10" text-anchor="start">Diagram Signals:</text>
<text x="35" y="216" font-family="arial" fill="rgb(0,0,0)" font-size="10" text-anchor="end">data_in</text>
<text x="305" y="224" font-family="arial" fill="rgb(0,0,0)" font-size="10" text-anchor="middle">msb</text>
<text x="307" y="206" font-family="arial" fill="rgb(0,0,0)" font-size="10" text-anchor="middle">lsb</text>
<text x="909" y="191" font-family="arial" fill="rgb(0,0,0)" font-size="10" text-anchor="start">data_out</text>
<text x="683" y="297" font-family="arial" fill="rgb(0,0,0)" font-size="10" text-anchor="start">merge</text>
<text x="702" y="183" font-family="arial" fill="rgb(0,0,0)" font-size="10" text-anchor="middle">lsb</text>
<text x="702" y="198" font-family="arial" fill="rgb(0,0,0)" font-size="10" text-anchor="middle">msb</text>
<text x="362" y="610" font-family="Arial" fill="rgb(0,0,128)" font-size="10" text-anchor="start">Title:</text>
<text x="362" y="622" font-family="Arial" fill="rgb(0,0,128)" font-size="10" text-anchor="start">Path:</text>
<text x="362" y="635" font-family="Arial" fill="rgb(0,0,128)" font-size="10" text-anchor="start">Edited:</text>
<text x="296" y="322" font-family="arial" fill="rgb(0,0,0)" font-size="10" text-anchor="start">split</text>
<text x="296" y="335" font-family="arial" fill="rgb(0,0,0)" font-size="10" text-anchor="start">U_0</text>
<text x="624" y="585" font-family="Arial" fill="rgb(0,0,128)" font-size="10" text-anchor="start">Project:</text>
<text x="624" y="600" font-family="Arial" fill="rgb(0,0,128)" font-size="10" text-anchor="start">&#0060;enter comments here&#0062;</text>
<text x="674" y="585" font-family="Arial" fill="rgb(0,0,128)" font-size="10" text-anchor="start">alien_game</text>
<g id="data_in_net" stroke="rgb(0,0,0)" stroke-width="3px"  >
<polyline id="r0"  fill="none"  stroke-dasharray="" points="72, 212,284, 212" /> 
</g>
<g id="data_out_net" stroke="rgb(0,0,0)" stroke-width="3px"  >
<polyline id="r0"  fill="none"  stroke-dasharray="" points="872, 187,722, 187" /> 
</g>
<g id="dout0_net" stroke="rgb(0,0,0)" stroke-width="1px"  >
<polyline id="r0"  fill="none"  stroke-dasharray="" points="334, 125,672, 125" /> 
</g>
<g id="dout1_net" stroke="rgb(0,0,0)" stroke-width="1px"  >
<polyline id="r0"  fill="none"  stroke-dasharray="" points="334, 150,672, 150" /> 
</g>
<g id="dout2_net" stroke="rgb(0,0,0)" stroke-width="1px"  >
<polyline id="r0"  fill="none"  stroke-dasharray="" points="334, 175,672, 175" /> 
</g>
<g id="dout3_net" stroke="rgb(0,0,0)" stroke-width="1px"  >
<polyline id="r0"  fill="none"  stroke-dasharray="" points="334, 200,672, 200" /> 
</g>
<g id="dout4_net" stroke="rgb(0,0,0)" stroke-width="1px"  >
<polyline id="r0"  fill="none"  stroke-dasharray="" points="334, 225,672, 225" /> 
</g>
<g id="dout5_net" stroke="rgb(0,0,0)" stroke-width="1px"  >
<polyline id="r0"  fill="none"  stroke-dasharray="" points="334, 250,672, 250" /> 
</g>
<g id="dout6_net" stroke="rgb(0,0,0)" stroke-width="1px"  >
<polyline id="r0"  fill="none"  stroke-dasharray="" points="334, 275,672, 275" /> 
</g>
<g id="dout7_net" stroke="rgb(0,0,0)" stroke-width="1px"  >
<polyline id="r0"  fill="none"  stroke-dasharray="" points="334, 300,497, 300,497, 100,672, 100" /> 
</g>
</g>
</svg>
<!-- Create a "titlebox" group so we can reposition it when the SVG moves -->
<g id="titlebox">
<g id="genTime" class="allText normalText">
  <text class="allText smallText" x="300" y="123">Generated on: 05/29/2020 at: 10:20 PM</text>
</g>

<rect stroke="none" fill="rgb(200,230,240)" opacity="0.4" y="112" x="0" width="914" height="15" />
<!-- Close the "titlebox" group -->
</g>

</g>
</svg>
