<?xml version="1.0" encoding="UTF-8"?>
<!DOCTYPE svg PUBLIC "-//W3C//DTD SVG 1.1//EN" "http://www.w3.org/Graphics/SVG/1.1/DTD/svg11.dtd">
<!-- Created HDS 2004.1a -->


<svg xmlns="http://www.w3.org/2000/svg" xmlns:xlink="http://www.w3.org/1999/xlink" version="1.1">
<script xlink:href="../../scripts/SVGPan.js" />
<g id="viewport" transform="translate(0,-100)">


<title>SVG Image</title>
<desc></desc>


<defs>
<!-- section for CSS stylesheet definitions -->
<style type="text/css"><![CDATA[
.allText {font-family:Sans-Serif;fill:darkcyan;}
.subTitleText {font-size:20;font-weight:bold;}
.normalText {font-size:15;}
.smallText {font-size:12;}
.boldText {font-weight:bold;}
.rightText {text-anchor:end;}
.centerText {text-anchor:middle;}
.dragRect {fill:darkcyan;stroke:none;opacity:0.4;}
]]></style>
<symbol id="upArrow" overflow="visible" style="stroke:darkcyan;fill:darkcyan;stroke-width:1;" pointer-events="none">
<polygon points="5,0 10,5 0,5 5,0" />
</symbol>
<symbol id="leftArrow" overflow="visible" style="stroke:darkcyan;fill:darkcyan;stroke-width:1;" pointer-events="none">
<polygon points="0,5 5,0 5,10 0,5" />
</symbol>
<symbol id="rightArrow" overflow="visible" style="stroke:darkcyan;fill:darkcyan;stroke-width:1;" pointer-events="none">
<polygon points="5,0 10,5 5,10 5,0" />
</symbol>
<symbol id="downArrow" overflow="visible" style="stroke:darkcyan;fill:darkcyan;stroke-width:1;" pointer-events="none">
<polygon points="0,0 5,5 10,0 0,0" />
</symbol>

</defs>
<svg id="mainMap" x="0" y="150" viewBox="0 0 2279 698" width="912" height="512">


<clipPath id="SVG_Clip">
<rect x="0" y="0" width="2279" height="698" />
</clipPath>
<g id="hds_models" style="clip-path:url(#SVG_Clip)">
<polyline id="r0"  stroke="rgb(102,102,102)" fill="none" stroke-width="3px" stroke-dasharray="" points="393, 293,368, 293" /> 
<polyline id="r0"  stroke="rgb(102,102,102)" fill="none" stroke-width="3px" stroke-dasharray="" points="418, 306,418, 331" /> 
<polyline id="r0"  stroke="rgb(102,102,102)" fill="none" stroke-width="3px" stroke-dasharray="" points="418, 281,418, 256" /> 
<polyline id="r0"  stroke="rgb(102,102,102)" fill="none" stroke-width="3px" stroke-dasharray="" points="1830, 381,1830, 356" /> 
<polyline id="r0"  stroke="rgb(102,102,102)" fill="none" stroke-width="3px" stroke-dasharray="" points="1830, 406,1830, 431" /> 
<polyline id="r0"  stroke="rgb(102,102,102)" fill="none" stroke-width="3px" stroke-dasharray="" points="1855, 393,1880, 393" /> 
<polyline id="r0"  stroke="rgb(192,192,192)" fill="rgb(192,192,192)" stroke-width="1px" stroke-dasharray="" points="1830, 381,1855, 393,1830, 406,1830, 381,1830, 381" /> 
<polyline id="r0"  stroke="rgb(102,102,102)" fill="none" stroke-width="3px" stroke-dasharray="" points="1830, 381,1855, 393,1830, 406,1830, 381,1830, 381" /> 
<polyline id="r0"  stroke="rgb(0,0,128)" fill="rgb(0,0,128)" stroke-width="1px" stroke-dasharray="" points="268, 39,280, 39,286, 44,280, 48,268, 48,268, 39" /> 
<polyline id="r0"  stroke="rgb(0,0,0)" fill="none" stroke-width="1px" stroke-dasharray="" points="268, 39,280, 39,286, 44,280, 48,268, 48,268, 39" /> 
<polyline id="r0"  stroke="rgb(0,0,128)" fill="rgb(0,0,128)" stroke-width="1px" stroke-dasharray="" points="268, 39,280, 39,286, 44,280, 48,268, 48,268, 39" /> 
<polyline id="r0"  stroke="rgb(0,0,0)" fill="none" stroke-width="1px" stroke-dasharray="" points="268, 39,280, 39,286, 44,280, 48,268, 48,268, 39" /> 
<polyline id="r0"  stroke="rgb(0,0,0)" fill="none" stroke-width="1px" stroke-dasharray="" points="286, 44,293, 44" /> 
<polyline id="r0"  stroke="rgb(0,0,128)" fill="rgb(0,0,128)" stroke-width="1px" stroke-dasharray="" points="2211, 389,2224, 389,2230, 393,2224, 398,2211, 398,2211, 389" /> 
<polyline id="r0"  stroke="rgb(0,0,0)" fill="none" stroke-width="1px" stroke-dasharray="" points="2211, 389,2224, 389,2230, 393,2224, 398,2211, 398,2211, 389" /> 
<polyline id="r0"  stroke="rgb(0,0,128)" fill="rgb(0,0,128)" stroke-width="1px" stroke-dasharray="" points="2211, 389,2224, 389,2230, 393,2224, 398,2211, 398,2211, 389" /> 
<polyline id="r0"  stroke="rgb(0,0,0)" fill="none" stroke-width="1px" stroke-dasharray="" points="2211, 389,2224, 389,2230, 393,2224, 398,2211, 398,2211, 389" /> 
<polyline id="r0"  stroke="rgb(0,0,0)" fill="none" stroke-width="1px" stroke-dasharray="" points="2205, 393,2211, 393" /> 
<polyline id="r0"  stroke="rgb(0,0,128)" fill="rgb(0,0,128)" stroke-width="1px" stroke-dasharray="" points="268, 1,280, 1,286, 6,280, 11,268, 11,268, 1" /> 
<polyline id="r0"  stroke="rgb(0,0,0)" fill="none" stroke-width="1px" stroke-dasharray="" points="268, 1,280, 1,286, 6,280, 11,268, 11,268, 1" /> 
<polyline id="r0"  stroke="rgb(0,0,128)" fill="rgb(0,0,128)" stroke-width="1px" stroke-dasharray="" points="268, 1,280, 1,286, 6,280, 11,268, 11,268, 1" /> 
<polyline id="r0"  stroke="rgb(0,0,0)" fill="none" stroke-width="1px" stroke-dasharray="" points="268, 1,280, 1,286, 6,280, 11,268, 11,268, 1" /> 
<polyline id="r0"  stroke="rgb(0,0,0)" fill="none" stroke-width="1px" stroke-dasharray="" points="286, 6,293, 6" /> 
<rect id="r0"  stroke="rgb(254,254,179)" fill="rgb(254,254,179)" stroke-width="1px" stroke-dasharray="" y="681px" x="992px" width="213px" height="12px" rx="0" ry="0" />
<rect id="r0"  stroke="rgb(0,0,0)" fill="none" stroke-width="1px" stroke-dasharray="" y="681px" x="992px" width="213px" height="12px" rx="0" ry="0" />
<rect id="r0"  stroke="rgb(254,254,179)" fill="rgb(254,254,179)" stroke-width="1px" stroke-dasharray="" y="631px" x="1205px" width="50px" height="12px" rx="0" ry="0" />
<rect id="r0"  stroke="rgb(0,0,0)" fill="none" stroke-width="1px" stroke-dasharray="" y="631px" x="1205px" width="50px" height="12px" rx="0" ry="0" />
<rect id="r0"  stroke="rgb(254,254,179)" fill="rgb(254,254,179)" stroke-width="1px" stroke-dasharray="" y="656px" x="992px" width="213px" height="12px" rx="0" ry="0" />
<rect id="r0"  stroke="rgb(0,0,0)" fill="none" stroke-width="1px" stroke-dasharray="" y="656px" x="992px" width="213px" height="12px" rx="0" ry="0" />
<rect id="r0"  stroke="rgb(254,254,179)" fill="rgb(254,254,179)" stroke-width="1px" stroke-dasharray="" y="656px" x="942px" width="50px" height="12px" rx="0" ry="0" />
<rect id="r0"  stroke="rgb(0,0,0)" fill="none" stroke-width="1px" stroke-dasharray="" y="656px" x="942px" width="50px" height="12px" rx="0" ry="0" />
<rect id="r0"  stroke="rgb(254,254,179)" fill="rgb(254,254,179)" stroke-width="1px" stroke-dasharray="" y="643px" x="1205px" width="250px" height="50px" rx="0" ry="0" />
<rect id="r0"  stroke="rgb(0,0,0)" fill="none" stroke-width="1px" stroke-dasharray="" y="643px" x="1205px" width="250px" height="50px" rx="0" ry="0" />
<rect id="r0"  stroke="rgb(254,254,179)" fill="rgb(254,254,179)" stroke-width="1px" stroke-dasharray="" y="631px" x="1255px" width="200px" height="12px" rx="0" ry="0" />
<rect id="r0"  stroke="rgb(0,0,0)" fill="none" stroke-width="1px" stroke-dasharray="" y="631px" x="1255px" width="200px" height="12px" rx="0" ry="0" />
<rect id="r0"  stroke="rgb(254,254,179)" fill="rgb(254,254,179)" stroke-width="1px" stroke-dasharray="" y="631px" x="942px" width="263px" height="25px" rx="0" ry="0" />
<rect id="r0"  stroke="rgb(0,0,0)" fill="none" stroke-width="1px" stroke-dasharray="" y="631px" x="942px" width="263px" height="25px" rx="0" ry="0" />
<rect id="r0"  stroke="rgb(254,254,179)" fill="rgb(254,254,179)" stroke-width="1px" stroke-dasharray="" y="668px" x="942px" width="50px" height="13px" rx="0" ry="0" />
<rect id="r0"  stroke="rgb(0,0,0)" fill="none" stroke-width="1px" stroke-dasharray="" y="668px" x="942px" width="50px" height="13px" rx="0" ry="0" />
<rect id="r0"  stroke="rgb(254,254,179)" fill="rgb(254,254,179)" stroke-width="1px" stroke-dasharray="" y="681px" x="942px" width="50px" height="12px" rx="0" ry="0" />
<rect id="r0"  stroke="rgb(0,0,0)" fill="none" stroke-width="1px" stroke-dasharray="" y="681px" x="942px" width="50px" height="12px" rx="0" ry="0" />
<rect id="r0"  stroke="rgb(254,254,179)" fill="rgb(254,254,179)" stroke-width="1px" stroke-dasharray="" y="668px" x="992px" width="213px" height="13px" rx="0" ry="0" />
<rect id="r0"  stroke="rgb(0,0,0)" fill="none" stroke-width="1px" stroke-dasharray="" y="668px" x="992px" width="213px" height="13px" rx="0" ry="0" />
<a xlink:href='javascript:parent.location.href="../../alien_game_lib/c3_t3_button_state/fsm_sm.htm"'>
<rect id="r0"  stroke="rgb(0,255,0)" fill="rgb(0,255,0)" stroke-width="1px" stroke-dasharray="" y="182px" x="656px" width="174px" height="49px" rx="0" ry="0" />
</a>
<rect id="r0"  stroke="rgb(0,128,0)" fill="none" stroke-width="3px" stroke-dasharray="" y="182px" x="656px" width="174px" height="49px" rx="0" ry="0" />
<a xlink:href='javascript:parent.location.href="../../alien_game_lib/c3_t3_button_state/fsm_sm.htm"'>
<image xlink:href="StateMachineViewIcon.png" x="658" y="209" width="19" height="19" />
</a>
<a xlink:href='javascript:parent.location.href="../../alien_game_lib/c3_t3_button_state/fsm_sm.htm"'>
<rect id="r0"  stroke="rgb(0,255,0)" fill="rgb(0,255,0)" stroke-width="1px" stroke-dasharray="" y="332px" x="1056px" width="174px" height="61px" rx="0" ry="0" />
</a>
<rect id="r0"  stroke="rgb(0,128,0)" fill="none" stroke-width="3px" stroke-dasharray="" y="332px" x="1056px" width="174px" height="61px" rx="0" ry="0" />
<a xlink:href='javascript:parent.location.href="../../alien_game_lib/c3_t3_button_state/fsm_sm.htm"'>
<image xlink:href="StateMachineViewIcon.png" x="1058" y="372" width="19" height="18" />
</a>
<a xlink:href='javascript:parent.location.href="../../alien_game_lib/c3_t3_button_state/fsm_sm.htm"'>
<rect id="r0"  stroke="rgb(0,255,0)" fill="rgb(0,255,0)" stroke-width="1px" stroke-dasharray="" y="244px" x="856px" width="174px" height="62px" rx="0" ry="0" />
</a>
<rect id="r0"  stroke="rgb(0,128,0)" fill="none" stroke-width="3px" stroke-dasharray="" y="244px" x="856px" width="174px" height="62px" rx="0" ry="0" />
<a xlink:href='javascript:parent.location.href="../../alien_game_lib/c3_t3_button_state/fsm_sm.htm"'>
<image xlink:href="StateMachineViewIcon.png" x="858" y="284" width="19" height="19" />
</a>
<a xlink:href='javascript:parent.location.href="../../alien_game_lib/c3_t3_button_state/fsm_sm.htm"'>
<rect id="r0"  stroke="rgb(0,255,0)" fill="rgb(0,255,0)" stroke-width="1px" stroke-dasharray="" y="444px" x="1281px" width="174px" height="62px" rx="0" ry="0" />
</a>
<rect id="r0"  stroke="rgb(0,128,0)" fill="none" stroke-width="3px" stroke-dasharray="" y="444px" x="1281px" width="174px" height="62px" rx="0" ry="0" />
<a xlink:href='javascript:parent.location.href="../../alien_game_lib/c3_t3_button_state/fsm_sm.htm"'>
<image xlink:href="StateMachineViewIcon.png" x="1283" y="484" width="19" height="19" />
</a>
<polyline id="r0"  stroke="rgb(0,0,128)" fill="rgb(0,0,128)" stroke-width="1px" stroke-dasharray="" points="43, 289,55, 289,61, 293,55, 298,43, 298,43, 289" /> 
<polyline id="r0"  stroke="rgb(0,0,0)" fill="none" stroke-width="1px" stroke-dasharray="" points="43, 289,55, 289,61, 293,55, 298,43, 298,43, 289" /> 
<polyline id="r0"  stroke="rgb(0,0,128)" fill="rgb(0,0,128)" stroke-width="1px" stroke-dasharray="" points="43, 289,55, 289,61, 293,55, 298,43, 298,43, 289" /> 
<polyline id="r0"  stroke="rgb(0,0,0)" fill="none" stroke-width="1px" stroke-dasharray="" points="43, 289,55, 289,61, 293,55, 298,43, 298,43, 289" /> 
<polyline id="r0"  stroke="rgb(0,0,0)" fill="none" stroke-width="1px" stroke-dasharray="" points="61, 293,68, 293" /> 
<polyline id="r0"  stroke="rgb(0,0,0)" fill="none" stroke-width="1px" stroke-dasharray="" points="286, 44,293, 44" /> 
<polyline id="r0"  stroke="rgb(0,0,0)" fill="none" stroke-width="1px" stroke-dasharray="" points="2205, 393,2211, 393" /> 
<polyline id="r0"  stroke="rgb(0,0,0)" fill="none" stroke-width="1px" stroke-dasharray="" points="286, 6,293, 6" /> 
<polyline id="r0"  stroke="rgb(0,0,0)" fill="none" stroke-width="1px" stroke-dasharray="" points="61, 293,68, 293" /> 
<a xlink:href='javascript:parent.location.href="../../alien_game_lib/c3_t3_button_state/fsm_sm.htm"'>
<polyline id="r0"  stroke="rgb(0,255,0)" fill="rgb(0,255,0)" stroke-width="1px" stroke-dasharray="" points="680, 181,675, 172,685, 172,680, 181" /> 
</a>
<polyline id="r0"  stroke="rgb(0,0,0)" fill="none" stroke-width="1px" stroke-dasharray="" points="680, 181,675, 172,685, 172,680, 181" /> 
<a xlink:href='javascript:parent.location.href="../../alien_game_lib/c3_t3_button_state/fsm_sm.htm"'>
<polyline id="r0"  stroke="rgb(0,255,0)" fill="rgb(0,255,0)" stroke-width="1px" stroke-dasharray="" points="692, 181,688, 172,697, 172,692, 181" /> 
</a>
<polyline id="r0"  stroke="rgb(0,0,0)" fill="none" stroke-width="1px" stroke-dasharray="" points="692, 181,688, 172,697, 172,692, 181" /> 
<a xlink:href='javascript:parent.location.href="../../alien_game_lib/c3_t3_button_state/fsm_sm.htm"'>
<polyline id="r0"  stroke="rgb(0,255,0)" fill="rgb(0,255,0)" stroke-width="1px" stroke-dasharray="" points="655, 218,646, 223,646, 214,655, 218" /> 
</a>
<polyline id="r0"  stroke="rgb(0,0,0)" fill="none" stroke-width="1px" stroke-dasharray="" points="655, 218,646, 223,646, 214,655, 218" /> 
<a xlink:href='javascript:parent.location.href="../../alien_game_lib/c3_t3_button_state/fsm_sm.htm"'>
<polyline id="r0"  stroke="rgb(0,255,0)" fill="rgb(0,255,0)" stroke-width="1px" stroke-dasharray="" points="839, 193,830, 198,830, 189,839, 193" /> 
</a>
<polyline id="r0"  stroke="rgb(0,0,0)" fill="none" stroke-width="1px" stroke-dasharray="" points="839, 193,830, 198,830, 189,839, 193" /> 
<a xlink:href='javascript:parent.location.href="../../alien_game_lib/c3_t3_button_state/fsm_sm.htm"'>
<polyline id="r0"  stroke="rgb(0,255,0)" fill="rgb(0,255,0)" stroke-width="1px" stroke-dasharray="" points="1080, 331,1075, 322,1085, 322,1080, 331" /> 
</a>
<polyline id="r0"  stroke="rgb(0,0,0)" fill="none" stroke-width="1px" stroke-dasharray="" points="1080, 331,1075, 322,1085, 322,1080, 331" /> 
<a xlink:href='javascript:parent.location.href="../../alien_game_lib/c3_t3_button_state/fsm_sm.htm"'>
<polyline id="r0"  stroke="rgb(0,255,0)" fill="rgb(0,255,0)" stroke-width="1px" stroke-dasharray="" points="1092, 331,1088, 322,1097, 322,1092, 331" /> 
</a>
<polyline id="r0"  stroke="rgb(0,0,0)" fill="none" stroke-width="1px" stroke-dasharray="" points="1092, 331,1088, 322,1097, 322,1092, 331" /> 
<a xlink:href='javascript:parent.location.href="../../alien_game_lib/c3_t3_button_state/fsm_sm.htm"'>
<polyline id="r0"  stroke="rgb(0,255,0)" fill="rgb(0,255,0)" stroke-width="1px" stroke-dasharray="" points="1055, 368,1046, 373,1046, 364,1055, 368" /> 
</a>
<polyline id="r0"  stroke="rgb(0,0,0)" fill="none" stroke-width="1px" stroke-dasharray="" points="1055, 368,1046, 373,1046, 364,1055, 368" /> 
<a xlink:href='javascript:parent.location.href="../../alien_game_lib/c3_t3_button_state/fsm_sm.htm"'>
<polyline id="r0"  stroke="rgb(0,255,0)" fill="rgb(0,255,0)" stroke-width="1px" stroke-dasharray="" points="1239, 343,1230, 348,1230, 339,1239, 343" /> 
</a>
<polyline id="r0"  stroke="rgb(0,0,0)" fill="none" stroke-width="1px" stroke-dasharray="" points="1239, 343,1230, 348,1230, 339,1239, 343" /> 
<a xlink:href='javascript:parent.location.href="../../alien_game_lib/c3_t3_button_state/fsm_sm.htm"'>
<polyline id="r0"  stroke="rgb(0,255,0)" fill="rgb(0,255,0)" stroke-width="1px" stroke-dasharray="" points="880, 243,875, 234,885, 234,880, 243" /> 
</a>
<polyline id="r0"  stroke="rgb(0,0,0)" fill="none" stroke-width="1px" stroke-dasharray="" points="880, 243,875, 234,885, 234,880, 243" /> 
<a xlink:href='javascript:parent.location.href="../../alien_game_lib/c3_t3_button_state/fsm_sm.htm"'>
<polyline id="r0"  stroke="rgb(0,255,0)" fill="rgb(0,255,0)" stroke-width="1px" stroke-dasharray="" points="905, 243,900, 234,910, 234,905, 243" /> 
</a>
<polyline id="r0"  stroke="rgb(0,0,0)" fill="none" stroke-width="1px" stroke-dasharray="" points="905, 243,900, 234,910, 234,905, 243" /> 
<a xlink:href='javascript:parent.location.href="../../alien_game_lib/c3_t3_button_state/fsm_sm.htm"'>
<polyline id="r0"  stroke="rgb(0,255,0)" fill="rgb(0,255,0)" stroke-width="1px" stroke-dasharray="" points="855, 281,846, 286,846, 276,855, 281" /> 
</a>
<polyline id="r0"  stroke="rgb(0,0,0)" fill="none" stroke-width="1px" stroke-dasharray="" points="855, 281,846, 286,846, 276,855, 281" /> 
<a xlink:href='javascript:parent.location.href="../../alien_game_lib/c3_t3_button_state/fsm_sm.htm"'>
<polyline id="r0"  stroke="rgb(0,255,0)" fill="rgb(0,255,0)" stroke-width="1px" stroke-dasharray="" points="1039, 256,1030, 261,1030, 251,1039, 256" /> 
</a>
<polyline id="r0"  stroke="rgb(0,0,0)" fill="none" stroke-width="1px" stroke-dasharray="" points="1039, 256,1030, 261,1030, 251,1039, 256" /> 
<a xlink:href='javascript:parent.location.href="../../alien_game_lib/c3_t3_button_state/fsm_sm.htm"'>
<polyline id="r0"  stroke="rgb(0,255,0)" fill="rgb(0,255,0)" stroke-width="1px" stroke-dasharray="" points="1305, 443,1300, 434,1310, 434,1305, 443" /> 
</a>
<polyline id="r0"  stroke="rgb(0,0,0)" fill="none" stroke-width="1px" stroke-dasharray="" points="1305, 443,1300, 434,1310, 434,1305, 443" /> 
<a xlink:href='javascript:parent.location.href="../../alien_game_lib/c3_t3_button_state/fsm_sm.htm"'>
<polyline id="r0"  stroke="rgb(0,255,0)" fill="rgb(0,255,0)" stroke-width="1px" stroke-dasharray="" points="1317, 443,1313, 434,1322, 434,1317, 443" /> 
</a>
<polyline id="r0"  stroke="rgb(0,0,0)" fill="none" stroke-width="1px" stroke-dasharray="" points="1317, 443,1313, 434,1322, 434,1317, 443" /> 
<a xlink:href='javascript:parent.location.href="../../alien_game_lib/c3_t3_button_state/fsm_sm.htm"'>
<polyline id="r0"  stroke="rgb(0,255,0)" fill="rgb(0,255,0)" stroke-width="1px" stroke-dasharray="" points="1280, 481,1271, 486,1271, 476,1280, 481" /> 
</a>
<polyline id="r0"  stroke="rgb(0,0,0)" fill="none" stroke-width="1px" stroke-dasharray="" points="1280, 481,1271, 486,1271, 476,1280, 481" /> 
<a xlink:href='javascript:parent.location.href="../../alien_game_lib/c3_t3_button_state/fsm_sm.htm"'>
<polyline id="r0"  stroke="rgb(0,255,0)" fill="rgb(0,255,0)" stroke-width="1px" stroke-dasharray="" points="1464, 456,1455, 461,1455, 451,1464, 456" /> 
</a>
<polyline id="r0"  stroke="rgb(0,0,0)" fill="none" stroke-width="1px" stroke-dasharray="" points="1464, 456,1455, 461,1455, 451,1464, 456" /> 
<circle id="r0"  stroke="rgb(0,0,0)" fill="rgb(0,0,0)" stroke-width="1px" stroke-dasharray="" cx="1092" cy="6" r="5"/> 
<circle stroke="rgb(0,0,0)" fill="none" stroke-width="1px" stroke-dasharray="" cx="1092" cy="6" r="5"/> 
<circle id="r0"  stroke="rgb(0,0,0)" fill="rgb(0,0,0)" stroke-width="1px" stroke-dasharray="" cx="905" cy="6" r="5"/> 
<circle stroke="rgb(0,0,0)" fill="none" stroke-width="1px" stroke-dasharray="" cx="905" cy="6" r="5"/> 
<circle id="r0"  stroke="rgb(0,0,0)" fill="rgb(0,0,0)" stroke-width="1px" stroke-dasharray="" cx="692" cy="6" r="5"/> 
<circle stroke="rgb(0,0,0)" fill="none" stroke-width="1px" stroke-dasharray="" cx="692" cy="6" r="5"/> 
<circle id="r0"  stroke="rgb(0,0,0)" fill="rgb(0,0,0)" stroke-width="1px" stroke-dasharray="" cx="1067" cy="44" r="5"/> 
<circle stroke="rgb(0,0,0)" fill="none" stroke-width="1px" stroke-dasharray="" cx="1067" cy="44" r="5"/> 
<circle id="r0"  stroke="rgb(0,0,0)" fill="rgb(0,0,0)" stroke-width="1px" stroke-dasharray="" cx="880" cy="44" r="5"/> 
<circle stroke="rgb(0,0,0)" fill="none" stroke-width="1px" stroke-dasharray="" cx="880" cy="44" r="5"/> 
<circle id="r0"  stroke="rgb(0,0,0)" fill="rgb(0,0,0)" stroke-width="1px" stroke-dasharray="" cx="680" cy="44" r="5"/> 
<circle stroke="rgb(0,0,0)" fill="none" stroke-width="1px" stroke-dasharray="" cx="680" cy="44" r="5"/> 
<polyline id="r0"  stroke="rgb(192,192,192)" fill="rgb(192,192,192)" stroke-width="1px" stroke-dasharray="" points="393, 293,418, 281,418, 306,393, 293,393, 293" /> 
<polyline id="r0"  stroke="rgb(102,102,102)" fill="none" stroke-width="3px" stroke-dasharray="" points="393, 293,418, 281,418, 306,393, 293,393, 293" /> 
<text x="30" y="297" font-family="arial" fill="rgb(0,0,0)" font-size="10" text-anchor="end">btn_in</text>
<text x="1207" y="656" font-family="Arial" fill="rgb(0,0,128)" font-size="10" text-anchor="start">&#0060;enter comments here&#0062;</text>
<text x="0" y="0" font-family="arial" fill="rgb(0,0,0)" transform="translate(1073,355) rotate(270)" font-size="10" >clk</text>
<text x="0" y="0" font-family="arial" fill="rgb(0,0,0)" transform="translate(1085,353) rotate(270)" font-size="10" >rst</text>
<text x="1217" y="347" font-family="arial" fill="rgb(0,0,0)" font-size="10" text-anchor="end">btn_out</text>
<text x="882" y="353" font-family="arial" fill="rgb(0,0,0)" font-weight="800" font-size="10" text-anchor="start">U_2</text>
<text x="379" y="353" font-family="arial" fill="rgb(0,0,0)" font-size="10" text-anchor="start">split</text>
<text x="680" y="66" font-family="arial" fill="rgb(0,0,0)" font-weight="800" font-size="10" text-anchor="start">Package List</text>
<text x="680" y="78" font-family="arial" fill="rgb(0,0,0)" font-size="10" text-anchor="start">LIBRARY ieee;</text>
<text x="680" y="91" font-family="arial" fill="rgb(0,0,0)" font-size="10" text-anchor="start">USE ieee.std_logic_1164.all;</text>
<text x="680" y="103" font-family="arial" fill="rgb(0,0,0)" font-size="10" text-anchor="start">USE ieee.std_logic_arith.all;</text>
<text x="695" y="241" font-family="arial" fill="rgb(0,0,0)" font-weight="800" font-size="10" text-anchor="start">alien_game_lib</text>
<text x="695" y="253" font-family="arial" fill="rgb(0,0,0)" font-weight="800" font-size="10" text-anchor="start">c3_t3_button_state</text>
<text x="955" y="171" font-family="Courier New" fill="rgb(0,0,0)" font-size="10" text-anchor="start">SIGNAL btn_out4 : std_logic</text>
<text x="255" y="47" font-family="arial" fill="rgb(0,0,0)" font-size="10" text-anchor="end">clk</text>
<text x="255" y="10" font-family="arial" fill="rgb(0,0,0)" font-size="10" text-anchor="end">rst_n</text>
<text x="0" y="0" font-family="arial" fill="rgb(0,0,0)" transform="translate(679,160) rotate(270)" font-size="10" >rst_n</text>
<text x="0" y="0" font-family="arial" fill="rgb(0,0,0)" transform="translate(667,164) rotate(270)" font-size="10" >clk</text>
<text x="930" y="66" font-family="arial" fill="rgb(0,0,0)" font-weight="800" font-size="10" text-anchor="start">Declarations</text>
<text x="930" y="78" font-family="arial" fill="rgb(0,0,0)" font-weight="800" font-size="10" text-anchor="start">Ports:</text>
<text x="930" y="131" font-family="arial" fill="rgb(0,0,0)" font-weight="800" font-size="10" text-anchor="start">Diagram Signals:</text>
<text x="955" y="108" font-family="Courier New" fill="rgb(0,0,0)" font-size="10" text-anchor="start">rst_n    : std_logic</text>
<text x="955" y="118" font-family="Courier New" fill="rgb(0,0,0)" font-size="10" text-anchor="start">btn_out  : std_logic_vector(3 DOWN TO 0)</text>
<text x="955" y="98" font-family="Courier New" fill="rgb(0,0,0)" font-size="10" text-anchor="start">clk      : std_logic</text>
<text x="955" y="88" font-family="Courier New" fill="rgb(0,0,0)" font-size="10" text-anchor="start">btn_in   : std_logic_vector(3 DOWN TO 0)</text>
<text x="955" y="141" font-family="Courier New" fill="rgb(0,0,0)" font-size="10" text-anchor="start">SIGNAL btn_out1 : std_logic</text>
<text x="955" y="151" font-family="Courier New" fill="rgb(0,0,0)" font-size="10" text-anchor="start">SIGNAL btn_out2 : std_logic</text>
<text x="955" y="161" font-family="Courier New" fill="rgb(0,0,0)" font-size="10" text-anchor="start">SIGNAL btn_out3 : std_logic</text>
<text x="695" y="266" font-family="arial" fill="rgb(0,0,0)" font-weight="800" font-size="10" text-anchor="start">U_0</text>
<text x="0" y="0" font-family="arial" fill="rgb(0,0,0)" transform="translate(673,205) rotate(270)" font-size="10" >clk</text>
<text x="0" y="0" font-family="arial" fill="rgb(0,0,0)" transform="translate(685,203) rotate(270)" font-size="10" >rst</text>
<text x="668" y="222" font-family="arial" fill="rgb(0,0,0)" font-size="10" text-anchor="start">btn_in</text>
<text x="388" y="305" font-family="arial" fill="rgb(0,0,0)" font-size="10" text-anchor="middle">msb</text>
<text x="390" y="287" font-family="arial" fill="rgb(0,0,0)" font-size="10" text-anchor="middle">lsb</text>
<text x="817" y="197" font-family="arial" fill="rgb(0,0,0)" font-size="10" text-anchor="end">btn_out</text>
<text x="882" y="328" font-family="arial" fill="rgb(0,0,0)" font-weight="800" font-size="10" text-anchor="start">alien_game_lib</text>
<text x="882" y="341" font-family="arial" fill="rgb(0,0,0)" font-weight="800" font-size="10" text-anchor="start">c3_t3_button_state</text>
<text x="0" y="0" font-family="arial" fill="rgb(0,0,0)" transform="translate(873,268) rotate(270)" font-size="10" >clk</text>
<text x="0" y="0" font-family="arial" fill="rgb(0,0,0)" transform="translate(898,266) rotate(270)" font-size="10" >rst</text>
<text x="867" y="285" font-family="arial" fill="rgb(0,0,0)" font-size="10" text-anchor="start">btn_in</text>
<text x="1017" y="260" font-family="arial" fill="rgb(0,0,0)" font-size="10" text-anchor="end">btn_out</text>
<text x="955" y="181" font-family="Courier New" fill="rgb(0,0,0)" font-size="10" text-anchor="start">SIGNAL dout0    : std_logic</text>
<text x="955" y="201" font-family="Courier New" fill="rgb(0,0,0)" font-size="10" text-anchor="start">SIGNAL dout2    : std_logic</text>
<text x="955" y="191" font-family="Courier New" fill="rgb(0,0,0)" font-size="10" text-anchor="start">SIGNAL dout1    : std_logic</text>
<text x="955" y="211" font-family="Courier New" fill="rgb(0,0,0)" font-size="10" text-anchor="start">SIGNAL dout3    : std_logic</text>
<text x="0" y="0" font-family="arial" fill="rgb(0,0,0)" transform="translate(1079,310) rotate(270)" font-size="10" >rst_n</text>
<text x="0" y="0" font-family="arial" fill="rgb(0,0,0)" transform="translate(892,223) rotate(270)" font-size="10" >rst_n</text>
<text x="1055" y="319" font-family="arial" fill="rgb(0,0,0)" font-size="10" text-anchor="start">clk</text>
<text x="0" y="0" font-family="arial" fill="rgb(0,0,0)" transform="translate(867,227) rotate(270)" font-size="10" >clk</text>
<text x="864" y="191" font-family="arial" fill="rgb(0,0,0)" font-size="10" text-anchor="start">btn_out1</text>
<text x="1064" y="253" font-family="arial" fill="rgb(0,0,0)" font-size="10" text-anchor="start">btn_out2</text>
<text x="1264" y="341" font-family="arial" fill="rgb(0,0,0)" font-size="10" text-anchor="start">btn_out3</text>
<text x="995" y="691" font-family="Arial" fill="rgb(0,0,128)" font-size="10" text-anchor="start">by ACER on 29 May 2020</text>
<text x="1207" y="641" font-family="Arial" fill="rgb(0,0,128)" font-size="10" text-anchor="start">Project:</text>
<text x="995" y="666" font-family="Arial" fill="rgb(0,0,128)" font-size="10" text-anchor="start">&#0060;enter diagram title here&#0062;</text>
<text x="945" y="666" font-family="Arial" fill="rgb(0,0,128)" font-size="10" text-anchor="start">Title:</text>
<text x="1074" y="647" font-family="Arial" fill="rgb(127,0,0)" font-size="10" text-anchor="middle">&#0060;company name&#0062;</text>
<text x="945" y="678" font-family="Arial" fill="rgb(0,0,128)" font-size="10" text-anchor="start">Path:</text>
<text x="945" y="691" font-family="Arial" fill="rgb(0,0,128)" font-size="10" text-anchor="start">Edited:</text>
<text x="995" y="678" font-family="Arial" fill="rgb(0,0,128)" font-size="10" text-anchor="start">alien_game_lib/c3_t3_button_debounce/struct</text>
<text x="1107" y="378" font-family="arial" fill="rgb(0,0,0)" font-weight="800" font-size="10" text-anchor="start">alien_game_lib</text>
<text x="1107" y="391" font-family="arial" fill="rgb(0,0,0)" font-weight="800" font-size="10" text-anchor="start">c3_t3_button_state</text>
<text x="1107" y="403" font-family="arial" fill="rgb(0,0,0)" font-weight="800" font-size="10" text-anchor="start">U_1</text>
<text x="1067" y="372" font-family="arial" fill="rgb(0,0,0)" font-size="10" text-anchor="start">btn_in</text>
<text x="379" y="366" font-family="arial" fill="rgb(0,0,0)" font-size="10" text-anchor="start">U_4</text>
<text x="2242" y="397" font-family="arial" fill="rgb(0,0,0)" font-size="10" text-anchor="start">btn_out</text>
<text x="1257" y="641" font-family="Arial" fill="rgb(0,0,128)" font-size="10" text-anchor="start">alien_game</text>
<text x="1345" y="541" font-family="arial" fill="rgb(0,0,0)" font-weight="800" font-size="10" text-anchor="start">alien_game_lib</text>
<text x="1345" y="553" font-family="arial" fill="rgb(0,0,0)" font-weight="800" font-size="10" text-anchor="start">c3_t3_button_state</text>
<text x="1345" y="566" font-family="arial" fill="rgb(0,0,0)" font-weight="800" font-size="10" text-anchor="start">U_3</text>
<text x="0" y="0" font-family="arial" fill="rgb(0,0,0)" transform="translate(1298,468) rotate(270)" font-size="10" >clk</text>
<text x="0" y="0" font-family="arial" fill="rgb(0,0,0)" transform="translate(1310,466) rotate(270)" font-size="10" >rst</text>
<text x="1292" y="485" font-family="arial" fill="rgb(0,0,0)" font-size="10" text-anchor="start">btn_in</text>
<text x="1442" y="460" font-family="arial" fill="rgb(0,0,0)" font-size="10" text-anchor="end">btn_out</text>
<text x="1841" y="453" font-family="arial" fill="rgb(0,0,0)" font-size="10" text-anchor="start">merge</text>
<text x="1841" y="466" font-family="arial" fill="rgb(0,0,0)" font-size="10" text-anchor="start">U_5</text>
<text x="1860" y="389" font-family="arial" fill="rgb(0,0,0)" font-size="10" text-anchor="middle">lsb</text>
<text x="1860" y="404" font-family="arial" fill="rgb(0,0,0)" font-size="10" text-anchor="middle">msb</text>
<text x="1489" y="453" font-family="arial" fill="rgb(0,0,0)" font-size="10" text-anchor="start">btn_out4</text>
<g id="btn_in_net" stroke="rgb(0,0,0)" stroke-width="3px"  >
<polyline id="r0"  fill="none"  stroke-dasharray="" points="68, 293,368, 293" /> 
</g>
<g id="btn_out_net" stroke="rgb(0,0,0)" stroke-width="3px"  >
<polyline id="r0"  fill="none"  stroke-dasharray="" points="1880, 393,2205, 393" /> 
</g>
<g id="btn_out1_net" stroke="rgb(0,0,0)" stroke-width="1px"  >
<polyline id="r0"  fill="none"  stroke-dasharray="" points="839, 193,1830, 193,1830, 356" /> 
</g>
<g id="btn_out2_net" stroke="rgb(0,0,0)" stroke-width="1px"  >
<polyline id="r0"  fill="none"  stroke-dasharray="" points="1039, 256,1380, 256,1380, 381,1830, 381" /> 
</g>
<g id="btn_out3_net" stroke="rgb(0,0,0)" stroke-width="1px"  >
<polyline id="r0"  fill="none"  stroke-dasharray="" points="1239, 343,1680, 343,1680, 356,1830, 356,1830, 406" /> 
</g>
<g id="btn_out4_net" stroke="rgb(0,0,0)" stroke-width="1px"  >
<polyline id="r0"  fill="none"  stroke-dasharray="" points="1464, 456,1830, 456,1830, 431" /> 
</g>
<g id="clk_net" stroke="rgb(0,0,0)" stroke-width="1px"  >
<polyline id="r0"  fill="none"  stroke-dasharray="" points="293, 44,1292, 44,1292, 434,1305, 434" /> 
<polyline id="r0"  fill="none"  stroke-dasharray="" points="1067, 44,1067, 322,1080, 322" /> 
<polyline id="r0"  fill="none"  stroke-dasharray="" points="880, 44,880, 234" /> 
<polyline id="r0"  fill="none"  stroke-dasharray="" points="680, 44,680, 172" /> 
</g>
<g id="dout0_net" stroke="rgb(0,0,0)" stroke-width="1px"  >
<polyline id="r0"  fill="none"  stroke-dasharray="" points="418, 256,646, 256,646, 218" /> 
</g>
<g id="dout1_net" stroke="rgb(0,0,0)" stroke-width="1px"  >
<polyline id="r0"  fill="none"  stroke-dasharray="" points="418, 281,846, 281" /> 
</g>
<g id="dout2_net" stroke="rgb(0,0,0)" stroke-width="1px"  >
<polyline id="r0"  fill="none"  stroke-dasharray="" points="418, 306,830, 306,830, 368,1046, 368" /> 
</g>
<g id="dout3_net" stroke="rgb(0,0,0)" stroke-width="1px"  >
<polyline id="r0"  fill="none"  stroke-dasharray="" points="418, 331,792, 331,792, 493,1271, 493,1271, 481" /> 
</g>
<g id="rst_n_net" stroke="rgb(0,0,0)" stroke-width="1px"  >
<polyline id="r0"  fill="none"  stroke-dasharray="" points="293, 6,1317, 6,1317, 434" /> 
<polyline id="r0"  fill="none"  stroke-dasharray="" points="1092, 6,1092, 322" /> 
<polyline id="r0"  fill="none"  stroke-dasharray="" points="905, 6,905, 234" /> 
<polyline id="r0"  fill="none"  stroke-dasharray="" points="692, 6,692, 172" /> 
</g>
</g>
</svg>
<!-- Create a "titlebox" group so we can reposition it when the SVG moves -->
<g id="titlebox">
<g id="genTime" class="allText normalText">
  <text class="allText smallText" x="300" y="123">Generated on: 05/29/2020 at: 10:20 PM</text>
</g>

<rect stroke="none" fill="rgb(200,230,240)" opacity="0.4" y="112" x="0" width="914" height="15" />
<!-- Close the "titlebox" group -->
</g>

</g>
</svg>
