<?xml version="1.0" encoding="UTF-8"?>
<!DOCTYPE svg PUBLIC "-//W3C//DTD SVG 1.1//EN" "http://www.w3.org/Graphics/SVG/1.1/DTD/svg11.dtd">
<!-- Created HDS 2004.1a -->


<svg xmlns="http://www.w3.org/2000/svg" xmlns:xlink="http://www.w3.org/1999/xlink" version="1.1">
<script xlink:href="../../scripts/SVGPan.js" />
<g id="viewport" transform="translate(0,-100)">


<title>SVG Image</title>
<desc></desc>


<defs>
<!-- section for CSS stylesheet definitions -->
<style type="text/css"><![CDATA[
.allText {font-family:Sans-Serif;fill:darkcyan;}
.subTitleText {font-size:20;font-weight:bold;}
.normalText {font-size:15;}
.smallText {font-size:12;}
.boldText {font-weight:bold;}
.rightText {text-anchor:end;}
.centerText {text-anchor:middle;}
.dragRect {fill:darkcyan;stroke:none;opacity:0.4;}
]]></style>
<symbol id="upArrow" overflow="visible" style="stroke:darkcyan;fill:darkcyan;stroke-width:1;" pointer-events="none">
<polygon points="5,0 10,5 0,5 5,0" />
</symbol>
<symbol id="leftArrow" overflow="visible" style="stroke:darkcyan;fill:darkcyan;stroke-width:1;" pointer-events="none">
<polygon points="0,5 5,0 5,10 0,5" />
</symbol>
<symbol id="rightArrow" overflow="visible" style="stroke:darkcyan;fill:darkcyan;stroke-width:1;" pointer-events="none">
<polygon points="5,0 10,5 5,10 5,0" />
</symbol>
<symbol id="downArrow" overflow="visible" style="stroke:darkcyan;fill:darkcyan;stroke-width:1;" pointer-events="none">
<polygon points="0,0 5,5 10,0 0,0" />
</symbol>

</defs>
<svg id="mainMap" x="0" y="150" viewBox="0 0 855 629" width="912" height="512">


<clipPath id="SVG_Clip">
<rect x="0" y="0" width="855" height="629" />
</clipPath>
<g id="hds_models" style="clip-path:url(#SVG_Clip)">
<circle id="r0"  stroke="rgb(0,255,255)" fill="rgb(0,255,255)" stroke-width="1px" stroke-dasharray="" cx="438" cy="212" r="37"/> 
<circle stroke="rgb(0,127,191)" fill="none" stroke-width="3px" stroke-dasharray="" cx="438" cy="212" r="37"/> 
<polyline id="r0"  stroke="rgb(255,255,0)" fill="rgb(255,255,0)" stroke-width="1px" stroke-dasharray="" points="41, 143,59, 143,69, 149,59, 156,41, 156,41, 143" /> 
<polyline id="r0"  stroke="rgb(0,0,0)" fill="none" stroke-width="1px" stroke-dasharray="" points="41, 143,59, 143,69, 149,59, 156,41, 156,41, 143" /> 
<path stroke="rgb(0,0,0)" fill="none" stroke-width="1px" stroke-dasharray="" transform="translate(45,149) rotate(0.000000)"
d="M 1.27840 1.53808 A 2 2 0 1 1 1.27840 -1.53808 " /> 
<polyline id="r0"  stroke="rgb(255,255,0)" fill="rgb(255,255,0)" stroke-width="1px" stroke-dasharray="" points="41, 143,59, 143,69, 149,59, 156,41, 156,41, 143" /> 
<polyline id="r0"  stroke="rgb(0,0,0)" fill="none" stroke-width="1px" stroke-dasharray="" points="41, 143,59, 143,69, 149,59, 156,41, 156,41, 143" /> 
<polyline id="r0"  stroke="rgb(0,0,0)" fill="none" stroke-width="1px" stroke-dasharray="" points="52, 153,56, 153,56, 146,59, 146" /> 
<path stroke="rgb(0,0,0)" fill="none" stroke-width="1px" stroke-dasharray="" transform="translate(45,149) rotate(0.000000)"
d="M 1.27840 1.53808 A 2 2 0 1 1 1.27840 -1.53808 " /> 
<polyline id="r0"  stroke="rgb(255,255,0)" fill="rgb(255,255,0)" stroke-width="1px" stroke-dasharray="" points="41, 256,59, 256,69, 262,59, 268,41, 268,41, 256" /> 
<polyline id="r0"  stroke="rgb(0,0,0)" fill="none" stroke-width="1px" stroke-dasharray="" points="41, 256,59, 256,69, 262,59, 268,41, 268,41, 256" /> 
<polyline id="r0"  stroke="rgb(255,255,0)" fill="rgb(255,255,0)" stroke-width="1px" stroke-dasharray="" points="41, 256,59, 256,69, 262,59, 268,41, 268,41, 256" /> 
<polyline id="r0"  stroke="rgb(0,0,0)" fill="none" stroke-width="1px" stroke-dasharray="" points="41, 256,59, 256,69, 262,59, 268,41, 268,41, 256" /> 
<polyline id="r0"  stroke="rgb(0,0,0)" fill="none" stroke-width="1px" stroke-dasharray="" points="59, 266,56, 266,56, 258,52, 258" /> 
<polyline id="r0"  stroke="rgb(0,0,0)" fill="none" stroke-width="1px" stroke-dasharray="" points="44, 260,45, 260" /> 
<polyline id="r0"  stroke="rgb(0,0,0)" fill="none" stroke-width="1px" stroke-dasharray="" points="44, 264,44, 260" /> 
<polyline id="r0"  stroke="rgb(255,255,0)" fill="rgb(255,255,0)" stroke-width="1px" stroke-dasharray="" points="212, 256,231, 256,241, 262,231, 268,212, 268,212, 256" /> 
<polyline id="r0"  stroke="rgb(0,0,0)" fill="none" stroke-width="1px" stroke-dasharray="" points="212, 256,231, 256,241, 262,231, 268,212, 268,212, 256" /> 
<polyline id="r0"  stroke="rgb(255,255,0)" fill="rgb(255,255,0)" stroke-width="1px" stroke-dasharray="" points="212, 256,231, 256,241, 262,231, 268,212, 268,212, 256" /> 
<polyline id="r0"  stroke="rgb(0,0,0)" fill="none" stroke-width="1px" stroke-dasharray="" points="212, 256,231, 256,241, 262,231, 268,212, 268,212, 256" /> 
<polyline id="r0"  stroke="rgb(0,0,0)" fill="none" stroke-width="1px" stroke-dasharray="" points="206, 262,212, 262" /> 
<circle id="r0"  stroke="rgb(255,0,0)" fill="rgb(255,0,0)" stroke-width="1px" stroke-dasharray="" cx="52" cy="199" r="11"/> 
<circle stroke="rgb(0,0,0)" fill="none" stroke-width="1px" stroke-dasharray="" cx="52" cy="199" r="11"/> 
<circle id="r0"  stroke="rgb(255,0,0)" fill="rgb(255,0,0)" stroke-width="1px" stroke-dasharray="" cx="52" cy="199" r="11"/> 
<circle stroke="rgb(0,0,0)" fill="none" stroke-width="1px" stroke-dasharray="" cx="52" cy="199" r="11"/> 
<polyline id="r0"  stroke="rgb(255,255,0)" fill="none" stroke-width="2px" stroke-dasharray="" points="47, 205,57, 194" /> 
<polyline id="r0"  stroke="rgb(255,255,0)" fill="none" stroke-width="2px" stroke-dasharray="" points="57, 205,47, 194" /> 
<polyline id="r0"  stroke="rgb(255,255,0)" fill="rgb(255,255,0)" stroke-width="1px" stroke-dasharray="" points="212, 193,231, 193,241, 199,231, 206,212, 206,212, 193" /> 
<polyline id="r0"  stroke="rgb(0,0,0)" fill="none" stroke-width="1px" stroke-dasharray="" points="212, 193,231, 193,241, 199,231, 206,212, 206,212, 193" /> 
<polyline id="r0"  stroke="rgb(255,255,0)" fill="rgb(255,255,0)" stroke-width="1px" stroke-dasharray="" points="212, 193,231, 193,241, 199,231, 206,212, 206,212, 193" /> 
<polyline id="r0"  stroke="rgb(0,0,0)" fill="none" stroke-width="1px" stroke-dasharray="" points="212, 193,231, 193,241, 199,231, 206,212, 206,212, 193" /> 
<polyline id="r0"  stroke="rgb(0,0,0)" fill="none" stroke-width="1px" stroke-dasharray="" points="206, 199,212, 199" /> 
<rect id="r0"  stroke="rgb(254,254,179)" fill="rgb(254,254,179)" stroke-width="1px" stroke-dasharray="" y="612px" x="387px" width="213px" height="12px" rx="0" ry="0" />
<rect id="r0"  stroke="rgb(0,0,0)" fill="none" stroke-width="1px" stroke-dasharray="" y="612px" x="387px" width="213px" height="12px" rx="0" ry="0" />
<rect id="r0"  stroke="rgb(254,254,179)" fill="rgb(254,254,179)" stroke-width="1px" stroke-dasharray="" y="562px" x="600px" width="50px" height="12px" rx="0" ry="0" />
<rect id="r0"  stroke="rgb(0,0,0)" fill="none" stroke-width="1px" stroke-dasharray="" y="562px" x="600px" width="50px" height="12px" rx="0" ry="0" />
<rect id="r0"  stroke="rgb(254,254,179)" fill="rgb(254,254,179)" stroke-width="1px" stroke-dasharray="" y="587px" x="387px" width="213px" height="12px" rx="0" ry="0" />
<rect id="r0"  stroke="rgb(0,0,0)" fill="none" stroke-width="1px" stroke-dasharray="" y="587px" x="387px" width="213px" height="12px" rx="0" ry="0" />
<rect id="r0"  stroke="rgb(254,254,179)" fill="rgb(254,254,179)" stroke-width="1px" stroke-dasharray="" y="587px" x="337px" width="50px" height="12px" rx="0" ry="0" />
<rect id="r0"  stroke="rgb(0,0,0)" fill="none" stroke-width="1px" stroke-dasharray="" y="587px" x="337px" width="50px" height="12px" rx="0" ry="0" />
<rect id="r0"  stroke="rgb(254,254,179)" fill="rgb(254,254,179)" stroke-width="1px" stroke-dasharray="" y="574px" x="600px" width="250px" height="50px" rx="0" ry="0" />
<rect id="r0"  stroke="rgb(0,0,0)" fill="none" stroke-width="1px" stroke-dasharray="" y="574px" x="600px" width="250px" height="50px" rx="0" ry="0" />
<rect id="r0"  stroke="rgb(254,254,179)" fill="rgb(254,254,179)" stroke-width="1px" stroke-dasharray="" y="562px" x="650px" width="200px" height="12px" rx="0" ry="0" />
<rect id="r0"  stroke="rgb(0,0,0)" fill="none" stroke-width="1px" stroke-dasharray="" y="562px" x="650px" width="200px" height="12px" rx="0" ry="0" />
<rect id="r0"  stroke="rgb(254,254,179)" fill="rgb(254,254,179)" stroke-width="1px" stroke-dasharray="" y="562px" x="337px" width="263px" height="25px" rx="0" ry="0" />
<rect id="r0"  stroke="rgb(0,0,0)" fill="none" stroke-width="1px" stroke-dasharray="" y="562px" x="337px" width="263px" height="25px" rx="0" ry="0" />
<rect id="r0"  stroke="rgb(254,254,179)" fill="rgb(254,254,179)" stroke-width="1px" stroke-dasharray="" y="599px" x="337px" width="50px" height="13px" rx="0" ry="0" />
<rect id="r0"  stroke="rgb(0,0,0)" fill="none" stroke-width="1px" stroke-dasharray="" y="599px" x="337px" width="50px" height="13px" rx="0" ry="0" />
<rect id="r0"  stroke="rgb(254,254,179)" fill="rgb(254,254,179)" stroke-width="1px" stroke-dasharray="" y="612px" x="337px" width="50px" height="12px" rx="0" ry="0" />
<rect id="r0"  stroke="rgb(0,0,0)" fill="none" stroke-width="1px" stroke-dasharray="" y="612px" x="337px" width="50px" height="12px" rx="0" ry="0" />
<rect id="r0"  stroke="rgb(254,254,179)" fill="rgb(254,254,179)" stroke-width="1px" stroke-dasharray="" y="599px" x="387px" width="213px" height="13px" rx="0" ry="0" />
<rect id="r0"  stroke="rgb(0,0,0)" fill="none" stroke-width="1px" stroke-dasharray="" y="599px" x="387px" width="213px" height="13px" rx="0" ry="0" />
<circle id="r0"  stroke="rgb(0,255,255)" fill="rgb(0,255,255)" stroke-width="1px" stroke-dasharray="" cx="568" cy="485" r="37"/> 
<circle stroke="rgb(0,127,191)" fill="none" stroke-width="3px" stroke-dasharray="" cx="568" cy="485" r="37"/> 
<circle id="r0"  stroke="rgb(0,255,255)" fill="rgb(0,255,255)" stroke-width="1px" stroke-dasharray="" cx="396" cy="523" r="37"/> 
<circle stroke="rgb(0,127,191)" fill="none" stroke-width="3px" stroke-dasharray="" cx="396" cy="523" r="37"/> 
<polyline id="r0"  stroke="rgb(0,255,255)" fill="rgb(0,255,255)" stroke-width="1px" stroke-dasharray="" points="583, 283,639, 283,655, 299,655, 355,639, 371,583, 371,567, 355,567, 299,583, 283" /> 
<polyline id="r0"  stroke="rgb(102,102,102)" fill="none" stroke-width="2px" stroke-dasharray="" points="583, 283,639, 283,655, 299,655, 355,639, 371,583, 371,567, 355,567, 299,583, 283" /> 
<circle id="r0"  stroke="rgb(0,255,255)" fill="rgb(0,255,255)" stroke-width="1px" stroke-dasharray="" cx="610" cy="326" r="37"/> 
<circle stroke="rgb(102,102,102)" fill="none" stroke-width="3px" stroke-dasharray="" cx="610" cy="326" r="37"/> 
<polyline id="r0"  stroke="rgb(0,255,255)" fill="rgb(0,255,255)" stroke-width="1px" stroke-dasharray="" points="282, 322,338, 322,354, 338,354, 394,338, 410,282, 410,266, 394,266, 338,282, 322" /> 
<polyline id="r0"  stroke="rgb(102,102,102)" fill="none" stroke-width="2px" stroke-dasharray="" points="282, 322,338, 322,354, 338,354, 394,338, 410,282, 410,266, 394,266, 338,282, 322" /> 
<circle id="r0"  stroke="rgb(0,255,255)" fill="rgb(0,255,255)" stroke-width="1px" stroke-dasharray="" cx="309" cy="365" r="37"/> 
<circle stroke="rgb(102,102,102)" fill="none" stroke-width="3px" stroke-dasharray="" cx="309" cy="365" r="37"/> 
<polyline id="r0"  stroke="rgb(0,0,0)" fill="none" stroke-width="1px" stroke-dasharray="" points="52, 153,56, 153,56, 146,59, 146" /> 
<polyline id="r0"  stroke="rgb(0,0,0)" fill="none" stroke-width="1px" stroke-dasharray="" points="59, 266,56, 266,56, 258,52, 258" /> 
<polyline id="r0"  stroke="rgb(0,0,0)" fill="none" stroke-width="1px" stroke-dasharray="" points="44, 260,45, 260" /> 
<polyline id="r0"  stroke="rgb(0,0,0)" fill="none" stroke-width="1px" stroke-dasharray="" points="44, 264,44, 260" /> 
<polyline id="r0"  stroke="rgb(0,0,0)" fill="none" stroke-width="1px" stroke-dasharray="" points="206, 262,212, 262" /> 
<polyline id="r0"  stroke="rgb(255,255,0)" fill="none" stroke-width="2px" stroke-dasharray="" points="47, 205,57, 194" /> 
<polyline id="r0"  stroke="rgb(255,255,0)" fill="none" stroke-width="2px" stroke-dasharray="" points="57, 205,47, 194" /> 
<polyline id="r0"  stroke="rgb(0,0,0)" fill="none" stroke-width="1px" stroke-dasharray="" points="206, 199,212, 199" /> 
<polyline id="r0"  stroke="rgb(0,0,0)" fill="none" stroke-width="1px" stroke-dasharray="" points="69, 262,206, 262" /> 
<polyline id="r0"  stroke="rgb(0,0,0)" fill="none" stroke-width="1px" stroke-dasharray="" points="63, 199,206, 199" /> 
<polyline id="r0"  stroke="rgb(0,0,0)" fill="none" stroke-width="1px" stroke-dasharray="" points="602, 371,584, 451" /> 
<polyline id="r0"  stroke="rgb(0,0,0)" fill="rgb(0,0,0)" stroke-width="1px" stroke-dasharray="" points="582, 443,588, 445,584, 451" /> 
<polyline id="r0"  stroke="rgb(0,0,0)" fill="none" stroke-width="1px" stroke-dasharray="" points="469, 232,567, 301" /> 
<polyline id="r0"  stroke="rgb(0,0,0)" fill="rgb(0,0,0)" stroke-width="1px" stroke-dasharray="" points="560, 299,563, 294,567, 301" /> 
<polyline id="r0"  stroke="rgb(0,0,0)" fill="none" stroke-width="1px" stroke-dasharray="" points="539, 509,433, 526" /> 
<polyline id="r0"  stroke="rgb(0,0,0)" fill="rgb(0,0,0)" stroke-width="1px" stroke-dasharray="" points="439, 521,440, 528,433, 526" /> 
<polyline id="r0"  stroke="rgb(0,0,0)" fill="none" stroke-width="1px" stroke-dasharray="" points="377, 490,334, 410" /> 
<polyline id="r0"  stroke="rgb(0,0,0)" fill="rgb(0,0,0)" stroke-width="1px" stroke-dasharray="" points="340, 415,335, 418,334, 410" /> 
<polyline id="r0"  stroke="rgb(0,0,0)" fill="none" stroke-width="1px" stroke-dasharray="" points="320, 322,406, 232" /> 
<polyline id="r0"  stroke="rgb(0,0,0)" fill="rgb(0,0,0)" stroke-width="1px" stroke-dasharray="" points="403, 239,399, 235,406, 232" /> 
<polyline id="r0"  stroke="rgb(0,0,0)" fill="none" stroke-width="1px" stroke-dasharray="" points="306, 410,360, 510" /> 
<polyline id="r0"  stroke="rgb(0,0,0)" fill="rgb(0,0,0)" stroke-width="1px" stroke-dasharray="" points="354, 506,359, 503,360, 510" /> 
<rect id="r0"  stroke="rgb(255,255,255)" fill="rgb(255,255,255)" stroke-width="1px" stroke-dasharray="" y="142px" x="69px" width="125px" height="15px" rx="0" ry="0" />
<rect id="r0"  stroke="rgb(0,127,191)" fill="none" stroke-width="1px" stroke-dasharray="" y="142px" x="69px" width="125px" height="15px" rx="0" ry="0" />
<rect id="r0"  stroke="rgb(255,255,255)" fill="rgb(255,255,255)" stroke-width="1px" stroke-dasharray="" y="249px" x="112px" width="50px" height="25px" rx="0" ry="0" />
<rect id="r0"  stroke="rgb(0,127,191)" fill="none" stroke-width="1px" stroke-dasharray="" y="249px" x="112px" width="50px" height="25px" rx="0" ry="0" />
<rect id="r0"  stroke="rgb(255,255,255)" fill="rgb(255,255,255)" stroke-width="1px" stroke-dasharray="" y="406px" x="587px" width="62px" height="24px" rx="0" ry="0" />
<rect id="r0"  stroke="rgb(0,127,191)" fill="none" stroke-width="3px" stroke-dasharray="" y="406px" x="587px" width="62px" height="24px" rx="0" ry="0" />
<rect id="r0"  stroke="rgb(255,255,255)" fill="rgb(255,255,255)" stroke-width="1px" stroke-dasharray="" y="253px" x="490px" width="69px" height="25px" rx="0" ry="0" />
<rect id="r0"  stroke="rgb(0,127,191)" fill="none" stroke-width="1px" stroke-dasharray="" y="253px" x="490px" width="69px" height="25px" rx="0" ry="0" />
<rect id="r0"  stroke="rgb(255,255,255)" fill="rgb(255,255,255)" stroke-width="1px" stroke-dasharray="" y="444px" x="349px" width="69px" height="25px" rx="0" ry="0" />
<rect id="r0"  stroke="rgb(0,127,191)" fill="none" stroke-width="1px" stroke-dasharray="" y="444px" x="349px" width="69px" height="25px" rx="0" ry="0" />
<rect id="r0"  stroke="rgb(255,255,255)" fill="rgb(255,255,255)" stroke-width="1px" stroke-dasharray="" y="279px" x="308px" width="152px" height="24px" rx="0" ry="0" />
<rect id="r0"  stroke="rgb(0,127,191)" fill="none" stroke-width="3px" stroke-dasharray="" y="279px" x="308px" width="152px" height="24px" rx="0" ry="0" />
<circle id="r0"  stroke="rgb(255,255,255)" fill="rgb(255,255,255)" stroke-width="1px" stroke-dasharray="" cx="328" cy="313" r="9"/> 
<circle stroke="rgb(0,0,0)" fill="none" stroke-width="1px" stroke-dasharray="" cx="328" cy="313" r="9"/> 
<rect id="r0"  stroke="rgb(255,255,255)" fill="rgb(255,255,255)" stroke-width="1px" stroke-dasharray="" y="474px" x="238px" width="151px" height="24px" rx="0" ry="0" />
<rect id="r0"  stroke="rgb(0,127,191)" fill="none" stroke-width="3px" stroke-dasharray="" y="474px" x="238px" width="151px" height="24px" rx="0" ry="0" />
<circle id="r0"  stroke="rgb(255,255,255)" fill="rgb(255,255,255)" stroke-width="1px" stroke-dasharray="" cx="311" cy="420" r="9"/> 
<circle stroke="rgb(0,0,0)" fill="none" stroke-width="1px" stroke-dasharray="" cx="311" cy="420" r="9"/> 
<text x="0" y="59" font-family="arial" fill="rgb(0,0,0)" font-weight="800" font-size="10" text-anchor="start">Package List</text>
<text x="0" y="72" font-family="arial" fill="rgb(0,0,0)" font-size="10" text-anchor="start">LIBRARY ieee;</text>
<text x="0" y="84" font-family="arial" fill="rgb(0,0,0)" font-size="10" text-anchor="start">USE ieee.std_logic_1164.all;</text>
<text x="0" y="97" font-family="arial" fill="rgb(0,0,0)" font-size="10" text-anchor="start">USE ieee.std_logic_arith.all;</text>
<text x="276" y="10" font-family="arial" fill="rgb(0,0,0)" font-weight="800" font-size="10" text-anchor="start">Architecture Declarations</text>
<text x="276" y="22" font-family="arial" fill="rgb(0,0,0)" font-weight="800" font-size="10" text-anchor="start">Pre Decls</text>
<text x="276" y="34" font-family="arial" fill="rgb(0,0,0)" font-weight="800" font-size="10" text-anchor="start">Post Decls</text>
<text x="0" y="10" font-family="arial" fill="rgb(0,0,0)" font-weight="800" font-size="10" text-anchor="start">Global Actions</text>
<text x="0" y="22" font-family="arial" fill="rgb(0,0,0)" font-weight="800" font-size="10" text-anchor="start">Pre Actions:</text>
<text x="0" y="34" font-family="arial" fill="rgb(0,0,0)" font-weight="800" font-size="10" text-anchor="start">Post Actions:</text>
<text x="115" y="10" font-family="arial" fill="rgb(0,0,0)" font-weight="800" font-size="10" text-anchor="start">Concurrent Statements</text>
<text x="726" y="10" font-family="arial" fill="rgb(0,0,0)" font-weight="800" font-size="10" text-anchor="start">Process Declarations</text>
<text x="726" y="22" font-family="arial" fill="rgb(0,0,0)" font-weight="800" font-size="10" text-anchor="start">Clocked Process:</text>
<text x="726" y="34" font-family="arial" fill="rgb(0,0,0)" font-weight="800" font-size="10" text-anchor="start">Output Process:</text>
<text x="554" y="10" font-family="arial" fill="rgb(0,0,0)" font-weight="800" font-size="10" text-anchor="start">State Register Statements</text>
<text x="445" y="10" font-family="arial" fill="rgb(0,0,0)" font-weight="800" font-size="10" text-anchor="start">Signal Status</text>
<text x="445" y="19" font-family="Courier New" fill="rgb(0,0,0)" font-size="10" text-anchor="start">SIGNAL   MODE    DEFAULT  RESET  SCHEME COMMENT  </text>
<text x="445" y="29" font-family="Courier New" fill="rgb(0,0,0)" font-size="10" text-anchor="start">btn_out  OUT     '0'             COMB            </text>
<text x="34" y="153" font-family="arial" fill="rgb(0,0,0)" font-size="10" text-anchor="end">clk</text>
<text x="70" y="153" font-family="arial" fill="rgb(0,0,0)" font-size="10" text-anchor="start">clk'EVENT AND clk = '1'</text>
<text x="247" y="203" font-family="arial" fill="rgb(0,0,0)" font-weight="800" font-size="10" text-anchor="start">s0</text>
<text x="437" y="217" font-family="arial" fill="rgb(0,0,0)" font-weight="800" font-size="12" text-anchor="middle">s0</text>
<text x="41" y="266" font-family="arial" fill="rgb(0,0,0)" font-size="10" text-anchor="end">rst</text>
<text x="247" y="266" font-family="arial" fill="rgb(0,0,0)" font-weight="800" font-size="10" text-anchor="start">s0</text>
<text x="611" y="342" font-family="arial" fill="rgb(0,0,0)" font-weight="800" font-size="12" text-anchor="middle">s1</text>
<text x="589" y="322" font-family="arial" fill="rgb(0,0,128)" font-weight="800" font-size="12" text-anchor="start">wait 9999</text>
<text x="310" y="381" font-family="arial" fill="rgb(0,0,0)" font-weight="800" font-size="12" text-anchor="middle">s4</text>
<text x="288" y="361" font-family="arial" fill="rgb(0,0,128)" font-weight="800" font-size="12" text-anchor="start">wait 9999</text>
<text x="119" y="259" font-family="arial" fill="rgb(0,0,0)" font-size="10" text-anchor="start">rst = '0'</text>
<text x="593" y="421" font-family="arial" fill="rgb(0,0,0)" font-size="10" text-anchor="start">TIMEOUT</text>
<text x="497" y="270" font-family="arial" fill="rgb(0,0,0)" font-size="10" text-anchor="start">btn_in = '1'</text>
<text x="356" y="460" font-family="arial" fill="rgb(0,0,0)" font-size="10" text-anchor="start">btn_in = '0'</text>
<text x="314" y="294" font-family="arial" fill="rgb(0,0,0)" font-size="10" text-anchor="start">TIMEOUT AND (btn_in = '0')</text>
<text x="329" y="317" font-family="arial" fill="rgb(0,0,0)" font-size="10" text-anchor="middle">1</text>
<text x="312" y="424" font-family="arial" fill="rgb(0,0,0)" font-size="10" text-anchor="middle">2</text>
<text x="390" y="622" font-family="Arial" fill="rgb(0,0,128)" font-size="10" text-anchor="start">by ACER on 29 May 2020</text>
<text x="602" y="572" font-family="Arial" fill="rgb(0,0,128)" font-size="10" text-anchor="start">Project:</text>
<text x="390" y="597" font-family="Arial" fill="rgb(0,0,128)" font-size="10" text-anchor="start">&#0060;enter diagram title here&#0062;</text>
<text x="340" y="597" font-family="Arial" fill="rgb(0,0,128)" font-size="10" text-anchor="start">Title:</text>
<text x="602" y="587" font-family="Arial" fill="rgb(0,0,128)" font-size="10" text-anchor="start">&#0060;enter comments here&#0062;</text>
<text x="652" y="572" font-family="Arial" fill="rgb(0,0,128)" font-size="10" text-anchor="start">alien_game</text>
<text x="469" y="578" font-family="Arial" fill="rgb(127,0,0)" font-size="10" text-anchor="middle">&#0060;company name&#0062;</text>
<text x="340" y="609" font-family="Arial" fill="rgb(0,0,128)" font-size="10" text-anchor="start">Path:</text>
<text x="340" y="622" font-family="Arial" fill="rgb(0,0,128)" font-size="10" text-anchor="start">Edited:</text>
<text x="390" y="609" font-family="Arial" fill="rgb(0,0,128)" font-size="10" text-anchor="start">alien_game_lib/c3_t3_button_state/fsm</text>
<text x="568" y="490" font-family="arial" fill="rgb(0,0,0)" font-weight="800" font-size="12" text-anchor="middle">s2</text>
<text x="583" y="528" font-family="arial" fill="rgb(0,0,0)" font-size="10" text-anchor="start">btn_out &#0060;= '1';</text>
<text x="395" y="528" font-family="arial" fill="rgb(0,0,0)" font-weight="800" font-size="12" text-anchor="middle">s3</text>
<text x="243" y="489" font-family="arial" fill="rgb(0,0,0)" font-size="10" text-anchor="start">TIMEOUT AND (btn_in = '1')</text>
<polyline id="r0"  stroke="rgb(0,0,0)" fill="none" stroke-width="1px" stroke-dasharray="" points="119, 267,156, 267" /> 
</g>
</svg>
<!-- Create a "titlebox" group so we can reposition it when the SVG moves -->
<g id="titlebox">
<g id="genTime" class="allText normalText">
  <text class="allText smallText" x="300" y="123">Generated on: 05/29/2020 at: 10:20 PM</text>
</g>

<rect stroke="none" fill="rgb(200,230,240)" opacity="0.4" y="112" x="0" width="914" height="15" />
<!-- Close the "titlebox" group -->
</g>

</g>
</svg>
