<?xml version="1.0" encoding="UTF-8"?>
<!DOCTYPE svg PUBLIC "-//W3C//DTD SVG 1.1//EN" "http://www.w3.org/Graphics/SVG/1.1/DTD/svg11.dtd">
<!-- Created HDS 2004.1a -->


<svg xmlns="http://www.w3.org/2000/svg" xmlns:xlink="http://www.w3.org/1999/xlink" version="1.1">
<script xlink:href="../../scripts/SVGPan.js" />
<g id="viewport" transform="translate(0,-100)">


<title>SVG Image</title>
<desc></desc>


<defs>
<!-- section for CSS stylesheet definitions -->
<style type="text/css"><![CDATA[
.allText {font-family:Sans-Serif;fill:darkcyan;}
.subTitleText {font-size:20;font-weight:bold;}
.normalText {font-size:15;}
.smallText {font-size:12;}
.boldText {font-weight:bold;}
.rightText {text-anchor:end;}
.centerText {text-anchor:middle;}
.dragRect {fill:darkcyan;stroke:none;opacity:0.4;}
]]></style>
<symbol id="upArrow" overflow="visible" style="stroke:darkcyan;fill:darkcyan;stroke-width:1;" pointer-events="none">
<polygon points="5,0 10,5 0,5 5,0" />
</symbol>
<symbol id="leftArrow" overflow="visible" style="stroke:darkcyan;fill:darkcyan;stroke-width:1;" pointer-events="none">
<polygon points="0,5 5,0 5,10 0,5" />
</symbol>
<symbol id="rightArrow" overflow="visible" style="stroke:darkcyan;fill:darkcyan;stroke-width:1;" pointer-events="none">
<polygon points="5,0 10,5 5,10 5,0" />
</symbol>
<symbol id="downArrow" overflow="visible" style="stroke:darkcyan;fill:darkcyan;stroke-width:1;" pointer-events="none">
<polygon points="0,0 5,5 10,0 0,0" />
</symbol>

</defs>
<svg id="mainMap" x="0" y="150" viewBox="0 0 1052 690" width="912" height="512">


<clipPath id="SVG_Clip">
<rect x="0" y="0" width="1052" height="690" />
</clipPath>
<g id="hds_models" style="clip-path:url(#SVG_Clip)">
<circle id="r0"  stroke="rgb(0,255,255)" fill="rgb(0,255,255)" stroke-width="1px" stroke-dasharray="" cx="554" cy="143" r="37"/> 
<circle stroke="rgb(0,127,191)" fill="none" stroke-width="3px" stroke-dasharray="" cx="554" cy="143" r="37"/> 
<rect id="r0"  stroke="rgb(254,254,179)" fill="rgb(254,254,179)" stroke-width="1px" stroke-dasharray="" y="673px" x="512px" width="212px" height="13px" rx="0" ry="0" />
<rect id="r0"  stroke="rgb(0,0,0)" fill="none" stroke-width="1px" stroke-dasharray="" y="673px" x="512px" width="212px" height="13px" rx="0" ry="0" />
<rect id="r0"  stroke="rgb(254,254,179)" fill="rgb(254,254,179)" stroke-width="1px" stroke-dasharray="" y="648px" x="512px" width="212px" height="13px" rx="0" ry="0" />
<rect id="r0"  stroke="rgb(0,0,0)" fill="none" stroke-width="1px" stroke-dasharray="" y="648px" x="512px" width="212px" height="13px" rx="0" ry="0" />
<rect id="r0"  stroke="rgb(254,254,179)" fill="rgb(254,254,179)" stroke-width="1px" stroke-dasharray="" y="623px" x="462px" width="262px" height="25px" rx="0" ry="0" />
<rect id="r0"  stroke="rgb(0,0,0)" fill="none" stroke-width="1px" stroke-dasharray="" y="623px" x="462px" width="262px" height="25px" rx="0" ry="0" />
<rect id="r0"  stroke="rgb(254,254,179)" fill="rgb(254,254,179)" stroke-width="1px" stroke-dasharray="" y="661px" x="512px" width="212px" height="12px" rx="0" ry="0" />
<rect id="r0"  stroke="rgb(0,0,0)" fill="none" stroke-width="1px" stroke-dasharray="" y="661px" x="512px" width="212px" height="12px" rx="0" ry="0" />
<circle id="r0"  stroke="rgb(0,255,255)" fill="rgb(0,255,255)" stroke-width="1px" stroke-dasharray="" cx="499" cy="507" r="37"/> 
<circle stroke="rgb(0,127,191)" fill="none" stroke-width="3px" stroke-dasharray="" cx="499" cy="507" r="37"/> 
<circle id="r0"  stroke="rgb(0,255,255)" fill="rgb(0,255,255)" stroke-width="1px" stroke-dasharray="" cx="427" cy="319" r="37"/> 
<circle stroke="rgb(0,127,191)" fill="none" stroke-width="3px" stroke-dasharray="" cx="427" cy="319" r="37"/> 
<circle id="r0"  stroke="rgb(0,255,255)" fill="rgb(0,255,255)" stroke-width="1px" stroke-dasharray="" cx="620" cy="316" r="37"/> 
<circle stroke="rgb(0,127,191)" fill="none" stroke-width="3px" stroke-dasharray="" cx="620" cy="316" r="37"/> 
<polyline id="r0"  stroke="rgb(255,255,0)" fill="rgb(255,255,0)" stroke-width="1px" stroke-dasharray="" points="23, 139,42, 139,52, 145,42, 151,23, 151,23, 139" /> 
<polyline id="r0"  stroke="rgb(0,0,0)" fill="none" stroke-width="1px" stroke-dasharray="" points="23, 139,42, 139,52, 145,42, 151,23, 151,23, 139" /> 
<path stroke="rgb(0,0,0)" fill="none" stroke-width="1px" stroke-dasharray="" transform="translate(28,144) rotate(0.000000)"
d="M 1.27840 1.53808 A 2 2 0 1 1 1.27840 -1.53808 " /> 
<polyline id="r0"  stroke="rgb(255,255,0)" fill="rgb(255,255,0)" stroke-width="1px" stroke-dasharray="" points="23, 139,42, 139,52, 145,42, 151,23, 151,23, 139" /> 
<polyline id="r0"  stroke="rgb(0,0,0)" fill="none" stroke-width="1px" stroke-dasharray="" points="23, 139,42, 139,52, 145,42, 151,23, 151,23, 139" /> 
<polyline id="r0"  stroke="rgb(0,0,0)" fill="none" stroke-width="1px" stroke-dasharray="" points="35, 149,38, 149,38, 141,42, 141" /> 
<path stroke="rgb(0,0,0)" fill="none" stroke-width="1px" stroke-dasharray="" transform="translate(28,144) rotate(0.000000)"
d="M 1.27840 1.53808 A 2 2 0 1 1 1.27840 -1.53808 " /> 
<polyline id="r0"  stroke="rgb(255,255,0)" fill="rgb(255,255,0)" stroke-width="1px" stroke-dasharray="" points="23, 251,42, 251,52, 257,42, 264,23, 264,23, 251" /> 
<polyline id="r0"  stroke="rgb(0,0,0)" fill="none" stroke-width="1px" stroke-dasharray="" points="23, 251,42, 251,52, 257,42, 264,23, 264,23, 251" /> 
<polyline id="r0"  stroke="rgb(255,255,0)" fill="rgb(255,255,0)" stroke-width="1px" stroke-dasharray="" points="23, 251,42, 251,52, 257,42, 264,23, 264,23, 251" /> 
<polyline id="r0"  stroke="rgb(0,0,0)" fill="none" stroke-width="1px" stroke-dasharray="" points="23, 251,42, 251,52, 257,42, 264,23, 264,23, 251" /> 
<polyline id="r0"  stroke="rgb(0,0,0)" fill="none" stroke-width="1px" stroke-dasharray="" points="42, 261,38, 261,38, 254,35, 254" /> 
<polyline id="r0"  stroke="rgb(0,0,0)" fill="none" stroke-width="1px" stroke-dasharray="" points="27, 256,28, 255" /> 
<polyline id="r0"  stroke="rgb(0,0,0)" fill="none" stroke-width="1px" stroke-dasharray="" points="27, 260,27, 255" /> 
<polyline id="r0"  stroke="rgb(255,255,0)" fill="rgb(255,255,0)" stroke-width="1px" stroke-dasharray="" points="254, 251,273, 251,282, 257,273, 264,254, 264,254, 251" /> 
<polyline id="r0"  stroke="rgb(0,0,0)" fill="none" stroke-width="1px" stroke-dasharray="" points="254, 251,273, 251,282, 257,273, 264,254, 264,254, 251" /> 
<polyline id="r0"  stroke="rgb(255,255,0)" fill="rgb(255,255,0)" stroke-width="1px" stroke-dasharray="" points="254, 251,273, 251,282, 257,273, 264,254, 264,254, 251" /> 
<polyline id="r0"  stroke="rgb(0,0,0)" fill="none" stroke-width="1px" stroke-dasharray="" points="254, 251,273, 251,282, 257,273, 264,254, 264,254, 251" /> 
<polyline id="r0"  stroke="rgb(0,0,0)" fill="none" stroke-width="1px" stroke-dasharray="" points="248, 257,254, 257" /> 
<circle id="r0"  stroke="rgb(255,0,0)" fill="rgb(255,0,0)" stroke-width="1px" stroke-dasharray="" cx="34" cy="195" r="11"/> 
<circle stroke="rgb(0,0,0)" fill="none" stroke-width="1px" stroke-dasharray="" cx="34" cy="195" r="11"/> 
<circle id="r0"  stroke="rgb(255,0,0)" fill="rgb(255,0,0)" stroke-width="1px" stroke-dasharray="" cx="34" cy="195" r="11"/> 
<circle stroke="rgb(0,0,0)" fill="none" stroke-width="1px" stroke-dasharray="" cx="34" cy="195" r="11"/> 
<polyline id="r0"  stroke="rgb(255,255,0)" fill="none" stroke-width="2px" stroke-dasharray="" points="29, 200,40, 190" /> 
<polyline id="r0"  stroke="rgb(255,255,0)" fill="none" stroke-width="2px" stroke-dasharray="" points="40, 200,29, 190" /> 
<polyline id="r0"  stroke="rgb(255,255,0)" fill="rgb(255,255,0)" stroke-width="1px" stroke-dasharray="" points="235, 190,254, 190,263, 196,254, 202,235, 202,235, 190" /> 
<polyline id="r0"  stroke="rgb(0,0,0)" fill="none" stroke-width="1px" stroke-dasharray="" points="235, 190,254, 190,263, 196,254, 202,235, 202,235, 190" /> 
<polyline id="r0"  stroke="rgb(255,255,0)" fill="rgb(255,255,0)" stroke-width="1px" stroke-dasharray="" points="235, 190,254, 190,263, 196,254, 202,235, 202,235, 190" /> 
<polyline id="r0"  stroke="rgb(0,0,0)" fill="none" stroke-width="1px" stroke-dasharray="" points="235, 190,254, 190,263, 196,254, 202,235, 202,235, 190" /> 
<polyline id="r0"  stroke="rgb(0,0,0)" fill="none" stroke-width="1px" stroke-dasharray="" points="229, 196,235, 196" /> 
<polyline id="r0"  stroke="rgb(0,255,255)" fill="rgb(0,255,255)" stroke-width="1px" stroke-dasharray="" points="390, 142,446, 142,462, 158,462, 214,446, 230,390, 230,374, 214,374, 158,390, 142" /> 
<polyline id="r0"  stroke="rgb(102,102,102)" fill="none" stroke-width="2px" stroke-dasharray="" points="390, 142,446, 142,462, 158,462, 214,446, 230,390, 230,374, 214,374, 158,390, 142" /> 
<circle id="r0"  stroke="rgb(0,255,255)" fill="rgb(0,255,255)" stroke-width="1px" stroke-dasharray="" cx="417" cy="185" r="37"/> 
<circle stroke="rgb(102,102,102)" fill="none" stroke-width="3px" stroke-dasharray="" cx="417" cy="185" r="37"/> 
<circle id="r0"  stroke="rgb(0,255,255)" fill="rgb(0,255,255)" stroke-width="1px" stroke-dasharray="" cx="735" cy="151" r="37"/> 
<circle stroke="rgb(0,127,191)" fill="none" stroke-width="3px" stroke-dasharray="" cx="735" cy="151" r="37"/> 
<circle id="r0"  stroke="rgb(0,255,255)" fill="rgb(0,255,255)" stroke-width="1px" stroke-dasharray="" cx="867" cy="200" r="37"/> 
<circle stroke="rgb(0,127,191)" fill="none" stroke-width="3px" stroke-dasharray="" cx="867" cy="200" r="37"/> 
<circle id="r0"  stroke="rgb(0,255,255)" fill="rgb(0,255,255)" stroke-width="1px" stroke-dasharray="" cx="947" cy="288" r="37"/> 
<circle stroke="rgb(0,127,191)" fill="none" stroke-width="3px" stroke-dasharray="" cx="947" cy="288" r="37"/> 
<rect id="r0"  stroke="rgb(254,254,179)" fill="rgb(254,254,179)" stroke-width="1px" stroke-dasharray="" y="648px" x="462px" width="50px" height="13px" rx="0" ry="0" />
<rect id="r0"  stroke="rgb(0,0,0)" fill="none" stroke-width="1px" stroke-dasharray="" y="648px" x="462px" width="50px" height="13px" rx="0" ry="0" />
<rect id="r0"  stroke="rgb(254,254,179)" fill="rgb(254,254,179)" stroke-width="1px" stroke-dasharray="" y="661px" x="462px" width="50px" height="12px" rx="0" ry="0" />
<rect id="r0"  stroke="rgb(0,0,0)" fill="none" stroke-width="1px" stroke-dasharray="" y="661px" x="462px" width="50px" height="12px" rx="0" ry="0" />
<rect id="r0"  stroke="rgb(254,254,179)" fill="rgb(254,254,179)" stroke-width="1px" stroke-dasharray="" y="673px" x="462px" width="50px" height="13px" rx="0" ry="0" />
<rect id="r0"  stroke="rgb(0,0,0)" fill="none" stroke-width="1px" stroke-dasharray="" y="673px" x="462px" width="50px" height="13px" rx="0" ry="0" />
<circle id="r0"  stroke="rgb(0,255,255)" fill="rgb(0,255,255)" stroke-width="1px" stroke-dasharray="" cx="367" cy="477" r="37"/> 
<circle stroke="rgb(0,127,191)" fill="none" stroke-width="3px" stroke-dasharray="" cx="367" cy="477" r="37"/> 
<circle id="r0"  stroke="rgb(0,255,255)" fill="rgb(0,255,255)" stroke-width="1px" stroke-dasharray="" cx="265" cy="394" r="37"/> 
<circle stroke="rgb(0,127,191)" fill="none" stroke-width="3px" stroke-dasharray="" cx="265" cy="394" r="37"/> 
<rect id="r0"  stroke="rgb(254,254,179)" fill="rgb(254,254,179)" stroke-width="1px" stroke-dasharray="" y="623px" x="724px" width="50px" height="13px" rx="0" ry="0" />
<rect id="r0"  stroke="rgb(0,0,0)" fill="none" stroke-width="1px" stroke-dasharray="" y="623px" x="724px" width="50px" height="13px" rx="0" ry="0" />
<rect id="r0"  stroke="rgb(254,254,179)" fill="rgb(254,254,179)" stroke-width="1px" stroke-dasharray="" y="636px" x="724px" width="250px" height="50px" rx="0" ry="0" />
<rect id="r0"  stroke="rgb(0,0,0)" fill="none" stroke-width="1px" stroke-dasharray="" y="636px" x="724px" width="250px" height="50px" rx="0" ry="0" />
<rect id="r0"  stroke="rgb(254,254,179)" fill="rgb(254,254,179)" stroke-width="1px" stroke-dasharray="" y="623px" x="774px" width="200px" height="13px" rx="0" ry="0" />
<rect id="r0"  stroke="rgb(0,0,0)" fill="none" stroke-width="1px" stroke-dasharray="" y="623px" x="774px" width="200px" height="13px" rx="0" ry="0" />
<circle id="r0"  stroke="rgb(0,255,255)" fill="rgb(0,255,255)" stroke-width="1px" stroke-dasharray="" cx="936" cy="427" r="37"/> 
<circle stroke="rgb(0,127,191)" fill="none" stroke-width="3px" stroke-dasharray="" cx="936" cy="427" r="37"/> 
<circle id="r0"  stroke="rgb(0,255,255)" fill="rgb(0,255,255)" stroke-width="1px" stroke-dasharray="" cx="850" cy="514" r="37"/> 
<circle stroke="rgb(0,127,191)" fill="none" stroke-width="3px" stroke-dasharray="" cx="850" cy="514" r="37"/> 
<circle id="r0"  stroke="rgb(0,255,255)" fill="rgb(0,255,255)" stroke-width="1px" stroke-dasharray="" cx="725" cy="532" r="37"/> 
<circle stroke="rgb(0,127,191)" fill="none" stroke-width="3px" stroke-dasharray="" cx="725" cy="532" r="37"/> 
<circle id="r0"  stroke="rgb(0,255,255)" fill="rgb(0,255,255)" stroke-width="1px" stroke-dasharray="" cx="621" cy="520" r="37"/> 
<circle stroke="rgb(0,127,191)" fill="none" stroke-width="3px" stroke-dasharray="" cx="621" cy="520" r="37"/> 
<polyline id="r0"  stroke="rgb(0,0,0)" fill="none" stroke-width="1px" stroke-dasharray="" points="35, 149,38, 149,38, 141,42, 141" /> 
<polyline id="r0"  stroke="rgb(0,0,0)" fill="none" stroke-width="1px" stroke-dasharray="" points="42, 261,38, 261,38, 254,35, 254" /> 
<polyline id="r0"  stroke="rgb(0,0,0)" fill="none" stroke-width="1px" stroke-dasharray="" points="27, 256,28, 255" /> 
<polyline id="r0"  stroke="rgb(0,0,0)" fill="none" stroke-width="1px" stroke-dasharray="" points="27, 260,27, 255" /> 
<polyline id="r0"  stroke="rgb(0,0,0)" fill="none" stroke-width="1px" stroke-dasharray="" points="248, 257,254, 257" /> 
<polyline id="r0"  stroke="rgb(255,255,0)" fill="none" stroke-width="2px" stroke-dasharray="" points="29, 200,40, 190" /> 
<polyline id="r0"  stroke="rgb(255,255,0)" fill="none" stroke-width="2px" stroke-dasharray="" points="40, 200,29, 190" /> 
<polyline id="r0"  stroke="rgb(0,0,0)" fill="none" stroke-width="1px" stroke-dasharray="" points="229, 196,235, 196" /> 
<polyline id="r0"  stroke="rgb(0,0,0)" fill="none" stroke-width="1px" stroke-dasharray="" points="52, 257,248, 257" /> 
<polyline id="r0"  stroke="rgb(0,0,0)" fill="none" stroke-width="1px" stroke-dasharray="" points="46, 195,229, 196" /> 
<polyline id="r0"  stroke="rgb(0,0,0)" fill="none" stroke-width="1px" stroke-dasharray="" points="589, 131,698, 140" /> 
<polyline id="r0"  stroke="rgb(0,0,0)" fill="rgb(0,0,0)" stroke-width="1px" stroke-dasharray="" points="691, 142,692, 136,698, 140" /> 
<polyline id="r0"  stroke="rgb(0,0,0)" fill="none" stroke-width="1px" stroke-dasharray="" points="771, 158,772, 159,774, 160,775, 161,777, 162,779, 163,782, 165,784, 166,787, 168,789, 169,792, 171,795, 172,797, 174,800, 176,803, 177,805, 179,808, 180,811, 182,813, 183,815, 185,818, 186,820, 187,821, 188,823, 189,824, 190,825, 190,826, 191,827, 191,828, 192,829, 192,829, 192,830, 192,830, 192,830, 192,830, 192,830, 192,830, 192,830, 192,830, 192,830, 192,830, 192,830, 192,830, 191,830, 191,830, 191,830, 191,830, 191,830, 191,830, 191" /> 
<polyline id="r0"  stroke="rgb(0,0,0)" fill="rgb(0,0,0)" stroke-width="1px" stroke-dasharray="" points="822, 192,824, 186,830, 191" /> 
<polyline id="r0"  stroke="rgb(0,0,0)" fill="none" stroke-width="1px" stroke-dasharray="" points="891, 227,921, 260" /> 
<polyline id="r0"  stroke="rgb(0,0,0)" fill="rgb(0,0,0)" stroke-width="1px" stroke-dasharray="" points="914, 257,919, 253,921, 260" /> 
<polyline id="r0"  stroke="rgb(0,0,0)" fill="none" stroke-width="1px" stroke-dasharray="" points="937, 324,924, 391" /> 
<polyline id="r0"  stroke="rgb(0,0,0)" fill="rgb(0,0,0)" stroke-width="1px" stroke-dasharray="" points="922, 384,929, 385,924, 391" /> 
<polyline id="r0"  stroke="rgb(0,0,0)" fill="none" stroke-width="1px" stroke-dasharray="" points="905, 449,865, 479" /> 
<polyline id="r0"  stroke="rgb(0,0,0)" fill="rgb(0,0,0)" stroke-width="1px" stroke-dasharray="" points="868, 473,872, 478,865, 479" /> 
<polyline id="r0"  stroke="rgb(0,0,0)" fill="none" stroke-width="1px" stroke-dasharray="" points="812, 515,761, 521" /> 
<polyline id="r0"  stroke="rgb(0,0,0)" fill="rgb(0,0,0)" stroke-width="1px" stroke-dasharray="" points="767, 517,768, 523,761, 521" /> 
<polyline id="r0"  stroke="rgb(0,0,0)" fill="none" stroke-width="1px" stroke-dasharray="" points="687, 535,657, 528" /> 
<polyline id="r0"  stroke="rgb(0,0,0)" fill="rgb(0,0,0)" stroke-width="1px" stroke-dasharray="" points="665, 527,663, 533,657, 528" /> 
<polyline id="r0"  stroke="rgb(0,0,0)" fill="none" stroke-width="1px" stroke-dasharray="" points="586, 507,535, 514" /> 
<polyline id="r0"  stroke="rgb(0,0,0)" fill="rgb(0,0,0)" stroke-width="1px" stroke-dasharray="" points="542, 510,542, 516,535, 514" /> 
<polyline id="r0"  stroke="rgb(0,0,0)" fill="none" stroke-width="1px" stroke-dasharray="" points="461, 508,400, 494" /> 
<polyline id="r0"  stroke="rgb(0,0,0)" fill="rgb(0,0,0)" stroke-width="1px" stroke-dasharray="" points="408, 492,406, 498,400, 494" /> 
<polyline id="r0"  stroke="rgb(0,0,0)" fill="none" stroke-width="1px" stroke-dasharray="" points="334, 459,292, 420" /> 
<polyline id="r0"  stroke="rgb(0,0,0)" fill="rgb(0,0,0)" stroke-width="1px" stroke-dasharray="" points="299, 422,295, 426,292, 420" /> 
<polyline id="r0"  stroke="rgb(0,0,0)" fill="none" stroke-width="1px" stroke-dasharray="" points="399, 457,428, 356" /> 
<polyline id="r0"  stroke="rgb(0,0,0)" fill="rgb(0,0,0)" stroke-width="1px" stroke-dasharray="" points="429, 363,423, 362,428, 356" /> 
<polyline id="r0"  stroke="rgb(0,0,0)" fill="none" stroke-width="1px" stroke-dasharray="" points="270, 357,374, 208" /> 
<polyline id="r0"  stroke="rgb(0,0,0)" fill="rgb(0,0,0)" stroke-width="1px" stroke-dasharray="" points="372, 216,367, 212,374, 208" /> 
<polyline id="r0"  stroke="rgb(0,0,0)" fill="none" stroke-width="1px" stroke-dasharray="" points="424, 281,421, 230" /> 
<polyline id="r0"  stroke="rgb(0,0,0)" fill="rgb(0,0,0)" stroke-width="1px" stroke-dasharray="" points="424, 237,418, 237,421, 230" /> 
<polyline id="r0"  stroke="rgb(0,0,0)" fill="none" stroke-width="1px" stroke-dasharray="" points="461, 157,516, 147" /> 
<polyline id="r0"  stroke="rgb(0,0,0)" fill="rgb(0,0,0)" stroke-width="1px" stroke-dasharray="" points="510, 152,509, 145,516, 147" /> 
<polyline id="r0"  stroke="rgb(0,0,0)" fill="none" stroke-width="1px" stroke-dasharray="" points="568, 178,607, 280" /> 
<polyline id="r0"  stroke="rgb(0,0,0)" fill="rgb(0,0,0)" stroke-width="1px" stroke-dasharray="" points="602, 274,607, 272,607, 280" /> 
<polyline id="r0"  stroke="rgb(0,0,0)" fill="none" stroke-width="1px" stroke-dasharray="" points="598, 346,400, 458" /> 
<polyline id="r0"  stroke="rgb(0,0,0)" fill="rgb(0,0,0)" stroke-width="1px" stroke-dasharray="" points="404, 452,407, 457,400, 458" /> 
<rect id="r0"  stroke="rgb(255,255,255)" fill="rgb(255,255,255)" stroke-width="1px" stroke-dasharray="" y="225px" x="503px" width="202px" height="25px" rx="0" ry="0" />
<rect id="r0"  stroke="rgb(0,127,191)" fill="none" stroke-width="1px" stroke-dasharray="" y="225px" x="503px" width="202px" height="25px" rx="0" ry="0" />
<rect id="r0"  stroke="rgb(255,255,255)" fill="rgb(255,255,255)" stroke-width="1px" stroke-dasharray="" y="396px" x="493px" width="123px" height="25px" rx="0" ry="0" />
<rect id="r0"  stroke="rgb(0,127,191)" fill="none" stroke-width="1px" stroke-dasharray="" y="396px" x="493px" width="123px" height="25px" rx="0" ry="0" />
<rect id="r0"  stroke="rgb(255,255,255)" fill="rgb(255,255,255)" stroke-width="1px" stroke-dasharray="" y="137px" x="52px" width="125px" height="15px" rx="0" ry="0" />
<rect id="r0"  stroke="rgb(0,127,191)" fill="none" stroke-width="1px" stroke-dasharray="" y="137px" x="52px" width="125px" height="15px" rx="0" ry="0" />
<rect id="r0"  stroke="rgb(255,255,255)" fill="rgb(255,255,255)" stroke-width="1px" stroke-dasharray="" y="245px" x="125px" width="50px" height="25px" rx="0" ry="0" />
<rect id="r0"  stroke="rgb(0,127,191)" fill="none" stroke-width="1px" stroke-dasharray="" y="245px" x="125px" width="50px" height="25px" rx="0" ry="0" />
<rect id="r0"  stroke="rgb(255,255,255)" fill="rgb(255,255,255)" stroke-width="1px" stroke-dasharray="" y="109px" x="438px" width="61px" height="24px" rx="0" ry="0" />
<rect id="r0"  stroke="rgb(0,127,191)" fill="none" stroke-width="3px" stroke-dasharray="" y="109px" x="438px" width="61px" height="24px" rx="0" ry="0" />
<rect id="r0"  stroke="rgb(255,255,255)" fill="rgb(255,255,255)" stroke-width="1px" stroke-dasharray="" y="94px" x="572px" width="204px" height="25px" rx="0" ry="0" />
<rect id="r0"  stroke="rgb(0,127,191)" fill="none" stroke-width="1px" stroke-dasharray="" y="94px" x="572px" width="204px" height="25px" rx="0" ry="0" />
<circle id="r0"  stroke="rgb(255,255,255)" fill="rgb(255,255,255)" stroke-width="1px" stroke-dasharray="" cx="600" cy="132" r="10"/> 
<circle stroke="rgb(0,0,0)" fill="none" stroke-width="1px" stroke-dasharray="" cx="600" cy="132" r="10"/> 
<circle id="r0"  stroke="rgb(255,255,255)" fill="rgb(255,255,255)" stroke-width="1px" stroke-dasharray="" cx="571" cy="188" r="9"/> 
<circle stroke="rgb(0,0,0)" fill="none" stroke-width="1px" stroke-dasharray="" cx="571" cy="188" r="9"/> 
<rect id="r0"  stroke="rgb(255,255,255)" fill="rgb(255,255,255)" stroke-width="1px" stroke-dasharray="" y="456px" x="252px" width="78px" height="48px" rx="0" ry="0" />
<rect id="r0"  stroke="rgb(0,127,191)" fill="none" stroke-width="1px" stroke-dasharray="" y="456px" x="252px" width="78px" height="48px" rx="0" ry="0" />
<circle id="r0"  stroke="rgb(255,255,255)" fill="rgb(255,255,255)" stroke-width="1px" stroke-dasharray="" cx="329" cy="455" r="9"/> 
<circle stroke="rgb(0,0,0)" fill="none" stroke-width="1px" stroke-dasharray="" cx="329" cy="455" r="9"/> 
<rect id="r0"  stroke="rgb(255,255,255)" fill="rgb(255,255,255)" stroke-width="1px" stroke-dasharray="" y="379px" x="371px" width="81px" height="47px" rx="0" ry="0" />
<rect id="r0"  stroke="rgb(0,127,191)" fill="none" stroke-width="1px" stroke-dasharray="" y="379px" x="371px" width="81px" height="47px" rx="0" ry="0" />
<circle id="r0"  stroke="rgb(255,255,255)" fill="rgb(255,255,255)" stroke-width="1px" stroke-dasharray="" cx="402" cy="447" r="10"/> 
<circle stroke="rgb(0,0,0)" fill="none" stroke-width="1px" stroke-dasharray="" cx="402" cy="447" r="10"/> 
<text x="514" y="683" font-family="Arial" fill="rgb(0,0,128)" font-size="10" text-anchor="start">by ACER on 29 May 2020</text>
<text x="464" y="683" font-family="Arial" fill="rgb(0,0,128)" font-size="10" text-anchor="start">Edited:</text>
<text x="932" y="325" font-family="arial" fill="rgb(0,0,0)" font-size="10" text-anchor="start">module_select &#0060;= "01";</text>
<text x="932" y="338" font-family="arial" fill="rgb(0,0,0)" font-size="10" text-anchor="start">write &#0060;= '1';</text>
<text x="929" y="458" font-family="arial" fill="rgb(0,0,0)" font-size="10" text-anchor="start">module_select &#0060;= "01";</text>
<text x="929" y="470" font-family="arial" fill="rgb(0,0,0)" font-size="10" text-anchor="start">write &#0060;= '1';</text>
<text x="929" y="483" font-family="arial" fill="rgb(0,0,0)" font-size="10" text-anchor="start">gun_px_indx &#0060;= "01";</text>
<text x="645" y="342" font-family="arial" fill="rgb(0,0,0)" font-size="10" text-anchor="start">write &#0060;= '1' ;</text>
<text x="645" y="355" font-family="arial" fill="rgb(0,0,0)" font-size="10" text-anchor="start">module_select &#0060;= "11" ;</text>
<text x="53" y="149" font-family="arial" fill="rgb(0,0,0)" font-size="10" text-anchor="start">clk'EVENT AND clk = '1'</text>
<text x="17" y="149" font-family="arial" fill="rgb(0,0,0)" font-size="10" text-anchor="end">clk</text>
<text x="143" y="72" font-family="arial" fill="rgb(0,0,0)" font-size="10" text-anchor="start">LIBRARY ieee;</text>
<text x="143" y="84" font-family="arial" fill="rgb(0,0,0)" font-size="10" text-anchor="start">USE ieee.std_logic_1164.all;</text>
<text x="143" y="97" font-family="arial" fill="rgb(0,0,0)" font-size="10" text-anchor="start">USE ieee.std_logic_arith.all;</text>
<text x="588" y="19" font-family="Courier New" fill="rgb(0,0,0)" font-size="10" text-anchor="start">SIGNAL         MODE    DEFAULT  RESET  SCHEME COMMENT  </text>
<text x="588" y="29" font-family="Courier New" fill="rgb(0,0,0)" font-size="10" text-anchor="start">enable         OUT     '0'             COMB            </text>
<text x="588" y="39" font-family="Courier New" fill="rgb(0,0,0)" font-size="10" text-anchor="start">enable_slow    OUT     '0'             COMB            </text>
<text x="588" y="49" font-family="Courier New" fill="rgb(0,0,0)" font-size="10" text-anchor="start">frame_done     OUT     '0'             COMB            </text>
<text x="588" y="59" font-family="Courier New" fill="rgb(0,0,0)" font-size="10" text-anchor="start">gun_px_indx    OUT     "00"            COMB            </text>
<text x="588" y="69" font-family="Courier New" fill="rgb(0,0,0)" font-size="10" text-anchor="start">module_select  OUT     "00"            COMB            </text>
<text x="588" y="79" font-family="Courier New" fill="rgb(0,0,0)" font-size="10" text-anchor="start">write          OUT     '0'             COMB            </text>
<text x="588" y="89" font-family="Courier New" fill="rgb(0,0,0)" font-size="10" text-anchor="start">counter        LOCAL                   CLKD            </text>
<text x="554" y="148" font-family="arial" fill="rgb(0,0,0)" font-weight="800" font-size="12" text-anchor="middle">s0</text>
<text x="143" y="59" font-family="arial" fill="rgb(0,0,0)" font-weight="800" font-size="10" text-anchor="start">Package List</text>
<text x="419" y="10" font-family="arial" fill="rgb(0,0,0)" font-weight="800" font-size="10" text-anchor="start">Architecture Declarations</text>
<text x="419" y="22" font-family="arial" fill="rgb(0,0,0)" font-weight="800" font-size="10" text-anchor="start">Pre Decls</text>
<text x="419" y="34" font-family="arial" fill="rgb(0,0,0)" font-weight="800" font-size="10" text-anchor="start">Post Decls</text>
<text x="143" y="10" font-family="arial" fill="rgb(0,0,0)" font-weight="800" font-size="10" text-anchor="start">Global Actions</text>
<text x="143" y="22" font-family="arial" fill="rgb(0,0,0)" font-weight="800" font-size="10" text-anchor="start">Pre Actions:</text>
<text x="143" y="34" font-family="arial" fill="rgb(0,0,0)" font-weight="800" font-size="10" text-anchor="start">Post Actions:</text>
<text x="258" y="10" font-family="arial" fill="rgb(0,0,0)" font-weight="800" font-size="10" text-anchor="start">Concurrent Statements</text>
<text x="869" y="10" font-family="arial" fill="rgb(0,0,0)" font-weight="800" font-size="10" text-anchor="start">Process Declarations</text>
<text x="869" y="22" font-family="arial" fill="rgb(0,0,0)" font-weight="800" font-size="10" text-anchor="start">Clocked Process:</text>
<text x="869" y="34" font-family="arial" fill="rgb(0,0,0)" font-weight="800" font-size="10" text-anchor="start">Output Process:</text>
<text x="697" y="10" font-family="arial" fill="rgb(0,0,0)" font-weight="800" font-size="10" text-anchor="start">State Register Statements</text>
<text x="588" y="10" font-family="arial" fill="rgb(0,0,0)" font-weight="800" font-size="10" text-anchor="start">Signal Status</text>
<text x="443" y="125" font-family="arial" fill="rgb(0,0,0)" font-size="10" text-anchor="start">TIMEOUT</text>
<text x="734" y="156" font-family="arial" fill="rgb(0,0,0)" font-weight="800" font-size="12" text-anchor="middle">s1</text>
<text x="578" y="110" font-family="arial" fill="rgb(0,0,0)" font-size="10" text-anchor="start">write_ready = '1' AND alien_defeat /= '1'</text>
<text x="600" y="136" font-family="arial" fill="rgb(0,0,0)" font-size="10" text-anchor="middle">1</text>
<text x="23" y="261" font-family="arial" fill="rgb(0,0,0)" font-size="10" text-anchor="end">rst</text>
<text x="288" y="261" font-family="arial" fill="rgb(0,0,0)" font-weight="800" font-size="10" text-anchor="start">s0</text>
<text x="131" y="255" font-family="arial" fill="rgb(0,0,0)" font-size="10" text-anchor="start">rst = '0'</text>
<text x="510" y="242" font-family="arial" fill="rgb(0,0,0)" font-size="10" text-anchor="start">write_ready = '1' AND alien_defeat = '1'</text>
<text x="269" y="200" font-family="arial" fill="rgb(0,0,0)" font-weight="800" font-size="10" text-anchor="start">s0</text>
<text x="418" y="201" font-family="arial" fill="rgb(0,0,0)" font-weight="800" font-size="12" text-anchor="middle">s12</text>
<text x="395" y="181" font-family="arial" fill="rgb(0,0,128)" font-weight="800" font-size="12" text-anchor="start">wait 12000000</text>
<text x="694" y="197" font-family="arial" fill="rgb(0,0,0)" font-size="10" text-anchor="start">write &#0060;= '1';</text>
<text x="866" y="204" font-family="arial" fill="rgb(0,0,0)" font-weight="800" font-size="12" text-anchor="middle">s2</text>
<text x="768" y="228" font-family="arial" fill="rgb(0,0,0)" font-size="10" text-anchor="start">write &#0060;= '1' ;</text>
<text x="768" y="241" font-family="arial" fill="rgb(0,0,0)" font-size="10" text-anchor="start">module_select &#0060;= "01" ;</text>
<text x="572" y="192" font-family="arial" fill="rgb(0,0,0)" font-size="10" text-anchor="middle">2</text>
<text x="427" y="323" font-family="arial" fill="rgb(0,0,0)" font-weight="800" font-size="12" text-anchor="middle">s11</text>
<text x="947" y="293" font-family="arial" fill="rgb(0,0,0)" font-weight="800" font-size="12" text-anchor="middle">s3</text>
<text x="620" y="320" font-family="arial" fill="rgb(0,0,0)" font-weight="800" font-size="12" text-anchor="middle">s13</text>
<text x="850" y="519" font-family="arial" fill="rgb(0,0,0)" font-weight="800" font-size="12" text-anchor="middle">s5</text>
<text x="498" y="512" font-family="arial" fill="rgb(0,0,0)" font-weight="800" font-size="12" text-anchor="middle">s8</text>
<text x="935" y="432" font-family="arial" fill="rgb(0,0,0)" font-weight="800" font-size="12" text-anchor="middle">s4</text>
<text x="499" y="412" font-family="arial" fill="rgb(0,0,0)" font-size="10" text-anchor="start">alien_defeat_done = '1'</text>
<text x="264" y="399" font-family="arial" fill="rgb(0,0,0)" font-weight="800" font-size="12" text-anchor="middle">s10</text>
<text x="427" y="356" font-family="arial" fill="rgb(0,0,0)" font-size="10" text-anchor="start">enable &#0060;= '1' ;</text>
<text x="427" y="368" font-family="arial" fill="rgb(0,0,0)" font-size="10" text-anchor="start">enable_slow &#0060;= '1' ;</text>
<text x="383" y="395" font-family="arial" fill="rgb(0,0,0)" font-size="10" text-anchor="start">counter = 1</text>
<text x="377" y="417" font-family="arial" fill="rgb(0,0,0)" font-size="10" text-anchor="start">counter &#0060;= 0 ;</text>
<text x="367" y="482" font-family="arial" fill="rgb(0,0,0)" font-weight="800" font-size="12" text-anchor="middle">s9</text>
<text x="279" y="438" font-family="arial" fill="rgb(0,0,0)" font-size="10" text-anchor="start">enable &#0060;= '1' ;</text>
<text x="261" y="472" font-family="arial" fill="rgb(0,0,0)" font-size="10" text-anchor="start">counter /= 1</text>
<text x="258" y="495" font-family="arial" fill="rgb(0,0,0)" font-size="10" text-anchor="start">counter &#0060;= 1;</text>
<text x="330" y="459" font-family="arial" fill="rgb(0,0,0)" font-size="10" text-anchor="middle">1</text>
<text x="402" y="451" font-family="arial" fill="rgb(0,0,0)" font-size="10" text-anchor="middle">2</text>
<text x="770" y="452" font-family="arial" fill="rgb(0,0,0)" font-size="10" text-anchor="start">module_select &#0060;= "01";</text>
<text x="770" y="465" font-family="arial" fill="rgb(0,0,0)" font-size="10" text-anchor="start">write &#0060;= '1';</text>
<text x="770" y="477" font-family="arial" fill="rgb(0,0,0)" font-size="10" text-anchor="start">gun_px_indx &#0060;= "10";</text>
<text x="598" y="459" font-family="arial" fill="rgb(0,0,0)" font-size="10" text-anchor="start">module_select &#0060;= "01";</text>
<text x="598" y="471" font-family="arial" fill="rgb(0,0,0)" font-size="10" text-anchor="start">write &#0060;= '1';</text>
<text x="598" y="484" font-family="arial" fill="rgb(0,0,0)" font-size="10" text-anchor="start">gun_px_indx &#0060;= "11";</text>
<text x="514" y="658" font-family="Arial" fill="rgb(0,0,128)" font-size="10" text-anchor="start">c3_t2_write_sequencer</text>
<text x="593" y="639" font-family="Arial" fill="rgb(127,0,0)" font-size="10" text-anchor="middle">&#0060;company name&#0062;</text>
<text x="514" y="671" font-family="Arial" fill="rgb(0,0,128)" font-size="10" text-anchor="start">alien_game_lib/c3_t2_write_sequencer/fsm</text>
<text x="491" y="544" font-family="arial" fill="rgb(0,0,0)" font-size="10" text-anchor="start">module_select &#0060;= "10";</text>
<text x="491" y="557" font-family="arial" fill="rgb(0,0,0)" font-size="10" text-anchor="start">write &#0060;= '1';</text>
<text x="371" y="520" font-family="arial" fill="rgb(0,0,0)" font-size="10" text-anchor="start">frame_done &#0060;= '1' ;</text>
<text x="725" y="537" font-family="arial" fill="rgb(0,0,0)" font-weight="800" font-size="12" text-anchor="middle">s6</text>
<text x="718" y="563" font-family="arial" fill="rgb(0,0,0)" font-size="10" text-anchor="start">module_select &#0060;= "01";</text>
<text x="718" y="576" font-family="arial" fill="rgb(0,0,0)" font-size="10" text-anchor="start">write &#0060;= '1';</text>
<text x="718" y="588" font-family="arial" fill="rgb(0,0,0)" font-size="10" text-anchor="start">gun_px_indx &#0060;= "11";</text>
<text x="621" y="524" font-family="arial" fill="rgb(0,0,0)" font-weight="800" font-size="12" text-anchor="middle">s7</text>
<text x="464" y="658" font-family="Arial" fill="rgb(0,0,128)" font-size="10" text-anchor="start">Title:</text>
<text x="464" y="671" font-family="Arial" fill="rgb(0,0,128)" font-size="10" text-anchor="start">Path:</text>
<text x="727" y="633" font-family="Arial" fill="rgb(0,0,128)" font-size="10" text-anchor="start">Project:</text>
<text x="727" y="648" font-family="Arial" fill="rgb(0,0,128)" font-size="10" text-anchor="start">&#0060;enter comments here&#0062;</text>
<text x="777" y="633" font-family="Arial" fill="rgb(0,0,128)" font-size="10" text-anchor="start">alien_game</text>
<polyline id="r0"  stroke="rgb(0,0,0)" fill="none" stroke-width="1px" stroke-dasharray="" points="131, 262,168, 262" /> 
<polyline id="r0"  stroke="rgb(0,0,0)" fill="none" stroke-width="1px" stroke-dasharray="" points="258, 480,324, 480" /> 
<polyline id="r0"  stroke="rgb(0,0,0)" fill="none" stroke-width="1px" stroke-dasharray="" points="377, 402,446, 402" /> 
</g>
</svg>
<!-- Create a "titlebox" group so we can reposition it when the SVG moves -->
<g id="titlebox">
<g id="genTime" class="allText normalText">
  <text class="allText smallText" x="300" y="123">Generated on: 05/29/2020 at: 10:20 PM</text>
</g>

<rect stroke="none" fill="rgb(200,230,240)" opacity="0.4" y="112" x="0" width="914" height="15" />
<!-- Close the "titlebox" group -->
</g>

</g>
</svg>
